SplineFontDB: 3.2
FontName: BertiogaSans-MediumItalic
FullName: Bertioga Sans Medium Italic
FamilyName: Bertioga Sans Medium
Weight: Medium
Copyright: Copyright 2020 The Arimo Project Authors (https://github.com/googlefonts/arimo)\nCopyright 2020 The Libra Sans Project Authors (https://github.com/stefanpeev/libra-sans)\nCopyright 2024 The Bertioga Sans Project Authors (https://github.com/cssobral2013/bertioga-sans)
UComments: "2024-2-22: Created with FontForge (http://fontforge.org)"
Version: 3.004
ItalicAngle: -12
UnderlinePosition: -100
UnderlineWidth: 50
Ascent: 1638
Descent: 410
InvalidEm: 0
LayerCount: 2
Layer: 0 1 "Back" 1
Layer: 1 1 "Fore" 0
XUID: [1021 531 -1996577725 16517385]
StyleMap: 0x0001
FSType: 0
OS2Version: 4
OS2_WeightWidthSlopeOnly: 0
OS2_UseTypoMetrics: 1
CreationTime: 1708629415
ModificationTime: 1708737783
PfmFamily: 17
TTFWeight: 500
TTFWidth: 5
LineGap: 67
VLineGap: 0
Panose: 2 11 6 4 2 2 2 2 2 4
OS2TypoAscent: 1854
OS2TypoAOffset: 0
OS2TypoDescent: -434
OS2TypoDOffset: 0
OS2TypoLinegap: 67
OS2WinAscent: 2136
OS2WinAOffset: 0
OS2WinDescent: 797
OS2WinDOffset: 0
HheadAscent: 1854
HheadAOffset: 0
HheadDescent: -434
HheadDOffset: 0
OS2SubXSize: 1331
OS2SubYSize: 1433
OS2SubXOff: 0
OS2SubYOff: 286
OS2SupXSize: 1331
OS2SupYSize: 1433
OS2SupXOff: 0
OS2SupYOff: 983
OS2StrikeYSize: 102
OS2StrikeYPos: 530
OS2CapHeight: 1409
OS2XHeight: 1082
OS2Vendor: 'GOOG'
OS2CodePages: e00001bf.dff70000
OS2UnicodeRanges: e0000aff.500078ff.00000029.00000000
Lookup: 4 1 0 "dligDiscretionaryLigaturesinHebrewlookup1" { "dligDiscretionaryLigaturesinHebrewlookup1 subtable"  } ['dlig' ('hebr' <'dflt' > ) ]
Lookup: 4 0 0 "ccmpGlyphCompositionDecompositionlookup2" { "ccmpGlyphCompositionDecompositionlookup2 subtable"  } ['ccmp' ('latn' <'dflt' 'MAH ' > 'grek' <'dflt' > 'cyrl' <'dflt' > ) ]
Lookup: 6 0 0 "ccmpGlyphCompositionDecompositionlookup3" { "ccmpGlyphCompositionDecompositionlookup3 subtable"  } ['ccmp' ('latn' <'dflt' 'MAH ' > 'grek' <'dflt' > 'cyrl' <'dflt' > ) ]

StartChar: .notdef
Encoding: 65536 -1 0
Width: 1536
GlyphClass: 2
Flags: W
LayerCount: 2
Fore
SplineSet
1330 1409 m 1,0,0
 1330 0 l 1,0,0
 205 0 l 1,0,0
 205 1409 l 1,0,0
 1330 1409 l 1,0,0
281 76 m 1,0,0
 1254 76 l 1,0,0
 1254 1333 l 1,0,0
 281 1333 l 1,0,0
 281 76 l 1,0,0
EndSplineSet
EndChar

StartChar: exclam
Encoding: 33 33 4
Width: 606
GlyphClass: 2
Flags: W
LayerCount: 2
Fore
SplineSet
581.34 1409 m 1,0,0
 360.02 406.57 l 1,0,0
 184.96 406.57 l 1,0,0
 353 1409 l 1,0,0
 581.34 1409 l 1,0,0
346.64 223.77 m 1,0,0
 302.68 0 l 1,0,0
 77.66 0 l 1,0,0
 121.62 223.77 l 1,0,0
 346.64 223.77 l 1,0,0
EndSplineSet
EndChar

StartChar: quotedbl
Encoding: 34 34 5
Width: 807
GlyphClass: 2
Flags: W
LayerCount: 2
Fore
SplineSet
865.37 1409 m 1,0,0
 752.11 943.56 l 1,0,0
 584.7 943.56 l 1,0,0
 651.34 1409 l 1,0,0
 865.37 1409 l 1,0,0
476.9 1409 m 1,0,0
 364.3 943.56 l 1,0,0
 197.56 943.56 l 1,0,0
 263.53 1409 l 1,0,0
 476.9 1409 l 1,0,0
EndSplineSet
EndChar

StartChar: numbersign
Encoding: 35 35 6
Width: 1139
GlyphClass: 2
Flags: W
LayerCount: 2
Fore
SplineSet
357.92 399.09 m 1,0,0
 275.24 0 l 1,0,0
 151.05 0 l 1,0,0
 233.4 399.09 l 1,0,0
 47.58 399.09 l 1,0,0
 47.58 520.62 l 1,0,0
 260.37 520.62 l 1,0,0
 335.73 877.41 l 1,0,0
 98.58 877.41 l 1,0,0
 98.58 998.61 l 1,0,0
 360.7 998.61 l 1,0,0
 448.05 1399.02 l 1,0,0
 572.24 1399.02 l 1,0,0
 486.22 998.61 l 1,0,0
 830.74 998.61 l 1,0,0
 917.42 1399.02 l 1,0,0
 1042.6 1399.02 l 1,0,0
 955.92 998.61 l 1,0,0
 1151.41 998.61 l 1,0,0
 1151.41 877.41 l 1,0,0
 930.29 877.41 l 1,0,0
 855.26 520.62 l 1,0,0
 1100.41 520.62 l 1,0,0
 1100.41 399.09 l 1,0,0
 829.62 399.09 l 1,0,0
 743.6 0 l 1,0,0
 618.42 0 l 1,0,0
 702.44 399.09 l 1,0,0
 357.92 399.09 l 1,0,0
385.56 520.62 m 1,0,0
 730.07 520.62 l 1,0,0
 805.43 877.41 l 1,0,0
 462.92 877.41 l 1,0,0
 385.56 520.62 l 1,0,0
EndSplineSet
EndChar

StartChar: dollar
Encoding: 36 36 7
Width: 1139
GlyphClass: 2
Flags: W
LayerCount: 2
Fore
SplineSet
1074.64 441.17 m 0,0,0
 1074.64 246.93 1074.64 246.93 935.985 138.46 c 0,0,0
 797.33 29.99 797.33 29.99 532.08 21 c 1,0,0
 500.42 -143.96 l 1,0,0
 387.08 -143.96 l 1,0,0
 419.08 23 l 1,0,0
 226.33 32.38 226.33 32.38 118.355 123.535 c 0,0,0
 10.38 214.69 10.38 214.69 -11.67 372.7 c 1,0,0
 184 411.35 l 1,0,0
 203.06 305.26 203.06 305.26 267.64 251.045 c 0,0,0
 332.22 196.83 332.22 196.83 451.7 190.13 c 1,0,0
 540.11 648.48 l 1,0,0
 390.45 688.16 390.45 688.16 310.86 743.73 c 0,0,0
 241.16 790.38 241.16 790.38 204.975 855.045 c 0,0,0
 168.79 919.71 168.79 919.71 168.79 1008.1 c 0,0,0
 168.79 1123.73 168.79 1123.73 233.13 1209.37 c 0,0,0
 297.14 1294.68 297.14 1294.68 416.115 1340.99 c 0,0,0
 535.09 1387.3 535.09 1387.3 684.73 1387.97 c 1,0,0
 709.4 1517.32 l 1,0,0
 822.08 1516 l 1,0,0
 795.08 1381.31 l 1,0,0
 953.06 1368.58 953.06 1368.58 1048.53 1292.26 c 0,0,0
 1144 1215.94 1144 1215.94 1165.71 1087.66 c 1,0,0
 975.06 1038.7 l 1,0,0
 935.34 1202.73 935.34 1202.73 764.45 1220.82 c 1,0,0
 684.72 808.86 l 1,0,0
 885.01 756.85 885.01 756.85 979.825 666.005 c 0,0,0
 1074.64 575.16 1074.64 575.16 1074.64 441.17 c 0,0,0
379.17 1014.04 m 0,0,0
 379.17 952.98 379.17 952.98 420.045 913.445 c 0,0,0
 460.92 873.91 460.92 873.91 576.72 837.54 c 1,0,0
 653.1 1224.82 l 1,0,0
 523.28 1221.47 523.28 1221.47 451.225 1165.79 c 0,0,0
 379.17 1110.11 379.17 1110.11 379.17 1014.04 c 0,0,0
861.59 413 m 0,0,0
 861.59 490.67 861.59 490.67 813.235 537.87 c 0,0,0
 764.88 585.07 764.88 585.07 648.44 619.13 c 1,0,0
 564.05 189.46 l 1,0,0
 708.53 194.82 708.53 194.82 785.06 252.195 c 0,0,0
 861.59 309.57 861.59 309.57 861.59 413 c 0,0,0
EndSplineSet
EndChar

StartChar: percent
Encoding: 37 37 8
Width: 1821
GlyphClass: 2
Flags: W
LayerCount: 2
Fore
SplineSet
545.33 1421 m 0,0,0
 678.58 1421 678.58 1421 749.705 1341.835 c 0,0,0
 820.83 1262.67 820.83 1262.67 820.83 1113 c 0,0,0
 820.83 1027.64 820.83 1027.64 801.53 939.02 c 0,0,0
 788.2 871.02 788.2 871.02 765.365 808.995 c 0,0,0
 742.53 746.97 742.53 746.97 709.52 697.95 c 0,0,0
 594.9 524 594.9 524 406.33 524 c 0,0,0
 276.39 524 276.39 524 205.585 606.995 c 0,0,0
 134.78 689.99 134.78 689.99 134.78 841 c 0,0,0
 134.78 968.19 134.78 968.19 174.19 1092.72 c 1,0,0
 265.56 1421 265.56 1421 545.33 1421 c 0,0,0
445.13 0 m 1,0,0
 269.57 0 l 1,0,0
 1422.57 1409 l 1,0,0
 1600.13 1409 l 1,0,0
 445.13 0 l 1,0,0
544.33 1298.81 m 0,0,0
 486.24 1298.81 486.24 1298.81 447.53 1273.09 c 0,0,0
 408.82 1247.37 408.82 1247.37 379.79 1193.25 c 0,0,0
 355.82 1150.57 355.82 1150.57 337.17 1083.595 c 0,0,0
 318.52 1016.62 318.52 1016.62 308.025 947.48 c 0,0,0
 297.53 878.34 297.53 878.34 297.53 827 c 0,0,0
 297.53 652.84 297.53 652.84 410.33 652.84 c 0,0,0
 490.38 652.84 490.38 652.84 542.08 714.23 c 0,0,0
 574.09 752.26 574.09 752.26 597.6 814.475 c 0,0,0
 621.11 876.69 621.11 876.69 635.11 949.69 c 1,0,0
 657.08 1053 657.08 1053 657.08 1131 c 0,0,0
 657.08 1298.81 657.08 1298.81 544.33 1298.81 c 0,0,0
1467.4 884.01 m 0,0,0
 1600.65 884.01 1600.65 884.01 1671.94 804.845 c 0,0,0
 1743.23 725.68 1743.23 725.68 1743.23 576.01 c 0,0,0
 1743.23 491.99 1743.23 491.99 1723.26 398.68 c 0,0,0
 1709.93 331.35 1709.93 331.35 1687.095 270.33 c 0,0,0
 1664.26 209.31 1664.26 209.31 1631.92 160.96 c 0,0,0
 1517.3 -12.99 1517.3 -12.99 1328.73 -12.99 c 0,0,0
 1198.79 -12.99 1198.79 -12.99 1127.985 70.005 c 0,0,0
 1057.18 153 1057.18 153 1057.18 304.01 c 0,0,0
 1057.18 431.2 1057.18 431.2 1096.59 555.73 c 1,0,0
 1187.96 884.01 1187.96 884.01 1467.4 884.01 c 0,0,0
1466.73 761.82 m 0,0,0
 1408.97 761.82 1408.97 761.82 1370.095 736.1 c 0,0,0
 1331.22 710.38 1331.22 710.38 1302.19 656.26 c 0,0,0
 1278.22 613.58 1278.22 613.58 1259.735 546.605 c 0,0,0
 1241.25 479.63 1241.25 479.63 1230.59 410.49 c 0,0,0
 1219.93 341.35 1219.93 341.35 1219.93 290.01 c 0,0,0
 1219.93 115.85 1219.93 115.85 1332.73 115.85 c 0,0,0
 1413.77 115.85 1413.77 115.85 1465.8 178.89 c 0,0,0
 1498.82 217.59 1498.82 217.59 1522.17 282.49 c 0,0,0
 1545.52 347.39 1545.52 347.39 1558.85 421.41 c 1,0,0
 1579.48 519.36 1579.48 519.36 1579.48 594.01 c 0,0,0
 1579.48 761.82 1579.48 761.82 1466.73 761.82 c 0,0,0
EndSplineSet
EndChar

StartChar: ampersand
Encoding: 38 38 9
Width: 1403
GlyphClass: 2
Flags: W
LayerCount: 2
Fore
SplineSet
1274.73 681.69 m 1,0,0
 1212.98 542.18 1212.98 542.18 1139.655 424.66 c 0,0,0
 1066.33 307.14 1066.33 307.14 988.02 225.49 c 1,0,0
 1027.36 189.47 1027.36 189.47 1076.21 170.455 c 0,0,0
 1125.06 151.44 1125.06 151.44 1174.03 151.44 c 0,0,0
 1236.02 151.44 1236.02 151.44 1285.7 167.44 c 1,0,0
 1264.12 10 l 1,0,0
 1203.14 -12 1203.14 -12 1134.5 -12 c 0,0,0
 977.25 -12 977.25 -12 852.28 108.35 c 1,0,0
 817.28 82.36 817.28 82.36 782.26 62.02 c 0,0,0
 747.24 41.68 747.24 41.68 712.53 28 c 0,0,0
 655.17 4.66 655.17 4.66 588.85 -7.67 c 0,0,0
 522.53 -20 522.53 -20 447.92 -20 c 0,0,0
 254.96 -20 254.96 -20 146.62 79.18 c 0,0,0
 38.28 178.36 38.28 178.36 38.28 351.99 c 0,0,0
 38.28 456.33 38.28 456.33 80.755 537.31 c 0,0,0
 123.23 618.29 123.23 618.29 217.06 684.115 c 0,0,0
 310.89 749.94 310.89 749.94 466.29 807.65 c 1,0,0
 451.96 863.02 451.96 863.02 443.97 922.67 c 0,0,0
 435.98 982.32 435.98 982.32 435.98 1036.33 c 0,0,0
 435.98 1209 435.98 1209 546.46 1313 c 0,0,0
 656.94 1417 656.94 1417 844.55 1417 c 0,0,0
 989.48 1417 989.48 1417 1076.64 1346.485 c 0,0,0
 1163.8 1275.97 1163.8 1275.97 1163.8 1156.65 c 0,0,0
 1163.8 1048.9 1163.8 1048.9 1094.345 968.18 c 0,0,0
 1024.89 887.46 1024.89 887.46 855.81 812.38 c 0,0,0
 820.85 794.1 820.85 794.1 775.99 774.18 c 0,0,0
 731.13 754.26 731.13 754.26 675.7 731.69 c 1,0,0
 715.35 617.38 715.35 617.38 764.405 523.935 c 0,0,0
 813.46 430.49 813.46 430.49 878.52 341.4 c 1,0,0
 940.83 410.39 940.83 410.39 998.325 503.4 c 0,0,0
 1055.82 596.41 1055.82 596.41 1124.58 745.93 c 1,0,0
 1274.73 681.69 l 1,0,0
616.75 1041 m 0,0,0
 616.75 961.33 616.75 961.33 636.08 873.89 c 1,0,0
 712.44 902.23 712.44 902.23 774.51 926.745 c 0,0,0
 836.58 951.26 836.58 951.26 879.67 977.98 c 0,0,0
 930.34 1009.98 930.34 1009.98 958.52 1050.155 c 0,0,0
 986.7 1090.33 986.7 1090.33 986.7 1146.02 c 0,0,0
 986.7 1206.4 986.7 1206.4 945.16 1243.115 c 0,0,0
 903.62 1279.83 903.62 1279.83 835.57 1279.83 c 0,0,0
 732.48 1279.83 732.48 1279.83 674.615 1216.455 c 0,0,0
 616.75 1153.08 616.75 1153.08 616.75 1041 c 0,0,0
465.53 130.47 m 0,0,0
 541.26 130.47 541.26 130.47 611.97 154.98 c 0,0,0
 682.68 179.49 682.68 179.49 743.76 224.21 c 1,0,0
 674.39 311.57 674.39 311.57 613 425.16 c 0,0,0
 551.61 538.75 551.61 538.75 509.59 660.48 c 1,0,0
 356.11 597.78 356.11 597.78 296.22 527.425 c 0,0,0
 236.33 457.07 236.33 457.07 236.33 355.98 c 0,0,0
 236.33 253.56 236.33 253.56 299.385 192.015 c 0,0,0
 362.44 130.47 362.44 130.47 465.53 130.47 c 0,0,0
EndSplineSet
EndChar

StartChar: quotesingle
Encoding: 39 39 10
Width: 422
GlyphClass: 2
Flags: W
LayerCount: 2
Fore
SplineSet
480.02 1409 m 1,0,0
 367.42 943.56 l 1,0,0
 200.68 943.56 l 1,0,0
 266.98 1409 l 1,0,0
 480.02 1409 l 1,0,0
EndSplineSet
EndChar

StartChar: parenleft
Encoding: 40 40 11
Width: 682
GlyphClass: 2
Flags: W
LayerCount: 2
Fore
SplineSet
861.27 1484 m 1,0,0
 301.09 977.97 301.09 977.97 301.09 267.94 c 0,0,0
 301.09 -124.36 301.09 -124.36 488.29 -424.33 c 1,0,0
 280.96 -424.33 l 1,0,0
 88.74 -122.73 88.74 -122.73 88.74 283.94 c 0,0,0
 88.74 652.97 88.74 652.97 232.8 958.65 c 0,0,0
 376.86 1264.33 376.86 1264.33 651.96 1484 c 1,0,0
 861.27 1484 l 1,0,0
EndSplineSet
EndChar

StartChar: parenright
Encoding: 41 41 12
Width: 682
GlyphClass: 2
Flags: W
LayerCount: 2
Fore
SplineSet
-192.73 -424.33 m 1,0,0
 367.78 85.99 367.78 85.99 367.78 801.63 c 0,0,0
 367.78 987.71 367.78 987.71 320.075 1162.68 c 0,0,0
 272.37 1337.65 272.37 1337.65 179.92 1484 c 1,0,0
 383.95 1484 l 1,0,0
 580.46 1180.75 580.46 1180.75 580.46 785.63 c 0,0,0
 580.46 412.64 580.46 412.64 435.74 104.32 c 0,0,0
 291.02 -204 291.02 -204 16.58 -424.33 c 1,0,0
 -192.73 -424.33 l 1,0,0
EndSplineSet
EndChar

StartChar: asterisk
Encoding: 42 42 13
Width: 797
GlyphClass: 2
Flags: W
LayerCount: 2
Fore
SplineSet
774.14 763.98 m 1,0,0
 633.69 675.81 l 1,0,0
 485.01 931.83 l 1,0,0
 331.32 677.15 l 1,0,0
 190.21 765.98 l 1,0,0
 379.54 1001.77 l 1,0,0
 109.44 1070.81 l 1,0,0
 162.03 1225.6 l 1,0,0
 419.79 1119.59 l 1,0,0
 405.81 1409 l 1,0,0
 567.88 1409 l 1,0,0
 553.23 1120.93 l 1,0,0
 807.66 1224.26 l 1,0,0
 860.25 1070.81 l 1,0,0
 588.81 1001.77 l 1,0,0
 774.14 763.98 l 1,0,0
EndSplineSet
EndChar

StartChar: plus
Encoding: 43 43 14
Width: 1196
GlyphClass: 2
Flags: W
LayerCount: 2
Fore
SplineSet
717.17 595.13 m 1,0,0
 717.17 173.73 l 1,0,0
 544.1 173.73 l 1,0,0
 544.1 595.13 l 1,0,0
 128.35 595.13 l 1,0,0
 128.35 766.87 l 1,0,0
 544.1 766.87 l 1,0,0
 544.1 1188.27 l 1,0,0
 717.17 1188.27 l 1,0,0
 717.17 766.87 l 1,0,0
 1133.91 766.87 l 1,0,0
 1133.91 595.13 l 1,0,0
 717.17 595.13 l 1,0,0
EndSplineSet
EndChar

StartChar: comma
Encoding: 44 44 15
Width: 569
GlyphClass: 2
Flags: W
LayerCount: 2
Fore
SplineSet
314.84 55.95 m 2,0,0
 295.19 -47.3 295.19 -47.3 258.89 -127.745 c 0,0,0
 222.59 -208.19 222.59 -208.19 161.65 -280.15 c 1,0,0
 18.19 -280.15 l 1,0,0
 84.13 -208.85 84.13 -208.85 125.245 -137.24 c 0,0,0
 166.36 -65.63 166.36 -65.63 179.69 0 c 1,0,0
 78.16 0 l 1,0,0
 125.77 247.38 l 1,0,0
 351.79 247.38 l 1,0,0
 314.84 55.95 l 2,0,0
EndSplineSet
EndChar

StartChar: hyphen
Encoding: 45 45 16
Width: 682
GlyphClass: 2
Flags: W
LayerCount: 2
Fore
SplineSet
631.71 633.57 m 1,0,0
 595.43 445.85 l 1,0,0
 88.83 445.85 l 1,0,0
 125.11 633.57 l 1,0,0
 631.71 633.57 l 1,0,0
EndSplineSet
EndChar

StartChar: period
Encoding: 46 46 17
Width: 569
GlyphClass: 2
Flags: W
LayerCount: 2
Fore
SplineSet
343.08 247.38 m 1,0,0
 294.8 0 l 1,0,0
 68.78 0 l 1,0,0
 117.06 247.38 l 1,0,0
 343.08 247.38 l 1,0,0
EndSplineSet
EndChar

StartChar: slash
Encoding: 47 47 18
Width: 569
GlyphClass: 2
Flags: W
LayerCount: 2
Fore
SplineSet
746.32 1484 m 1,0,0
 84.93 -26.93 l 1,0,0
 -102.8 -26.93 l 1,0,0
 561.92 1484 l 1,0,0
 746.32 1484 l 1,0,0
EndSplineSet
EndChar

StartChar: zero
Encoding: 48 48 19
Width: 1139
GlyphClass: 2
Flags: W
LayerCount: 2
Fore
SplineSet
729.36 1430 m 0,0,0
 916.98 1430 916.98 1430 1018.995 1309.145 c 0,0,0
 1121.01 1188.29 1121.01 1188.29 1121.01 964 c 0,0,0
 1121.01 755.52 1121.01 755.52 1056.21 533.68 c 0,0,0
 980.19 259.69 980.19 259.69 834.715 119.845 c 0,0,0
 689.24 -20 689.24 -20 476.66 -20 c 0,0,0
 289.39 -20 289.39 -20 188.535 105.205 c 0,0,0
 87.68 230.41 87.68 230.41 87.68 461.37 c 0,0,0
 87.68 572.46 87.68 572.46 107.68 697.29 c 0,0,0
 127.68 822.12 127.68 822.12 165.68 940.415 c 0,0,0
 203.68 1058.71 203.68 1058.71 256.35 1150.03 c 0,0,0
 336.02 1287.68 336.02 1287.68 452.69 1358.84 c 0,0,0
 569.36 1430 569.36 1430 729.36 1430 c 0,0,0
492.98 151.42 m 0,0,0
 633.09 151.42 633.09 151.42 720.51 258.08 c 0,0,0
 755.21 300.41 755.21 300.41 785.07 366.725 c 0,0,0
 814.93 433.04 814.93 433.04 838.615 512.53 c 0,0,0
 862.3 592.02 862.3 592.02 879.145 675.37 c 0,0,0
 895.99 758.72 895.99 758.72 904.83 835.95 c 0,0,0
 913.67 913.18 913.67 913.18 913.67 974.32 c 0,0,0
 913.67 1116.45 913.67 1116.45 861.265 1188.015 c 0,0,0
 808.86 1259.58 808.86 1259.58 711.42 1259.58 c 0,0,0
 632.12 1259.58 632.12 1259.58 573.425 1226.315 c 0,0,0
 514.73 1193.05 514.73 1193.05 470.7 1123.22 c 0,0,0
 432.27 1070.55 432.27 1070.55 400.37 985.04 c 0,0,0
 368.47 899.53 368.47 899.53 344.595 800.32 c 0,0,0
 320.72 701.11 320.72 701.11 307.87 603.845 c 0,0,0
 295.02 506.58 295.02 506.58 295.02 430.41 c 0,0,0
 295.02 291.25 295.02 291.25 346.27 221.335 c 0,0,0
 397.52 151.42 397.52 151.42 492.98 151.42 c 0,0,0
EndSplineSet
EndChar

StartChar: one
Encoding: 49 49 20
Width: 1139
GlyphClass: 2
Flags: W
LayerCount: 2
Fore
SplineSet
986.79 178.74 m 1,0,0
 952.17 0 l 1,0,0
 46.4 0 l 1,0,0
 80.69 178.74 l 1,0,0
 436.39 178.74 l 1,0,0
 634.82 1199.57 l 1,0,0
 267.22 979.54 l 1,0,0
 306.18 1180 l 1,0,0
 689.45 1409 l 1,0,0
 889.77 1409 l 1,0,0
 650.39 178.74 l 1,0,0
 986.79 178.74 l 1,0,0
EndSplineSet
EndChar

StartChar: two
Encoding: 50 50 21
Width: 1139
GlyphClass: 2
Flags: W
LayerCount: 2
Fore
SplineSet
964.84 178.74 m 1,0,0
 930.89 0 l 1,0,0
 -18.6 0 l 1,0,0
 9.69 149.44 l 1,0,0
 54.79 225.94 54.79 225.94 109.59 287.72 c 0,0,0
 164.39 349.5 164.39 349.5 224.53 401.25 c 0,0,0
 272.22 443.89 272.22 443.89 320.905 481.03 c 0,0,0
 369.59 518.17 369.59 518.17 426.685 557.595 c 0,0,0
 483.78 597.02 483.78 597.02 555.54 644.84 c 0,0,0
 627.53 692.15 627.53 692.15 686.07 735.335 c 0,0,0
 744.61 778.52 744.61 778.52 785.01 821.6 c 0,0,0
 834.32 873.59 834.32 873.59 862.145 932.605 c 0,0,0
 889.97 991.62 889.97 991.62 889.97 1063 c 0,0,0
 889.97 1152.09 889.97 1152.09 834.73 1204.505 c 0,0,0
 779.49 1256.92 779.49 1256.92 681.74 1256.92 c 0,0,0
 579.67 1256.92 579.67 1256.92 507.58 1202.535 c 0,0,0
 435.49 1148.15 435.49 1148.15 401.79 1036.74 c 1,0,0
 200.11 1081 l 1,0,0
 253.78 1253.97 253.78 1253.97 379.1 1341.985 c 0,0,0
 504.42 1430 504.42 1430 695.71 1430 c 0,0,0
 823.65 1430 823.65 1430 916.97 1387.315 c 0,0,0
 1010.29 1344.63 1010.29 1344.63 1061.13 1265.955 c 0,0,0
 1111.97 1187.28 1111.97 1187.28 1111.97 1079.65 c 0,0,0
 1111.97 977.62 1111.97 977.62 1063.94 883.25 c 0,0,0
 1031.92 821.23 1031.92 821.23 979.885 763.21 c 0,0,0
 927.85 705.19 927.85 705.19 842.145 639.51 c 0,0,0
 756.44 573.83 756.44 573.83 622.4 487.49 c 0,0,0
 480.35 395.48 480.35 395.48 393.81 322.12 c 0,0,0
 307.27 248.76 307.27 248.76 261.93 178.74 c 1,0,0
 964.84 178.74 l 1,0,0
EndSplineSet
EndChar

StartChar: three
Encoding: 51 51 22
Width: 1139
GlyphClass: 2
Flags: W
LayerCount: 2
Fore
SplineSet
555.77 806.22 m 2,0,0
 727.55 806.22 727.55 806.22 812.44 874.27 c 0,0,0
 897.33 942.32 897.33 942.32 897.33 1071.1 c 0,0,0
 897.33 1157.17 897.33 1157.17 844.09 1207.045 c 0,0,0
 790.85 1256.92 790.85 1256.92 696.78 1256.92 c 0,0,0
 586.36 1256.92 586.36 1256.92 509.605 1200.87 c 0,0,0
 432.85 1144.82 432.85 1144.82 401.49 1040.09 c 1,0,0
 194.12 1066.63 l 1,0,0
 249.81 1249.99 249.81 1249.99 381.825 1339.995 c 0,0,0
 513.84 1430 513.84 1430 707.11 1430 c 0,0,0
 899.39 1430 899.39 1430 1009.37 1338.33 c 0,0,0
 1119.35 1246.66 1119.35 1246.66 1119.35 1086 c 0,0,0
 1119.35 932.01 1119.35 932.01 1022.685 836.005 c 0,0,0
 926.02 740 926.02 740 753.66 719.64 c 1,0,0
 752.66 715.64 l 1,0,0
 884.98 691.29 884.98 691.29 957.155 612.79 c 0,0,0
 1029.33 534.29 1029.33 534.29 1029.33 410.63 c 0,0,0
 1029.33 286.63 1029.33 286.63 967.68 187.64 c 0,0,0
 905.36 88.99 905.36 88.99 789.705 34.495 c 0,0,0
 674.05 -20 674.05 -20 521.05 -20 c 0,0,0
 390.75 -20 390.75 -20 290.76 21.03 c 0,0,0
 79.2 108.73 79.2 108.73 37.44 339.65 c 1,0,0
 240.38 384.35 l 1,0,0
 264.11 276.93 264.11 276.93 340.23 215.67 c 0,0,0
 416.35 154.41 416.35 154.41 535.39 154.41 c 0,0,0
 664.18 154.41 664.18 154.41 736.75 222.805 c 0,0,0
 809.32 291.2 809.32 291.2 809.32 407.96 c 0,0,0
 809.32 513.69 809.32 513.69 740.92 570.24 c 0,0,0
 672.52 626.79 672.52 626.79 549.79 626.79 c 2,0,0
 431.4 626.79 l 1,0,0
 466.02 806.22 l 1,0,0
 555.77 806.22 l 2,0,0
EndSplineSet
EndChar

StartChar: four
Encoding: 52 52 23
Width: 1139
GlyphClass: 2
Flags: W
LayerCount: 2
Fore
SplineSet
855.24 308.11 m 1,0,0
 795.88 0 l 1,0,0
 586.84 0 l 1,0,0
 646.2 308.11 l 1,0,0
 -2.51 308.11 l 1,0,0
 29.11 470.22 l 1,0,0
 814.45 1409 l 1,0,0
 1069.88 1409 l 1,0,0
 887.86 472.55 l 1,0,0
 1075.86 472.55 l 1,0,0
 1043.24 308.11 l 1,0,0
 855.24 308.11 l 1,0,0
817.42 1173.17 m 1,0,0
 791.07 1137.52 791.07 1137.52 761.905 1101.385 c 0,0,0
 732.74 1065.25 732.74 1065.25 701.76 1027.29 c 2,0,0
 237.56 472.55 l 1,0,0
 678.82 472.55 l 1,0,0
 782.16 1011.29 l 2,0,0
 790.49 1051.6 790.49 1051.6 798.97 1092.07 c 0,0,0
 807.45 1132.54 807.45 1132.54 817.42 1173.17 c 1,0,0
EndSplineSet
EndChar

StartChar: five
Encoding: 53 53 24
Width: 1139
GlyphClass: 2
Flags: W
LayerCount: 2
Fore
SplineSet
976.58 207.53 m 0,0,0
 908.59 97.93 908.59 97.93 786.14 38.965 c 0,0,0
 663.69 -20 663.69 -20 498.73 -20 c 0,0,0
 309.11 -20 309.11 -20 192.625 64.48 c 0,0,0
 76.14 148.96 76.14 148.96 37.42 315.6 c 1,0,0
 240.02 359.26 l 1,0,0
 266.73 252.19 266.73 252.19 335.335 202.63 c 0,0,0
 403.94 153.07 403.94 153.07 513.35 153.07 c 0,0,0
 665.82 153.07 665.82 153.07 749.715 240.96 c 0,0,0
 833.61 328.85 833.61 328.85 833.61 486 c 0,0,0
 833.61 602.39 833.61 602.39 771.045 669.77 c 0,0,0
 708.48 737.15 708.48 737.15 601.06 737.15 c 0,0,0
 451.26 737.15 451.26 737.15 345.46 639.45 c 1,0,0
 137.12 639.45 l 1,0,0
 334.09 1409 l 1,0,0
 1150.27 1409 l 1,0,0
 1116.65 1230.26 l 1,0,0
 493.84 1230.26 l 1,0,0
 388.75 820.55 l 1,0,0
 436.11 861.23 436.11 861.23 505.47 885.89 c 0,0,0
 574.83 910.55 574.83 910.55 658.49 910.55 c 0,0,0
 836.88 910.55 836.88 910.55 946.085 801.905 c 0,0,0
 1055.29 693.26 1055.29 693.26 1055.29 509.96 c 0,0,0
 1055.29 333.22 1055.29 333.22 976.58 207.53 c 0,0,0
EndSplineSet
EndChar

StartChar: six
Encoding: 54 54 25
Width: 1139
GlyphClass: 2
Flags: W
LayerCount: 2
Fore
SplineSet
533.67 -20 m 0,0,0
 401.71 -20 401.71 -20 306.055 40.67 c 0,0,0
 210.4 101.34 210.4 101.34 159.4 211.825 c 0,0,0
 108.4 322.31 108.4 322.31 108.4 471.59 c 0,0,0
 108.4 722.83 108.4 722.83 192.4 951.89 c 0,0,0
 275.4 1181.95 275.4 1181.95 421.885 1305.975 c 0,0,0
 568.37 1430 568.37 1430 755.72 1430 c 0,0,0
 915.62 1430 915.62 1430 1014.43 1354.54 c 0,0,0
 1113.24 1279.08 1113.24 1279.08 1142.63 1136.15 c 1,0,0
 943.63 1098.5 l 1,0,0
 922.26 1176.86 922.26 1176.86 871.86 1217.89 c 0,0,0
 821.46 1258.92 821.46 1258.92 745.41 1258.92 c 0,0,0
 597.58 1258.92 597.58 1258.92 492.48 1123.15 c 0,0,0
 387.38 987.38 387.38 987.38 339.67 732.6 c 1,0,0
 397.36 816.66 397.36 816.66 485.56 863.17 c 0,0,0
 573.76 909.68 573.76 909.68 683.46 909.68 c 0,0,0
 796.81 909.68 796.81 909.68 880.5 862.67 c 0,0,0
 964.19 815.66 964.19 815.66 1010.71 730.99 c 0,0,0
 1057.23 646.32 1057.23 646.32 1057.23 533 c 0,0,0
 1057.23 381 1057.23 381 989.91 253.33 c 0,0,0
 921.92 124.66 921.92 124.66 802.11 52.33 c 0,0,0
 682.3 -20 682.3 -20 533.67 -20 c 0,0,0
314.73 423.64 m 0,0,0
 314.73 301.22 314.73 301.22 376.46 225.485 c 0,0,0
 438.19 149.75 438.19 149.75 544.6 149.75 c 0,0,0
 630.67 149.75 630.67 149.75 696.905 196.465 c 0,0,0
 763.14 243.18 763.14 243.18 800.685 325.755 c 0,0,0
 838.23 408.33 838.23 408.33 838.23 514.41 c 0,0,0
 838.23 623.47 838.23 623.47 782.69 685.855 c 0,0,0
 727.15 748.24 727.15 748.24 624.72 748.24 c 0,0,0
 539.97 748.24 539.97 748.24 469.23 708.88 c 0,0,0
 397.49 668.85 397.49 668.85 356.11 596.13 c 0,0,0
 314.73 523.41 314.73 523.41 314.73 423.64 c 0,0,0
EndSplineSet
EndChar

StartChar: seven
Encoding: 55 55 26
Width: 1139
GlyphClass: 2
Flags: W
LayerCount: 2
Fore
SplineSet
447.21 0 m 1,0,0
 222.91 0 l 1,0,0
 247.86 128.4 247.86 128.4 291.57 244.045 c 0,0,0
 335.28 359.69 335.28 359.69 394.44 467.53 c 0,0,0
 438.09 552.27 438.09 552.27 487.745 633.335 c 0,0,0
 537.4 714.4 537.4 714.4 602.27 802.335 c 0,0,0
 667.14 890.27 667.14 890.27 753.43 994.615 c 0,0,0
 839.72 1098.96 839.72 1098.96 955.31 1230.26 c 1,0,0
 189.23 1230.26 l 1,0,0
 223.51 1409 l 1,0,0
 1207.61 1409 l 1,0,0
 1174.33 1237.59 l 1,0,0
 1085.76 1133.65 1085.76 1133.65 1021.14 1055.5 c 0,0,0
 956.52 977.35 956.52 977.35 914.51 924.33 c 0,0,0
 872.5 871.97 872.5 871.97 835.16 821.44 c 0,0,0
 797.82 770.91 797.82 770.91 764.15 722.21 c 0,0,0
 727.18 668.89 727.18 668.89 694.205 616.06 c 0,0,0
 661.23 563.23 661.23 563.23 633.25 511.22 c 0,0,0
 564.74 389.05 564.74 389.05 519.795 263.97 c 0,0,0
 474.85 138.89 474.85 138.89 447.21 0 c 1,0,0
EndSplineSet
EndChar

StartChar: eight
Encoding: 56 56 27
Width: 1139
GlyphClass: 2
Flags: W
LayerCount: 2
Fore
SplineSet
704.99 1429 m 0,0,0
 898.63 1429 898.63 1429 1014.3 1337.5 c 0,0,0
 1129.97 1246 1129.97 1246 1129.97 1091 c 0,0,0
 1129.97 951 1129.97 951 1043.8 854.32 c 0,0,0
 957.63 757.64 957.63 757.64 811.29 736.3 c 1,0,0
 810.29 732.3 l 1,0,0
 920.62 699.3 920.62 699.3 979.45 620.98 c 0,0,0
 1038.28 542.66 1038.28 542.66 1038.28 432 c 0,0,0
 1038.28 224 1038.28 224 894.135 102 c 0,0,0
 749.99 -20 749.99 -20 497.69 -20 c 0,0,0
 281.72 -20 281.72 -20 163.405 80.835 c 0,0,0
 45.09 181.67 45.09 181.67 45.09 360 c 0,0,0
 45.09 509.01 45.09 509.01 137.245 610.695 c 0,0,0
 229.4 712.38 229.4 712.38 402.75 749.73 c 1,0,0
 402.75 753.73 l 1,0,0
 311.42 792.72 311.42 792.72 262.245 869.87 c 0,0,0
 213.07 947.02 213.07 947.02 213.07 1052 c 0,0,0
 213.07 1229 213.07 1229 345.38 1329 c 0,0,0
 477.69 1429 477.69 1429 704.99 1429 c 0,0,0
654.7 820.57 m 0,0,0
 775.5 820.57 775.5 820.57 843.4 888.11 c 0,0,0
 911.3 955.65 911.3 955.65 911.3 1079.41 c 0,0,0
 911.3 1172.79 911.3 1172.79 853.225 1223.165 c 0,0,0
 795.15 1273.54 795.15 1273.54 681.68 1273.54 c 0,0,0
 561.22 1273.54 561.22 1273.54 493.15 1210.335 c 0,0,0
 425.08 1147.13 425.08 1147.13 425.08 1028.71 c 0,0,0
 425.08 930.99 425.08 930.99 485.825 875.78 c 0,0,0
 546.57 820.57 546.57 820.57 654.7 820.57 c 0,0,0
564.35 661.44 m 0,0,0
 421.55 661.44 421.55 661.44 343.145 582.4 c 0,0,0
 264.74 503.36 264.74 503.36 264.74 362.93 c 0,0,0
 264.74 256.54 264.74 256.54 331.975 196.835 c 0,0,0
 399.21 137.13 399.21 137.13 519.33 137.13 c 0,0,0
 654.13 137.13 654.13 137.13 737.215 218.51 c 0,0,0
 820.3 299.89 820.3 299.89 820.3 438.64 c 0,0,0
 820.3 544.36 820.3 544.36 751.555 602.9 c 0,0,0
 682.81 661.44 682.81 661.44 564.35 661.44 c 0,0,0
EndSplineSet
EndChar

StartChar: nine
Encoding: 57 57 28
Width: 1139
GlyphClass: 2
Flags: W
LayerCount: 2
Fore
SplineSet
871.27 673.77 m 1,0,0
 804.93 580.69 804.93 580.69 723.895 534.475 c 0,0,0
 642.86 488.26 642.86 488.26 539.53 488.26 c 0,0,0
 425.81 488.26 425.81 488.26 339.45 538.61 c 0,0,0
 253.08 588.29 253.08 588.29 205.4 679.3 c 0,0,0
 157.72 770.31 157.72 770.31 157.72 884.96 c 0,0,0
 157.72 1035.97 157.72 1035.97 225.37 1162.31 c 0,0,0
 293.02 1287.98 293.02 1287.98 414.5 1358.99 c 0,0,0
 535.98 1430 535.98 1430 685.3 1430 c 0,0,0
 817.29 1430 817.29 1430 911.605 1372.335 c 0,0,0
 1005.92 1314.67 1005.92 1314.67 1056.905 1208.505 c 0,0,0
 1107.89 1102.34 1107.89 1102.34 1107.89 957 c 0,0,0
 1107.89 850.37 1107.89 850.37 1089.24 734.42 c 0,0,0
 1070.59 618.47 1070.59 618.47 1036.29 509.685 c 0,0,0
 1001.99 400.9 1001.99 400.9 954.71 313.93 c 0,0,0
 893.35 199.81 893.35 199.81 816.99 126.42 c 0,0,0
 739.63 51.03 739.63 51.03 649.27 15.515 c 0,0,0
 558.91 -20 558.91 -20 461.58 -20 c 0,0,0
 298.34 -20 298.34 -20 197.725 54.61 c 0,0,0
 97.11 129.22 97.11 129.22 62.74 274.82 c 1,0,0
 259.02 320.81 l 1,0,0
 279.72 237.79 279.72 237.79 333.935 194.1 c 0,0,0
 388.15 150.41 388.15 150.41 473.21 150.41 c 0,0,0
 617.35 150.41 617.35 150.41 718.455 284.35 c 0,0,0
 819.56 418.29 819.56 418.29 871.27 673.77 c 1,0,0
901.9 1014.36 m 0,0,0
 901.9 1124.14 901.9 1124.14 839.17 1191.86 c 0,0,0
 776.44 1259.58 776.44 1259.58 678 1259.58 c 0,0,0
 541.22 1259.58 541.22 1259.58 457.8 1159.5 c 0,0,0
 374.38 1059.42 374.38 1059.42 374.38 885.93 c 0,0,0
 374.38 776.14 374.38 776.14 432.43 713.925 c 0,0,0
 490.48 651.71 490.48 651.71 590.23 651.71 c 0,0,0
 681.93 651.71 681.93 651.71 756.67 701.06 c 0,0,0
 901.9 796.81 901.9 796.81 901.9 1014.36 c 0,0,0
EndSplineSet
EndChar

StartChar: colon
Encoding: 58 58 29
Width: 606
GlyphClass: 2
Flags: W
LayerCount: 2
Fore
SplineSet
517.03 1066.16 m 1,0,0
 471.41 834.41 l 1,0,0
 245.72 834.41 l 1,0,0
 291.34 1066.16 l 1,0,0
 517.03 1066.16 l 1,0,0
354.95 231.42 m 1,0,0
 309.33 0 l 1,0,0
 83.64 0 l 1,0,0
 129.26 231.42 l 1,0,0
 354.95 231.42 l 1,0,0
EndSplineSet
EndChar

StartChar: semicolon
Encoding: 59 59 30
Width: 606
GlyphClass: 2
Flags: W
LayerCount: 2
Fore
SplineSet
525.74 1066.16 m 1,0,0
 480.79 834.41 l 1,0,0
 255.1 834.41 l 1,0,0
 300.05 1066.16 l 1,0,0
 525.74 1066.16 l 1,0,0
329.7 55.95 m 2,0,0
 310.05 -47.3 310.05 -47.3 273.915 -127.58 c 0,0,0
 237.78 -207.86 237.78 -207.86 176.18 -280.15 c 1,0,0
 33.05 -280.15 l 1,0,0
 98.99 -208.85 98.99 -208.85 140.105 -137.24 c 0,0,0
 181.22 -65.63 181.22 -65.63 194.55 0 c 1,0,0
 93.02 0 l 1,0,0
 137.97 231.42 l 1,0,0
 363.66 231.42 l 1,0,0
 329.7 55.95 l 2,0,0
EndSplineSet
EndChar

StartChar: less
Encoding: 60 60 31
Width: 1196
GlyphClass: 2
Flags: W
LayerCount: 2
Fore
SplineSet
1134.25 321.85 m 1,0,0
 1134.25 144.43 l 1,0,0
 128.69 552.85 l 1,0,0
 128.69 796.46 l 1,0,0
 1134.25 1205.55 l 1,0,0
 1134.25 1027.13 l 1,0,0
 284.5 674.66 l 1,0,0
 1134.25 321.85 l 1,0,0
EndSplineSet
EndChar

StartChar: equal
Encoding: 61 61 32
Width: 1196
GlyphClass: 2
Flags: W
LayerCount: 2
Fore
SplineSet
1133.25 1024.13 m 1,0,0
 1133.25 851.38 l 1,0,0
 127.69 851.38 l 1,0,0
 127.69 1024.13 l 1,0,0
 1133.25 1024.13 l 1,0,0
1133.25 498.6 m 1,0,0
 1133.25 326.51 l 1,0,0
 127.69 326.51 l 1,0,0
 127.69 498.6 l 1,0,0
 1133.25 498.6 l 1,0,0
EndSplineSet
EndChar

StartChar: greater
Encoding: 62 62 33
Width: 1196
GlyphClass: 2
Flags: W
LayerCount: 2
Fore
SplineSet
1134.25 552.85 m 1,0,0
 128.69 144.43 l 1,0,0
 128.69 321.85 l 1,0,0
 978.11 674.66 l 1,0,0
 128.69 1027.13 l 1,0,0
 128.69 1205.55 l 1,0,0
 1134.25 796.46 l 1,0,0
 1134.25 552.85 l 1,0,0
EndSplineSet
EndChar

StartChar: question
Encoding: 63 63 34
Width: 1175
GlyphClass: 2
Flags: W
LayerCount: 2
Fore
SplineSet
715.52 1430 m 0,0,0
 851.15 1430 851.15 1430 950.46 1385.49 c 0,0,0
 1049.77 1340.98 1049.77 1340.98 1103.925 1260.975 c 0,0,0
 1158.08 1180.97 1158.08 1180.97 1158.08 1073.66 c 0,0,0
 1158.08 993.82 1158.08 993.82 1134.675 934.56 c 0,0,0
 1111.27 875.3 1111.27 875.3 1072.84 830.25 c 0,0,0
 1043.15 791.96 1043.15 791.96 1005.145 759.675 c 0,0,0
 967.14 727.39 967.14 727.39 919.05 696.795 c 0,0,0
 870.96 666.2 870.96 666.2 809.51 630.98 c 0,0,0
 754.43 599.28 754.43 599.28 717.545 572.075 c 0,0,0
 680.66 544.87 680.66 544.87 657.28 520.15 c 0,0,0
 629.28 491.14 629.28 491.14 613.79 460.81 c 0,0,0
 598.3 430.48 598.3 430.48 591.63 393.17 c 1,0,0
 386.27 393.17 l 1,0,0
 400.27 472.18 400.27 472.18 433.28 531.52 c 0,0,0
 456.29 570.86 456.29 570.86 484.63 603.36 c 0,0,0
 512.97 635.86 512.97 635.86 562.82 672.53 c 0,0,0
 612.67 709.2 612.67 709.2 698.04 758.54 c 0,0,0
 756.32 792.83 756.32 792.83 796.795 820.805 c 0,0,0
 837.27 848.78 837.27 848.78 861.59 873.08 c 0,0,0
 901.32 910.45 901.32 910.45 920.36 954.18 c 0,0,0
 939.4 997.91 939.4 997.91 939.4 1052.99 c 0,0,0
 939.4 1139.44 939.4 1139.44 874.65 1193.335 c 0,0,0
 809.9 1247.23 809.9 1247.23 698.85 1247.23 c 0,0,0
 567.76 1247.23 567.76 1247.23 483.69 1184.49 c 0,0,0
 399.62 1121.75 399.62 1121.75 365.58 1008 c 1,0,0
 167.25 1048 l 1,0,0
 228.93 1241.68 228.93 1241.68 366.585 1335.84 c 0,0,0
 504.24 1430 504.24 1430 715.52 1430 c 0,0,0
571.61 223.77 m 1,0,0
 528.32 0 l 1,0,0
 302.3 0 l 1,0,0
 345.59 223.77 l 1,0,0
 571.61 223.77 l 1,0,0
EndSplineSet
EndChar

StartChar: at
Encoding: 64 64 35
Width: 2051
GlyphClass: 2
Flags: W
LayerCount: 2
Fore
SplineSet
1927.08 755 m 0,0,0
 1927.08 570.32 1927.08 570.32 1868.1 420.32 c 0,0,0
 1808.12 269.65 1808.12 269.65 1702.485 186.825 c 0,0,0
 1596.85 104 1596.85 104 1468.86 104 c 0,0,0
 1370.83 104 1370.83 104 1318.985 149.5 c 0,0,0
 1267.14 195 1267.14 195 1267.14 278.68 c 0,0,0
 1267.81 296.34 1267.81 296.34 1268.64 313.845 c 0,0,0
 1269.47 331.35 1269.47 331.35 1271.13 347.69 c 1,0,0
 1265.13 347.69 l 1,0,0
 1204.41 230.63 1204.41 230.63 1106.58 167.315 c 0,0,0
 1008.75 104 1008.75 104 899.05 104 c 0,0,0
 742.05 104 742.05 104 655.55 205.835 c 0,0,0
 569.05 307.67 569.05 307.67 569.05 489 c 0,0,0
 569.05 651.67 569.05 651.67 634.05 794.33 c 0,0,0
 699.05 935.99 699.05 935.99 814.055 1018.495 c 0,0,0
 929.06 1101 929.06 1101 1070.39 1101 c 0,0,0
 1280.8 1101 1280.8 1101 1359.18 921.64 c 1,0,0
 1365.18 921.64 l 1,0,0
 1404.18 1079 l 1,0,0
 1560.18 1079 l 1,0,0
 1443.85 573 l 2,0,0
 1406.85 409.03 1406.85 409.03 1406.85 324.29 c 0,0,0
 1406.85 276.3 1406.85 276.3 1428.34 253.625 c 0,0,0
 1449.83 230.95 1449.83 230.95 1486.86 230.95 c 0,0,0
 1567.53 230.95 1567.53 230.95 1636.51 300.28 c 0,0,0
 1706.16 369.28 1706.16 369.28 1745.98 488.795 c 0,0,0
 1785.8 608.31 1785.8 608.31 1785.8 753 c 0,0,0
 1785.8 930.34 1785.8 930.34 1709.13 1068.36 c 0,0,0
 1632.46 1205.04 1632.46 1205.04 1487.625 1279.045 c 0,0,0
 1342.79 1353.05 1342.79 1353.05 1149.78 1353.05 c 0,0,0
 909.11 1353.05 909.11 1353.05 723.43 1246.71 c 0,0,0
 538.42 1140.37 538.42 1140.37 432.915 940.025 c 0,0,0
 327.41 739.68 327.41 739.68 327.41 491 c 0,0,0
 327.41 297 327.41 297 406.74 150.34 c 0,0,0
 485.4 2.34 485.4 2.34 632.25 -75.505 c 0,0,0
 779.1 -153.35 779.1 -153.35 975.78 -153.35 c 0,0,0
 1282.85 -153.35 1282.85 -153.35 1574.16 6.34 c 1,0,0
 1631.47 -108.96 l 1,0,0
 1478.88 -198.6 1478.88 -198.6 1312.35 -242.615 c 0,0,0
 1145.82 -286.63 1145.82 -286.63 973.47 -286.63 c 0,0,0
 734.79 -286.63 734.79 -286.63 555.79 -191.3 c 0,0,0
 375.79 -96.3 375.79 -96.3 277.635 81.855 c 0,0,0
 179.48 260.01 179.48 260.01 179.48 491 c 0,0,0
 179.48 771.32 179.48 771.32 305.14 1000.99 c 0,0,0
 430.47 1229.99 430.47 1229.99 651.795 1356.995 c 0,0,0
 873.12 1484 873.12 1484 1147.78 1484 c 0,0,0
 1389.44 1484 1389.44 1484 1565.43 1394 c 0,0,0
 1741.42 1303 1741.42 1303 1834.25 1138 c 0,0,0
 1927.08 973 1927.08 973 1927.08 755 c 0,0,0
1307.55 748.32 m 0,0,0
 1307.55 848.01 1307.55 848.01 1243.695 909.685 c 0,0,0
 1179.84 971.36 1179.84 971.36 1075.12 971.36 c 0,0,0
 976.43 971.36 976.43 971.36 899.75 908.69 c 0,0,0
 822.07 845.02 822.07 845.02 778.225 730.855 c 0,0,0
 734.38 616.69 734.38 616.69 734.38 491 c 0,0,0
 734.38 372.98 734.38 372.98 782.21 305.64 c 0,0,0
 830.04 238.3 830.04 238.3 929.37 238.3 c 0,0,0
 1004.75 238.3 1004.75 238.3 1074.285 281.805 c 0,0,0
 1143.82 325.31 1143.82 325.31 1196.84 403.64 c 0,0,0
 1232.52 455.97 1232.52 455.97 1257.03 518.795 c 0,0,0
 1281.54 581.62 1281.54 581.62 1294.545 642.29 c 0,0,0
 1307.55 702.96 1307.55 702.96 1307.55 748.32 c 0,0,0
EndSplineSet
EndChar

StartChar: A
Encoding: 65 65 36
Width: 1403
GlyphClass: 2
Flags: W
LayerCount: 2
Fore
SplineSet
380 394.84 m 1,0,0
 154.85 0 l 1,0,0
 -81.53 0 l 1,0,0
 746.34 1409 l 1,0,0
 1006.57 1409 l 1,0,0
 1280.75 0 l 1,0,0
 1053.74 0 l 1,0,0
 985.34 394.84 l 1,0,0
 380 394.84 l 1,0,0
845.18 1240.91 m 1,0,0
 837.19 1221.64 837.19 1221.64 822.91 1192.76 c 0,0,0
 808.63 1163.88 808.63 1163.88 788.05 1124.72 c 2,0,0
 475.55 567.93 l 1,0,0
 958.99 567.93 l 1,0,0
 868.54 1087.6 l 2,0,0
 860.88 1135.5 860.88 1135.5 855.375 1173.995 c 0,0,0
 849.87 1212.49 849.87 1212.49 845.18 1240.91 c 1,0,0
EndSplineSet
EndChar

StartChar: B
Encoding: 66 66 37
Width: 1403
GlyphClass: 2
Flags: W
LayerCount: 2
Fore
SplineSet
1286.93 436.36 m 0,0,0
 1286.93 224.02 1286.93 224.02 1130.765 112.01 c 0,0,0
 974.6 0 974.6 0 685.39 0 c 2,0,0
 54.09 0 l 1,0,0
 327.42 1409 l 1,0,0
 861.84 1409 l 2,0,0
 1084.7 1409 1084.7 1409 1208.005 1323.82 c 0,0,0
 1331.31 1238.64 1331.31 1238.64 1331.31 1085.68 c 0,0,0
 1331.31 802.99 1331.31 802.99 997.26 741.35 c 1,0,0
 1134.6 718.35 1134.6 718.35 1210.765 636.52 c 0,0,0
 1286.93 554.69 1286.93 554.69 1286.93 436.36 c 0,0,0
438.39 820.23 m 1,0,0
 757.18 820.23 l 2,0,0
 934.19 820.23 934.19 820.23 1017.74 878.625 c 0,0,0
 1101.29 937.02 1101.29 937.02 1101.29 1058.1 c 0,0,0
 1101.29 1147.48 1101.29 1147.48 1037.59 1190.85 c 0,0,0
 973.89 1234.22 973.89 1234.22 839.89 1234.22 c 2,0,0
 518.79 1234.22 l 1,0,0
 438.39 820.23 l 1,0,0
312.7 174.78 m 1,0,0
 667.5 174.78 l 2,0,0
 877.17 174.78 877.17 174.78 969.225 240.69 c 0,0,0
 1061.28 306.6 1061.28 306.6 1061.28 440.35 c 0,0,0
 1061.28 541.74 1061.28 541.74 985.575 595.1 c 0,0,0
 909.87 648.46 909.87 648.46 759.22 648.46 c 2,0,0
 405.1 648.46 l 1,0,0
 312.7 174.78 l 1,0,0
EndSplineSet
EndChar

StartChar: C
Encoding: 67 67 38
Width: 1479
GlyphClass: 2
Flags: W
LayerCount: 2
Fore
SplineSet
1193.22 440.19 m 1,0,0
 1363.94 341.95 l 1,0,0
 1244.87 154.61 1244.87 154.61 1082.725 67.305 c 0,0,0
 920.58 -20 920.58 -20 703.63 -20 c 0,0,0
 519.33 -20 519.33 -20 384.68 52.67 c 0,0,0
 249.7 124.67 249.7 124.67 179.205 258.505 c 0,0,0
 108.71 392.34 108.71 392.34 108.71 569 c 0,0,0
 108.71 816.98 108.71 816.98 213.71 1015.98 c 0,0,0
 318.71 1214.65 318.71 1214.65 505.87 1322.325 c 0,0,0
 693.03 1430 693.03 1430 926.33 1430 c 0,0,0
 1147.62 1430 1147.62 1430 1296.46 1336.86 c 0,0,0
 1445.3 1243.72 1445.3 1243.72 1494.29 1069.49 c 1,0,0
 1283.27 1009.21 l 1,0,0
 1249.58 1119.56 1249.58 1119.56 1153.175 1184.24 c 0,0,0
 1056.77 1248.92 1056.77 1248.92 916.66 1248.92 c 0,0,0
 722.75 1248.92 722.75 1248.92 585.73 1146.73 c 0,0,0
 464.54 1061.04 464.54 1061.04 399.605 911.755 c 0,0,0
 334.67 762.47 334.67 762.47 334.67 568.31 c 0,0,0
 334.67 377.22 334.67 377.22 435.915 268.65 c 0,0,0
 537.16 160.08 537.16 160.08 718.94 160.08 c 0,0,0
 861.99 160.08 861.99 160.08 982.235 230.61 c 0,0,0
 1102.48 301.14 1102.48 301.14 1193.22 440.19 c 1,0,0
EndSplineSet
EndChar

StartChar: D
Encoding: 68 68 39
Width: 1479
GlyphClass: 2
Flags: W
LayerCount: 2
Fore
SplineSet
740.7 1409 m 2,0,0
 953.32 1409 953.32 1409 1104.475 1336.15 c 0,0,0
 1255.63 1263.3 1255.63 1263.3 1335.635 1126.62 c 0,0,0
 1415.64 989.94 1415.64 989.94 1415.64 796.28 c 0,0,0
 1415.64 559.94 1415.64 559.94 1313.96 381.96 c 0,0,0
 1212.28 203.64 1212.28 203.64 1020.595 101.82 c 0,0,0
 828.91 0 828.91 0 587.87 0 c 2,0,0
 54.09 0 l 1,0,0
 327.42 1409 l 1,0,0
 740.7 1409 l 2,0,0
313.36 177.75 m 1,0,0
 579.54 177.75 l 2,0,0
 763.66 177.75 763.66 177.75 903.74 252.78 c 0,0,0
 1044.16 326.81 1044.16 326.81 1119.37 466.865 c 0,0,0
 1194.58 606.92 1194.58 606.92 1194.58 793.33 c 0,0,0
 1194.58 1002.43 1194.58 1002.43 1075.345 1116.84 c 0,0,0
 956.11 1231.25 956.11 1231.25 738.68 1231.25 c 2,0,0
 518.46 1231.25 l 1,0,0
 313.36 177.75 l 1,0,0
EndSplineSet
EndChar

StartChar: E
Encoding: 69 69 40
Width: 1366
GlyphClass: 2
Flags: W
LayerCount: 2
Fore
SplineSet
1198.18 179.76 m 1,0,0
 1163.23 0 l 1,0,0
 54.09 0 l 1,0,0
 327.09 1409 l 1,0,0
 1395.56 1409 l 1,0,0
 1360.94 1229.24 l 1,0,0
 517.79 1229.24 l 1,0,0
 436.06 809.58 l 1,0,0
 1218.88 809.58 l 1,0,0
 1184.26 631.16 l 1,0,0
 401.44 631.16 l 1,0,0
 314.03 179.76 l 1,0,0
 1198.18 179.76 l 1,0,0
EndSplineSet
EndChar

StartChar: F
Encoding: 70 70 41
Width: 1251
GlyphClass: 2
Flags: W
LayerCount: 2
Fore
SplineSet
386.11 553.18 m 1,0,0
 279.08 0 l 1,0,0
 54.09 0 l 1,0,0
 327.09 1409 l 1,0,0
 1329.84 1409 l 1,0,0
 1295.22 1229.24 l 1,0,0
 517.79 1229.24 l 1,0,0
 421.4 734.28 l 1,0,0
 1175.16 734.28 l 1,0,0
 1139.87 553.18 l 1,0,0
 386.11 553.18 l 1,0,0
EndSplineSet
EndChar

StartChar: G
Encoding: 71 71 42
Width: 1593
GlyphClass: 2
Flags: W
LayerCount: 2
Fore
SplineSet
741.34 -19.67 m 0,0,0
 437.99 -19.67 437.99 -19.67 269.33 137.155 c 0,0,0
 100.67 293.98 100.67 293.98 100.67 576.3 c 0,0,0
 100.67 826.63 100.67 826.63 205.67 1021.64 c 0,0,0
 310.34 1217.65 310.34 1217.65 502.51 1323.825 c 0,0,0
 694.68 1430 694.68 1430 943.34 1430 c 0,0,0
 1167.32 1430 1167.32 1430 1313.115 1339.73 c 0,0,0
 1458.91 1249.46 1458.91 1249.46 1513.25 1078.53 c 1,0,0
 1290.88 1016.61 l 1,0,0
 1256.52 1130.95 1256.52 1130.95 1164.14 1189.935 c 0,0,0
 1071.76 1248.92 1071.76 1248.92 930.02 1248.92 c 0,0,0
 749.58 1248.92 749.58 1248.92 612.83 1166.55 c 0,0,0
 476.08 1084.18 476.08 1084.18 403.37 932.445 c 0,0,0
 330.66 780.71 330.66 780.71 330.66 581.95 c 0,0,0
 330.66 381.84 330.66 381.84 441.235 270.96 c 0,0,0
 551.81 160.08 551.81 160.08 753.28 160.08 c 0,0,0
 881.38 160.08 881.38 160.08 999.46 195.125 c 0,0,0
 1117.54 230.17 1117.54 230.17 1203.61 296.28 c 1,0,0
 1252.96 541.7 l 1,0,0
 858.03 541.7 l 1,0,0
 892.34 717.54 l 1,0,0
 1494.95 717.54 l 1,0,0
 1393.3 198.45 l 1,0,0
 1248.02 82.74 1248.02 82.74 1090.345 31.535 c 0,0,0
 932.67 -19.67 932.67 -19.67 741.34 -19.67 c 0,0,0
EndSplineSet
EndChar

StartChar: H
Encoding: 72 72 43
Width: 1479
GlyphClass: 2
Flags: W
LayerCount: 2
Fore
SplineSet
403.11 636.83 m 1,0,0
 279.08 0 l 1,0,0
 54.09 0 l 1,0,0
 327.76 1409 l 1,0,0
 553.08 1409 l 1,0,0
 439.39 824.55 l 1,0,0
 1159.86 824.55 l 1,0,0
 1273.55 1409 l 1,0,0
 1491.89 1409 l 1,0,0
 1217.89 0 l 1,0,0
 999.55 0 l 1,0,0
 1123.58 636.83 l 1,0,0
 403.11 636.83 l 1,0,0
EndSplineSet
EndChar

StartChar: I
Encoding: 73 73 44
Width: 569
GlyphClass: 2
Flags: W
LayerCount: 2
Fore
SplineSet
565.14 1409 m 1,0,0
 291.14 0 l 1,0,0
 66.15 0 l 1,0,0
 339.82 1409 l 1,0,0
 565.14 1409 l 1,0,0
EndSplineSet
EndChar

StartChar: J
Encoding: 74 74 45
Width: 1061
GlyphClass: 2
Flags: W
LayerCount: 2
Fore
SplineSet
413.67 -20 m 0,0,0
 244.44 -20 244.44 -20 139.65 73.99 c 0,0,0
 34.86 167.98 34.86 167.98 4.9 354.88 c 1,0,0
 205.57 396.13 l 1,0,0
 228.57 280.45 228.57 280.45 283.25 220.265 c 0,0,0
 337.93 160.08 337.93 160.08 431.33 160.08 c 0,0,0
 492.7 160.08 492.7 160.08 537.07 185.42 c 0,0,0
 586.8 214.11 586.8 214.11 619.845 274.525 c 0,0,0
 652.89 334.94 652.89 334.94 672.9 440 c 2,0,0
 859.9 1409 l 1,0,0
 1084.22 1409 l 1,0,0
 891.22 423 l 2,0,0
 847.56 196.69 847.56 196.69 731.58 88.345 c 0,0,0
 615.6 -20 615.6 -20 413.67 -20 c 0,0,0
EndSplineSet
EndChar

StartChar: K
Encoding: 75 75 46
Width: 1403
GlyphClass: 2
Flags: W
LayerCount: 2
Fore
SplineSet
382.77 535.76 m 1,0,0
 278.42 0 l 1,0,0
 54.09 0 l 1,0,0
 327.09 1409 l 1,0,0
 552.41 1409 l 1,0,0
 418.39 735.16 l 1,0,0
 564.66 865.81 l 1,0,0
 1208.54 1409 l 1,0,0
 1494.46 1409 l 1,0,0
 745.45 783.62 l 1,0,0
 1272.09 0 l 1,0,0
 1013.09 0 l 1,0,0
 579.7 662.78 l 1,0,0
 382.77 535.76 l 1,0,0
EndSplineSet
EndChar

StartChar: L
Encoding: 76 76 47
Width: 1175
GlyphClass: 2
Flags: W
LayerCount: 2
Fore
SplineSet
1040.55 179.76 m 1,0,0
 1005.6 0 l 1,0,0
 54.09 0 l 1,0,0
 327.09 1409 l 1,0,0
 552.41 1409 l 1,0,0
 314.03 179.76 l 1,0,0
 1040.55 179.76 l 1,0,0
EndSplineSet
EndChar

StartChar: M
Encoding: 77 77 48
Width: 1706
GlyphClass: 2
Flags: W
LayerCount: 2
Fore
SplineSet
445.21 990.18 m 2,0,0
 254.45 0 l 1,0,0
 54.09 0 l 1,0,0
 327.42 1409 l 1,0,0
 615.89 1409 l 1,0,0
 771.56 494.37 l 2,0,0
 776.22 458.87 776.22 458.87 783.725 401.595 c 0,0,0
 791.23 344.32 791.23 344.32 801.25 265.94 c 1,0,0
 824.61 314.65 824.61 314.65 847.475 362.54 c 0,0,0
 870.34 410.43 870.34 410.43 893.04 456.5 c 2,0,0
 1416.67 1409 l 1,0,0
 1717.88 1409 l 1,0,0
 1444.55 0 l 1,0,0
 1242.85 0 l 1,0,0
 1420.21 913.48 l 2,0,0
 1436.56 996.57 1436.56 996.57 1453.72 1073.385 c 0,0,0
 1470.88 1150.2 1470.88 1150.2 1488.18 1220.74 c 1,0,0
 1447.95 1134.64 1447.95 1134.64 1418.315 1074.225 c 0,0,0
 1388.68 1013.81 1388.68 1013.81 1367.67 973.14 c 0,0,0
 1346.66 932.47 1346.66 932.47 1330.64 904.44 c 2,0,0
 827.52 0 l 1,0,0
 675.14 0 l 1,0,0
 520.17 905.43 l 2,0,0
 512.88 962.99 512.88 962.99 502.71 1042.07 c 0,0,0
 492.54 1121.15 492.54 1121.15 479.5 1220.74 c 1,0,0
 472.2 1160.38 472.2 1160.38 463.71 1102.99 c 0,0,0
 455.22 1045.6 455.22 1045.6 445.21 990.18 c 2,0,0
EndSplineSet
EndChar

StartChar: N
Encoding: 78 78 49
Width: 1479
GlyphClass: 2
Flags: W
LayerCount: 2
Fore
SplineSet
433.14 926.17 m 2,0,0
 254.45 0 l 1,0,0
 54.09 0 l 1,0,0
 327.42 1409 l 1,0,0
 584.96 1409 l 1,0,0
 1067.15 218.42 l 1,0,0
 1080.81 316.06 1080.81 316.06 1090.985 381.285 c 0,0,0
 1101.16 446.51 1101.16 446.51 1110.83 493.18 c 2,0,0
 1289.52 1409 l 1,0,0
 1491.22 1409 l 1,0,0
 1217.89 0 l 1,0,0
 953.01 0 l 1,0,0
 473.82 1183.93 l 1,0,0
 462.82 1100.25 462.82 1100.25 452.65 1035.56 c 0,0,0
 442.48 970.87 442.48 970.87 433.14 926.17 c 2,0,0
EndSplineSet
EndChar

StartChar: O
Encoding: 79 79 50
Width: 1593
GlyphClass: 2
Flags: W
LayerCount: 2
Fore
SplineSet
934.7 1430 m 0,0,0
 1123.33 1430 1123.33 1430 1259.64 1359.165 c 0,0,0
 1395.95 1288.33 1395.95 1288.33 1469.77 1158.495 c 0,0,0
 1543.59 1028.66 1543.59 1028.66 1543.59 851 c 0,0,0
 1540.91 591.27 1540.91 591.27 1433.9 392.29 c 0,0,0
 1327.23 193.65 1327.23 193.65 1140.24 86.825 c 0,0,0
 953.25 -20 953.25 -20 714.94 -20 c 0,0,0
 516.91 -20 516.91 -20 376.59 58.03 c 0,0,0
 245.98 129.36 245.98 129.36 176.675 261.515 c 0,0,0
 107.37 393.67 107.37 393.67 107.37 573 c 0,0,0
 107.37 811.68 107.37 811.68 213.37 1012.67 c 0,0,0
 318.37 1213.66 318.37 1213.66 506.71 1321.83 c 0,0,0
 695.05 1430 695.05 1430 934.7 1430 c 0,0,0
924.05 1249.93 m 0,0,0
 737.26 1249.93 737.26 1249.93 605.84 1165.55 c 0,0,0
 518.45 1109.52 518.45 1109.52 458.08 1013.635 c 0,0,0
 397.71 917.75 397.71 917.75 366.025 802.03 c 0,0,0
 334.34 686.31 334.34 686.31 334.34 568.94 c 0,0,0
 334.34 368.19 334.34 368.19 435.395 264.3 c 0,0,0
 536.45 160.41 536.45 160.41 725.59 160.41 c 0,0,0
 910.71 160.41 910.71 160.41 1041.46 243.45 c 0,0,0
 1128.18 298.81 1128.18 298.81 1189.385 391.855 c 0,0,0
 1250.59 484.9 1250.59 484.9 1282.945 601.29 c 0,0,0
 1315.3 717.68 1315.3 717.68 1315.3 840.4 c 0,0,0
 1315.3 1037.17 1315.3 1037.17 1213.73 1143.55 c 0,0,0
 1112.16 1249.93 1112.16 1249.93 924.05 1249.93 c 0,0,0
EndSplineSet
EndChar

StartChar: P
Encoding: 80 80 51
Width: 1366
GlyphClass: 2
Flags: W
LayerCount: 2
Fore
SplineSet
851.34 1409 m 2,0,0
 1087.29 1409 1087.29 1409 1222.785 1302.36 c 0,0,0
 1358.28 1195.72 1358.28 1195.72 1358.28 1009.11 c 0,0,0
 1358.28 861.79 1358.28 861.79 1289.115 754.305 c 0,0,0
 1219.95 646.82 1219.95 646.82 1092.78 589.165 c 0,0,0
 965.61 531.51 965.61 531.51 790.93 531.51 c 2,0,0
 382.44 531.51 l 1,0,0
 279.08 0 l 1,0,0
 54.09 0 l 1,0,0
 327.09 1409 l 1,0,0
 851.34 1409 l 2,0,0
416.73 707.59 m 1,0,0
 771.39 707.59 l 2,0,0
 950.51 707.59 950.51 707.59 1040.07 778.99 c 0,0,0
 1129.63 850.39 1129.63 850.39 1129.63 997.8 c 0,0,0
 1129.63 1111.19 1129.63 1111.19 1055.58 1171.055 c 0,0,0
 981.53 1230.92 981.53 1230.92 838.75 1230.92 c 2,0,0
 518.46 1230.92 l 1,0,0
 416.73 707.59 l 1,0,0
EndSplineSet
EndChar

StartChar: Q
Encoding: 81 81 52
Width: 1593
GlyphClass: 2
Flags: W
LayerCount: 2
Fore
SplineSet
928 1430 m 0,0,0
 1116.63 1430 1116.63 1430 1252.94 1359.165 c 0,0,0
 1389.25 1288.33 1389.25 1288.33 1463.07 1158.495 c 0,0,0
 1536.89 1028.66 1536.89 1028.66 1536.89 851 c 0,0,0
 1534.21 655.21 1534.21 655.21 1465.385 476.57 c 0,0,0
 1396.56 297.93 1396.56 297.93 1248.68 168.81 c 0,0,0
 1080.36 23.28 1080.36 23.28 841.8 -10.68 c 1,0,0
 859.46 -124.09 859.46 -124.09 907.975 -175.795 c 0,0,0
 956.49 -227.5 956.49 -227.5 1052.19 -227.5 c 0,0,0
 1118.47 -227.5 1118.47 -227.5 1184.1 -214.17 c 1,0,0
 1157.19 -368.3 l 1,0,0
 1083.51 -391.29 1083.51 -391.29 988.19 -391.29 c 0,0,0
 822.01 -391.29 822.01 -391.29 732.595 -302.65 c 0,0,0
 643.18 -214.01 643.18 -214.01 620.18 -14.36 c 1,0,0
 496.15 -2.06 496.15 -2.06 399.785 44.085 c 0,0,0
 303.42 90.23 303.42 90.23 236.73 166.23 c 0,0,0
 100.67 319.24 100.67 319.24 100.67 573 c 0,0,0
 100.67 811.68 100.67 811.68 206.67 1012.67 c 0,0,0
 311.67 1213.66 311.67 1213.66 500.01 1321.83 c 0,0,0
 688.35 1430 688.35 1430 928 1430 c 0,0,0
917.35 1249.93 m 0,0,0
 730.56 1249.93 730.56 1249.93 599.14 1165.55 c 0,0,0
 511.75 1109.52 511.75 1109.52 451.38 1013.635 c 0,0,0
 391.01 917.75 391.01 917.75 359.325 802.03 c 0,0,0
 327.64 686.31 327.64 686.31 327.64 568.94 c 0,0,0
 327.64 368.19 327.64 368.19 428.695 264.3 c 0,0,0
 529.75 160.41 529.75 160.41 718.89 160.41 c 0,0,0
 904.01 160.41 904.01 160.41 1034.76 243.45 c 0,0,0
 1121.48 298.81 1121.48 298.81 1182.685 391.855 c 0,0,0
 1243.89 484.9 1243.89 484.9 1276.245 601.29 c 0,0,0
 1308.6 717.68 1308.6 717.68 1308.6 840.4 c 0,0,0
 1308.6 1037.17 1308.6 1037.17 1207.03 1143.55 c 0,0,0
 1105.46 1249.93 1105.46 1249.93 917.35 1249.93 c 0,0,0
EndSplineSet
EndChar

StartChar: R
Encoding: 82 82 53
Width: 1479
GlyphClass: 2
Flags: W
LayerCount: 2
Fore
SplineSet
389.11 568.17 m 1,0,0
 279.41 0 l 1,0,0
 54.09 0 l 1,0,0
 327.42 1409 l 1,0,0
 952.29 1409 l 2,0,0
 1107.6 1409 1107.6 1409 1219.26 1356.65 c 0,0,0
 1321.54 1309.66 1321.54 1309.66 1376.855 1225.025 c 0,0,0
 1432.17 1140.39 1432.17 1140.39 1432.17 1028.11 c 0,0,0
 1432.17 847.7 1432.17 847.7 1324.005 736.05 c 0,0,0
 1215.84 624.4 1215.84 624.4 1013.09 595.73 c 1,0,0
 1283.07 0 l 1,0,0
 1037.47 0 l 1,0,0
 798.76 568.17 l 1,0,0
 389.11 568.17 l 1,0,0
861.95 745.24 m 2,0,0
 1031.07 745.24 1031.07 745.24 1117.295 815.13 c 0,0,0
 1203.52 885.02 1203.52 885.02 1203.52 1012.45 c 0,0,0
 1203.52 1118.18 1203.52 1118.18 1132.65 1174.55 c 0,0,0
 1061.78 1230.92 1061.78 1230.92 924.67 1230.92 c 2,0,0
 518.46 1230.92 l 1,0,0
 424.06 745.24 l 1,0,0
 861.95 745.24 l 2,0,0
EndSplineSet
EndChar

StartChar: S
Encoding: 83 83 54
Width: 1366
GlyphClass: 2
Flags: W
LayerCount: 2
Fore
SplineSet
610.72 -20 m 0,0,0
 355.78 -20 355.78 -20 217.455 70.48 c 0,0,0
 79.13 160.96 79.13 160.96 47.11 346.91 c 1,0,0
 261.07 387.87 l 1,0,0
 286.09 264.81 286.09 264.81 372.325 209.12 c 0,0,0
 458.56 153.43 458.56 153.43 626.7 153.43 c 0,0,0
 830.52 153.43 830.52 153.43 926.57 213.65 c 0,0,0
 1022.62 273.87 1022.62 273.87 1022.62 397.32 c 0,0,0
 1022.62 455.41 1022.62 455.41 998.24 493.105 c 0,0,0
 973.86 530.8 973.86 530.8 917.06 560.5 c 0,0,0
 883.71 578.81 883.71 578.81 823.875 599.8 c 0,0,0
 764.04 620.79 764.04 620.79 677.05 644.13 c 0,0,0
 504.1 691.12 504.1 691.12 416.44 742.78 c 0,0,0
 330.45 793.77 330.45 793.77 285.795 865.58 c 0,0,0
 241.14 937.39 241.14 937.39 241.14 1039.68 c 0,0,0
 241.14 1160.36 241.14 1160.36 311.3 1247.855 c 0,0,0
 381.46 1335.35 381.46 1335.35 509.79 1382.675 c 0,0,0
 638.12 1430 638.12 1430 811.46 1430 c 0,0,0
 1037.4 1430 1037.4 1430 1174.03 1350.535 c 0,0,0
 1310.66 1271.07 1310.66 1271.07 1344.33 1118.47 c 1,0,0
 1133.38 1062.19 l 1,0,0
 1104.01 1162.24 1104.01 1162.24 1022.47 1213.395 c 0,0,0
 940.93 1264.55 940.93 1264.55 805.51 1264.55 c 0,0,0
 638.63 1264.55 638.63 1264.55 552.22 1209.675 c 0,0,0
 465.81 1154.8 465.81 1154.8 465.81 1049.01 c 0,0,0
 465.81 993.3 465.81 993.3 491.81 957.285 c 0,0,0
 517.81 921.27 517.81 921.27 573.17 893.92 c 0,0,0
 600.85 880.25 600.85 880.25 656.045 861.905 c 0,0,0
 711.24 843.56 711.24 843.56 793.95 821.55 c 0,0,0
 912.08 788.94 912.08 788.94 984.06 758.815 c 0,0,0
 1056.04 728.69 1056.04 728.69 1100.03 696.1 c 0,0,0
 1172.5 646.76 1172.5 646.76 1210.57 578.395 c 0,0,0
 1248.64 510.03 1248.64 510.03 1248.64 412.95 c 0,0,0
 1248.64 203.65 1248.64 203.65 1090.01 91.825 c 0,0,0
 931.38 -20 931.38 -20 610.72 -20 c 0,0,0
EndSplineSet
EndChar

StartChar: T
Encoding: 84 84 55
Width: 1251
GlyphClass: 2
Flags: W
LayerCount: 2
Fore
SplineSet
870.21 1229.24 m 1,0,0
 630.83 0 l 1,0,0
 406.18 0 l 1,0,0
 645.56 1229.24 l 1,0,0
 171.13 1229.24 l 1,0,0
 205.75 1409 l 1,0,0
 1379.59 1409 l 1,0,0
 1344.97 1229.24 l 1,0,0
 870.21 1229.24 l 1,0,0
EndSplineSet
EndChar

StartChar: U
Encoding: 85 85 56
Width: 1479
GlyphClass: 2
Flags: W
LayerCount: 2
Fore
SplineSet
659.94 -20 m 0,0,0
 416.71 -20 416.71 -20 279.245 99.51 c 0,0,0
 141.78 219.02 141.78 219.02 141.78 431 c 0,0,0
 141.78 475 141.78 475 149.28 536.5 c 0,0,0
 156.78 598 156.78 598 164.78 635 c 2,0,0
 314.12 1409 l 1,0,0
 539.44 1409 l 1,0,0
 380.41 576.89 l 2,0,0
 363.08 487.88 363.08 487.88 363.08 424.32 c 0,0,0
 363.08 299.21 363.08 299.21 445.795 229.645 c 0,0,0
 528.51 160.08 528.51 160.08 675.94 160.08 c 0,0,0
 859.03 160.08 859.03 160.08 964.63 253.165 c 0,0,0
 1070.23 346.25 1070.23 346.25 1106.91 541 c 2,0,0
 1274.91 1409 l 1,0,0
 1499.56 1409 l 1,0,0
 1329.23 530 l 2,0,0
 1274.9 254.36 1274.9 254.36 1107.89 117.18 c 0,0,0
 940.88 -20 940.88 -20 659.94 -20 c 0,0,0
EndSplineSet
EndChar

StartChar: V
Encoding: 86 86 57
Width: 1366
GlyphClass: 2
Flags: W
LayerCount: 2
Fore
SplineSet
1519.72 1409 m 1,0,0
 696.8 0 l 1,0,0
 452.27 0 l 1,0,0
 175.02 1409 l 1,0,0
 405.65 1409 l 1,0,0
 575.93 445.71 l 2,0,0
 584.6 380.08 584.6 380.08 592.11 316.095 c 0,0,0
 599.62 252.11 599.62 252.11 606.64 191.1 c 1,0,0
 636.34 250.13 636.34 250.13 665.22 305.7 c 0,0,0
 694.1 361.27 694.1 361.27 720.83 413.04 c 2,0,0
 1278.72 1409 l 1,0,0
 1519.72 1409 l 1,0,0
EndSplineSet
EndChar

StartChar: W
Encoding: 87 87 58
Width: 1933
GlyphClass: 2
Flags: W
LayerCount: 2
Fore
SplineSet
963.31 889.06 m 2,0,0
 559.16 0 l 1,0,0
 292.6 0 l 1,0,0
 168.09 1409 l 1,0,0
 392.48 1409 l 1,0,0
 457.29 540.4 l 2,0,0
 462.63 461.09 462.63 461.09 465.805 374.255 c 0,0,0
 468.98 287.42 468.98 287.42 470.32 194.4 c 1,0,0
 508.01 284.77 508.01 284.77 540.84 362.415 c 0,0,0
 573.67 440.06 573.67 440.06 601.98 505.31 c 2,0,0
 1015.94 1409 l 1,0,0
 1242.83 1409 l 1,0,0
 1303.31 538.6 l 2,0,0
 1308.99 461.93 1308.99 461.93 1312.83 375.88 c 0,0,0
 1316.67 289.83 1316.67 289.83 1318.33 194.4 c 1,0,0
 1348.41 262.22 1348.41 262.22 1368.58 313.22 c 0,0,0
 1388.75 364.22 1388.75 364.22 1407.38 408.78 c 2,0,0
 1858.35 1409 l 1,0,0
 2089.05 1409 l 1,0,0
 1417.55 0 l 1,0,0
 1152.64 0 l 1,0,0
 1096.16 867.61 l 2,0,0
 1088.13 1063.83 l 0,0,0
 1085.12 1143.18 1085.12 1143.18 1083.79 1185.01 c 1,0,0
 1048.43 1091.61 1048.43 1091.61 1018.225 1017.705 c 0,0,0
 988.02 943.8 988.02 943.8 963.31 889.06 c 2,0,0
EndSplineSet
EndChar

StartChar: X
Encoding: 88 88 59
Width: 1366
GlyphClass: 2
Flags: W
LayerCount: 2
Fore
SplineSet
975.57 0 m 1,0,0
 689.07 581.58 l 1,0,0
 187.84 0 l 1,0,0
 -57.15 0 l 1,0,0
 596.19 742.7 l 1,0,0
 256.85 1409 l 1,0,0
 492.15 1409 l 1,0,0
 746.97 884.4 l 1,0,0
 1197.88 1409 l 1,0,0
 1442.54 1409 l 1,0,0
 842.54 732.67 l 1,0,0
 1210.21 0 l 1,0,0
 975.57 0 l 1,0,0
EndSplineSet
EndChar

StartChar: Y
Encoding: 89 89 60
Width: 1366
GlyphClass: 2
Flags: W
LayerCount: 2
Fore
SplineSet
801.83 582.02 m 1,0,0
 689.16 0 l 1,0,0
 464.84 0 l 1,0,0
 578.85 582.02 l 1,0,0
 199.47 1409 l 1,0,0
 427.15 1409 l 1,0,0
 717.64 757.77 l 1,0,0
 1249.26 1409 l 1,0,0
 1499.23 1409 l 1,0,0
 801.83 582.02 l 1,0,0
EndSplineSet
EndChar

StartChar: Z
Encoding: 90 90 61
Width: 1251
GlyphClass: 2
Flags: W
LayerCount: 2
Fore
SplineSet
1116.95 180.75 m 1,0,0
 1082 0 l 1,0,0
 -42.64 0 l 1,0,0
 -11.35 164.78 l 1,0,0
 1000.74 1228.25 l 1,0,0
 269.4 1228.25 l 1,0,0
 304.35 1409 l 1,0,0
 1310.31 1409 l 1,0,0
 1279.02 1248.22 l 1,0,0
 265.94 180.75 l 1,0,0
 1116.95 180.75 l 1,0,0
EndSplineSet
EndChar

StartChar: bracketleft
Encoding: 91 91 62
Width: 606
GlyphClass: 2
Flags: W
LayerCount: 2
Fore
SplineSet
435.56 -275.54 m 1,0,0
 406.6 -425 l 1,0,0
 -43.95 -425 l 1,0,0
 326.05 1484 l 1,0,0
 777.6 1484 l 1,0,0
 748.64 1334.87 l 1,0,0
 501.45 1334.87 l 1,0,0
 188.37 -275.54 l 1,0,0
 435.56 -275.54 l 1,0,0
EndSplineSet
EndChar

StartChar: backslash
Encoding: 92 92 63
Width: 569
GlyphClass: 2
Flags: W
LayerCount: 2
Fore
SplineSet
312.15 1484.33 m 1,0,0
 491.8 -26.93 l 1,0,0
 309.77 -26.93 l 1,0,0
 134.45 1484.33 l 1,0,0
 312.15 1484.33 l 1,0,0
EndSplineSet
EndChar

StartChar: bracketright
Encoding: 93 93 64
Width: 606
GlyphClass: 2
Flags: W
LayerCount: 2
Fore
SplineSet
650.9 1484 m 1,0,0
 279.9 -425 l 1,0,0
 -170.65 -425 l 1,0,0
 -141.69 -275.54 l 1,0,0
 105.16 -275.54 l 1,0,0
 418.24 1334.87 l 1,0,0
 170.39 1334.87 l 1,0,0
 199.35 1484 l 1,0,0
 650.9 1484 l 1,0,0
EndSplineSet
EndChar

StartChar: asciicircum
Encoding: 94 94 65
Width: 1038
GlyphClass: 2
Flags: W
LayerCount: 2
Fore
SplineSet
550.24 1292.8 m 1,0,0
 238.3 620.53 l 1,0,0
 54.85 620.53 l 1,0,0
 430.44 1409 l 1,0,0
 672.71 1409 l 1,0,0
 1050.3 620.53 l 1,0,0
 864.85 620.53 l 1,0,0
 550.24 1292.8 l 1,0,0
EndSplineSet
EndChar

StartChar: underscore
Encoding: 95 95 66
Width: 1139
GlyphClass: 2
Flags: W
LayerCount: 2
Fore
SplineSet
1030.87 -173.34 m 1,0,0
 1030.87 -250 l 1,0,0
 -146.8 -250 l 1,0,0
 -146.8 -173.34 l 1,0,0
 1030.87 -173.34 l 1,0,0
EndSplineSet
EndChar

StartChar: grave
Encoding: 96 96 67
Width: 682
GlyphClass: 2
Flags: W
LayerCount: 2
Fore
SplineSet
584.51 1218.69 m 1,0,0
 580.52 1195.06 l 1,0,0
 472.72 1195.06 l 1,0,0
 182.47 1472.4 l 1,0,0
 188.46 1506.02 l 1,0,0
 412.29 1506.02 l 1,0,0
 584.51 1218.69 l 1,0,0
EndSplineSet
EndChar

StartChar: a
Encoding: 97 97 68
Width: 1139
GlyphClass: 2
Flags: W
LayerCount: 2
Fore
SplineSet
915.45 -10 m 0,0,0
 856.11 -10 856.11 -10 818.465 3.67 c 0,0,0
 780.82 17.34 780.82 17.34 760.01 44.675 c 0,0,0
 739.2 72.01 739.2 72.01 733.215 112.675 c 0,0,0
 727.23 153.34 727.23 153.34 732.55 207 c 1,0,0
 726.55 207 l 1,0,0
 690.21 151.66 690.21 151.66 652.035 109.16 c 0,0,0
 613.86 66.66 613.86 66.66 569.015 37.995 c 0,0,0
 524.17 9.33 524.17 9.33 469.66 -5.335 c 0,0,0
 415.15 -20 415.15 -20 346.48 -20 c 0,0,0
 279.48 -20 279.48 -20 222.31 1 c 0,0,0
 165.14 22 165.14 22 123.135 60.5 c 0,0,0
 81.13 99 81.13 99 57.625 154 c 0,0,0
 34.12 209 34.12 209 34.12 278 c 0,0,0
 34.12 381.68 34.12 381.68 71.135 450.185 c 0,0,0
 108.15 518.69 108.15 518.69 169.335 560.69 c 0,0,0
 230.52 602.69 230.52 602.69 310.545 623.02 c 0,0,0
 390.57 643.35 390.57 643.35 475.755 651.345 c 0,0,0
 560.94 659.34 560.94 659.34 645.955 659.17 c 0,0,0
 730.97 659 730.97 659 802.97 660 c 1,0,0
 809.3 691.33 809.3 691.33 815.965 723.825 c 0,0,0
 822.63 756.32 822.63 756.32 822.63 788.32 c 0,0,0
 822.63 831.04 822.63 831.04 810.275 861.405 c 0,0,0
 797.92 891.77 797.92 891.77 775.05 911.455 c 0,0,0
 752.18 931.14 752.18 931.14 719.805 940.48 c 0,0,0
 687.43 949.82 687.43 949.82 646.72 949.82 c 0,0,0
 600.35 949.82 600.35 949.82 561.32 942.15 c 0,0,0
 522.29 934.48 522.29 934.48 491.095 915.97 c 0,0,0
 459.9 897.46 459.9 897.46 437.045 866.44 c 0,0,0
 414.19 835.42 414.19 835.42 400.17 787.72 c 1,0,0
 194.12 817.38 l 1,0,0
 218.14 901.37 218.14 901.37 262.965 956.195 c 0,0,0
 307.79 1011.02 307.79 1011.02 368.775 1043.515 c 0,0,0
 429.76 1076.01 429.76 1076.01 502.58 1089.005 c 0,0,0
 575.4 1102 575.4 1102 655.07 1102 c 0,0,0
 727.38 1102 727.38 1102 795.695 1086.985 c 0,0,0
 864.01 1071.97 864.01 1071.97 917.33 1037.96 c 0,0,0
 970.65 1003.95 970.65 1003.95 1002.81 947.455 c 0,0,0
 1034.97 890.96 1034.97 890.96 1034.97 807 c 0,0,0
 1034.97 767.66 1034.97 767.66 1028.645 728.165 c 0,0,0
 1022.32 688.67 1022.32 688.67 1014.32 650 c 2,0,0
 941.31 280.25 l 2,0,0
 936.64 259.9 936.64 259.9 933.97 239.225 c 0,0,0
 931.3 218.55 931.3 218.55 931.3 197.53 c 0,0,0
 931.3 159.52 931.3 159.52 953.63 143.345 c 0,0,0
 975.96 127.17 975.96 127.17 1011.64 127.17 c 0,0,0
 1026.97 127.17 1026.97 127.17 1042.135 129.005 c 0,0,0
 1057.3 130.84 1057.3 130.84 1072.3 134.17 c 1,0,0
 1058.3 7.98 l 1,0,0
 1023 -2.66 1023 -2.66 987.37 -6.33 c 0,0,0
 951.74 -10 951.74 -10 915.45 -10 c 0,0,0
256.8 298.87 m 0,0,0
 256.8 262.19 256.8 262.19 268.81 232.01 c 0,0,0
 280.82 201.83 280.82 201.83 302.335 180.655 c 0,0,0
 323.85 159.48 323.85 159.48 354.365 147.975 c 0,0,0
 384.88 136.47 384.88 136.47 421.56 136.47 c 0,0,0
 481.29 136.47 481.29 136.47 534.37 155.825 c 0,0,0
 587.45 175.18 587.45 175.18 630.02 209.725 c 0,0,0
 672.59 244.27 672.59 244.27 702.475 291.835 c 0,0,0
 732.36 339.4 732.36 339.4 745.37 395.82 c 2,0,0
 776.66 525.11 l 1,0,0
 597.24 524.44 l 2,0,0
 537.15 524.44 537.15 524.44 476.405 515.27 c 0,0,0
 415.66 506.1 415.66 506.1 367.1 481.08 c 0,0,0
 318.54 456.06 318.54 456.06 287.67 412.01 c 0,0,0
 256.8 367.96 256.8 367.96 256.8 298.87 c 0,0,0
EndSplineSet
EndChar

StartChar: b
Encoding: 98 98 69
Width: 1175
GlyphClass: 2
Flags: W
LayerCount: 2
Fore
SplineSet
780.63 1102 m 0,0,0
 938.29 1102 938.29 1102 1026.285 1007.5 c 0,0,0
 1114.28 913 1114.28 913 1114.28 748 c 0,0,0
 1114.28 646.01 1114.28 646.01 1099.115 548.005 c 0,0,0
 1083.95 450 1083.95 450 1052.95 355 c 0,0,0
 991.62 164.34 991.62 164.34 879.455 72.17 c 0,0,0
 767.29 -20 767.29 -20 593.96 -20 c 0,0,0
 470.3 -20 470.3 -20 393.135 32 c 0,0,0
 315.97 84 315.97 84 283.97 178 c 1,0,0
 280.97 178 l 1,0,0
 275.65 151.72 275.65 151.72 268.315 119.865 c 0,0,0
 260.98 88.01 260.98 88.01 253.97 61.64 c 0,0,0
 248.3 40.28 248.3 40.28 243.47 23.615 c 0,0,0
 238.64 6.95 238.64 6.95 236.32 0 c 1,0,0
 30.98 0 l 1,0,0
 35.98 15 35.98 15 50.645 82 c 0,0,0
 65.31 149 65.31 149 79.98 223 c 2,0,0
 325.31 1484 l 1,0,0
 538.64 1484 l 1,0,0
 455.31 1059.68 l 2,0,0
 450.32 1033.71 450.32 1033.71 442.15 998.38 c 0,0,0
 433.98 963.05 433.98 963.05 421.97 918.36 c 1,0,0
 425.97 918.36 l 1,0,0
 493.36 1009.73 493.36 1009.73 577.165 1055.865 c 0,0,0
 660.97 1102 660.97 1102 780.63 1102 c 0,0,0
706.19 944.52 m 0,0,0
 535.98 944.52 535.98 944.52 445.24 805.95 c 0,0,0
 413.6 758.6 413.6 758.6 390.45 693.77 c 0,0,0
 367.3 628.94 367.3 628.94 352.31 554.67 c 0,0,0
 333.97 455.99 333.97 455.99 333.97 384.92 c 0,0,0
 333.97 265.86 333.97 265.86 394.005 199.33 c 0,0,0
 454.04 132.8 454.04 132.8 561.1 132.8 c 0,0,0
 677.51 132.8 677.51 132.8 744.56 204.51 c 0,0,0
 778.25 240.2 778.25 240.2 805.265 301.055 c 0,0,0
 832.28 361.91 832.28 361.91 851.62 434.77 c 0,0,0
 870.96 507.63 870.96 507.63 881.295 579.83 c 0,0,0
 891.63 652.03 891.63 652.03 891.63 708.74 c 0,0,0
 891.63 825.8 891.63 825.8 848.425 885.16 c 0,0,0
 805.22 944.52 805.22 944.52 706.19 944.52 c 0,0,0
EndSplineSet
EndChar

StartChar: c
Encoding: 99 99 70
Width: 1061
GlyphClass: 2
Flags: W
LayerCount: 2
Fore
SplineSet
491.11 138.83 m 0,0,0
 587.51 138.83 587.51 138.83 653.57 194.68 c 0,0,0
 719.63 250.53 719.63 250.53 758.33 361.57 c 1,0,0
 952.28 312.24 l 1,0,0
 835.56 -20 835.56 -20 483.15 -20 c 0,0,0
 281.91 -20 281.91 -20 173.795 90.155 c 0,0,0
 65.68 200.31 65.68 200.31 65.68 398.3 c 0,0,0
 65.68 597.65 65.68 597.65 140.66 768.32 c 0,0,0
 214.97 939.99 214.97 939.99 338.43 1020.995 c 0,0,0
 461.89 1102 461.89 1102 643.15 1102 c 0,0,0
 818.75 1102 818.75 1102 922.035 1013.535 c 0,0,0
 1025.32 925.07 1025.32 925.07 1036.64 769.81 c 1,0,0
 824.33 745.47 l 1,0,0
 818.66 841.81 818.66 841.81 768.62 892.825 c 0,0,0
 718.58 943.84 718.58 943.84 631.87 943.84 c 0,0,0
 498.07 943.84 498.07 943.84 424.17 858.28 c 0,0,0
 350.27 772.72 350.27 772.72 307.3 583.04 c 1,0,0
 296.97 531.07 296.97 531.07 291.64 483.375 c 0,0,0
 286.31 435.68 286.31 435.68 286.31 394.94 c 0,0,0
 286.31 138.83 286.31 138.83 491.11 138.83 c 0,0,0
EndSplineSet
EndChar

StartChar: d
Encoding: 100 100 71
Width: 1175
GlyphClass: 2
Flags: W
LayerCount: 2
Fore
SplineSet
398.03 -21 m 0,0,0
 242.02 -21 242.02 -21 153.695 75.975 c 0,0,0
 65.37 172.95 65.37 172.95 65.37 339.93 c 0,0,0
 65.37 538.63 65.37 538.63 128.03 727.33 c 0,0,0
 190.69 915.69 190.69 915.69 303.175 1008.51 c 0,0,0
 415.66 1101.33 415.66 1101.33 585.36 1101.33 c 0,0,0
 710.01 1101.33 710.01 1101.33 787.84 1050.155 c 0,0,0
 865.67 998.98 865.67 998.98 896.68 903.33 c 1,0,0
 901.68 903.33 l 1,0,0
 907.03 937.4 907.03 937.4 913.7 977.735 c 0,0,0
 920.37 1018.07 920.37 1018.07 929.02 1065.33 c 2,0,0
 1011.68 1484 l 1,0,0
 1223.69 1484 l 1,0,0
 981 225.64 l 2,0,0
 968.32 160.26 968.32 160.26 959.645 103.6 c 0,0,0
 950.97 46.94 950.97 46.94 945.97 0 c 1,0,0
 738 0 l 1,0,0
 738 54.96 738 54.96 757.02 160 c 1,0,0
 752.35 160 l 1,0,0
 680.01 65.66 680.01 65.66 598.515 22.33 c 0,0,0
 517.02 -21 517.02 -21 398.03 -21 c 0,0,0
473.46 135.82 m 0,0,0
 653.91 135.82 653.91 135.82 745.63 291.56 c 0,0,0
 776.98 343.58 776.98 343.58 799.16 415.11 c 0,0,0
 821.34 486.64 821.34 486.64 833.345 561.175 c 0,0,0
 845.35 635.71 845.35 635.71 845.35 696.41 c 0,0,0
 845.35 819.76 845.35 819.76 787.295 884.31 c 0,0,0
 729.24 948.86 729.24 948.86 622.51 948.86 c 0,0,0
 507.44 948.86 507.44 948.86 438.42 877.85 c 0,0,0
 392.74 830.51 392.74 830.51 359.22 742.955 c 0,0,0
 325.7 655.4 325.7 655.4 307.52 556.17 c 0,0,0
 289.34 456.94 289.34 456.94 289.34 374.24 c 0,0,0
 289.34 255.53 289.34 255.53 334.03 195.675 c 0,0,0
 378.72 135.82 378.72 135.82 473.46 135.82 c 0,0,0
EndSplineSet
EndChar

StartChar: e
Encoding: 101 101 72
Width: 1139
GlyphClass: 2
Flags: W
LayerCount: 2
Fore
SplineSet
289.66 494.09 m 1,0,0
 283.33 459.76 283.33 459.76 281.32 389.01 c 0,0,0
 281.32 264.92 281.32 264.92 341.22 198.705 c 0,0,0
 401.12 132.49 401.12 132.49 520.93 132.49 c 0,0,0
 610.34 132.49 610.34 132.49 680.76 178.51 c 0,0,0
 751.18 224.53 751.18 224.53 791.55 308.19 c 1,0,0
 964.86 241.56 l 1,0,0
 891.2 101.32 891.2 101.32 779.195 40.66 c 0,0,0
 667.19 -20 667.19 -20 500.59 -20 c 0,0,0
 295.63 -20 295.63 -20 181.325 92.82 c 0,0,0
 67.02 205.64 67.02 205.64 67.02 409.29 c 0,0,0
 67.02 610.93 67.02 610.93 138.35 770.95 c 0,0,0
 209.68 928.63 209.68 928.63 339.835 1015.315 c 0,0,0
 469.99 1102 469.99 1102 635.28 1102 c 0,0,0
 841.6 1102 841.6 1102 955.435 997.515 c 0,0,0
 1069.27 893.03 1069.27 893.03 1069.27 702.39 c 0,0,0
 1069.27 600.04 1069.27 600.04 1045.27 494.09 c 1,0,0
 289.66 494.09 l 1,0,0
316.63 648.26 m 1,0,0
 860.86 648.26 l 1,0,0
 864.53 714.98 l 1,0,0
 864.53 833.37 864.53 833.37 804.98 893.76 c 0,0,0
 745.43 954.15 745.43 954.15 637.96 954.15 c 0,0,0
 516.5 954.15 516.5 954.15 433.58 874.92 c 0,0,0
 350.66 795.69 350.66 795.69 316.63 648.26 c 1,0,0
EndSplineSet
EndChar

StartChar: f
Encoding: 102 102 73
Width: 606
GlyphClass: 2
Flags: W
LayerCount: 2
Fore
SplineSet
465.02 931.53 m 1,0,0
 283.65 0 l 1,0,0
 70.65 0 l 1,0,0
 252.02 931.53 l 1,0,0
 98.04 931.53 l 1,0,0
 127.67 1082 l 1,0,0
 281.65 1082 l 1,0,0
 304.32 1201.03 l 2,0,0
 326.32 1310.37 326.32 1310.37 368.29 1369.36 c 0,0,0
 409.92 1427.67 409.92 1427.67 477.195 1455.835 c 0,0,0
 544.47 1484 544.47 1484 647.08 1484 c 0,0,0
 720.43 1484 720.43 1484 781.31 1470.35 c 1,0,0
 752.01 1318.83 l 1,0,0
 742.66 1320.5 742.66 1320.5 730.665 1322.165 c 0,0,0
 718.67 1323.83 718.67 1323.83 706.35 1324.83 c 0,0,0
 694.69 1326.16 694.69 1326.16 682.36 1326.825 c 0,0,0
 670.03 1327.49 670.03 1327.49 659.36 1327.49 c 0,0,0
 594.37 1327.49 594.37 1327.49 562.36 1295.155 c 0,0,0
 530.35 1262.82 530.35 1262.82 512.66 1175.04 c 2,0,0
 494.65 1082 l 1,0,0
 706.31 1082 l 1,0,0
 676.68 931.53 l 1,0,0
 465.02 931.53 l 1,0,0
EndSplineSet
EndChar

StartChar: g
Encoding: 103 103 74
Width: 1175
GlyphClass: 2
Flags: W
LayerCount: 2
Fore
SplineSet
408.22 -425 m 0,0,0
 229.32 -425 229.32 -425 128.015 -360.02 c 0,0,0
 26.71 -295.04 26.71 -295.04 0.37 -162.77 c 1,0,0
 202.97 -124.73 l 1,0,0
 234.66 -271.83 234.66 -271.83 421.79 -271.83 c 0,0,0
 553.23 -271.83 553.23 -271.83 625.62 -203.115 c 0,0,0
 698.01 -134.4 698.01 -134.4 730.67 27 c 0,0,0
 739.33 72.32 739.33 72.32 748 115.82 c 0,0,0
 756.67 159.32 756.67 159.32 763.68 201 c 1,0,0
 761.68 201 l 1,0,0
 700.02 112.67 700.02 112.67 652.35 73 c 0,0,0
 604.35 34 604.35 34 544.85 13 c 0,0,0
 485.35 -8 485.35 -8 408.35 -8 c 0,0,0
 254.69 -8 254.69 -8 161.52 92.335 c 0,0,0
 68.35 192.67 68.35 192.67 68.35 358.01 c 0,0,0
 68.35 439.75 68.35 439.75 82.05 528.365 c 0,0,0
 95.75 616.98 95.75 616.98 121.64 700.245 c 0,0,0
 147.53 783.51 147.53 783.51 183.27 849.2 c 0,0,0
 247.61 978.59 247.61 978.59 346.715 1039.795 c 0,0,0
 445.82 1101 445.82 1101 587.34 1101 c 0,0,0
 707.35 1101 707.35 1101 791.345 1044.33 c 0,0,0
 875.34 987.66 875.34 987.66 900.33 895.68 c 1,0,0
 902.33 895.68 l 1,0,0
 907 919.03 907 919.03 917 961.025 c 0,0,0
 927 1003.02 927 1003.02 937.165 1039.675 c 0,0,0
 947.33 1076.33 947.33 1076.33 950.33 1082 c 1,0,0
 1152.35 1082 l 1,0,0
 1133.35 999.67 l 1,0,0
 1103.35 856.35 l 1,0,0
 941.03 24.07 l 2,0,0
 893.36 -214.96 893.36 -214.96 765.73 -319.98 c 0,0,0
 638.1 -425 638.1 -425 408.22 -425 c 0,0,0
292 380.59 m 0,0,0
 292 148.76 292 148.76 487.78 148.76 c 0,0,0
 589.51 148.76 589.51 148.76 672.56 223.8 c 0,0,0
 755.61 298.17 755.61 298.17 801.14 428.075 c 0,0,0
 846.67 557.98 846.67 557.98 846.67 698.06 c 0,0,0
 846.67 816.13 846.67 816.13 786.63 882.33 c 0,0,0
 726.59 948.53 726.59 948.53 620.53 948.53 c 0,0,0
 535.15 948.53 535.15 948.53 478.78 913.18 c 0,0,0
 422.41 877.83 422.41 877.83 383.39 801.47 c 0,0,0
 357.71 750.79 357.71 750.79 337.03 674.93 c 0,0,0
 316.35 599.07 316.35 599.07 304.175 520.36 c 0,0,0
 292 441.65 292 441.65 292 380.59 c 0,0,0
EndSplineSet
EndChar

StartChar: h
Encoding: 104 104 75
Width: 1175
GlyphClass: 2
Flags: W
LayerCount: 2
Fore
SplineSet
416.99 897 m 1,0,0
 497.35 1008.37 497.35 1008.37 583.16 1054.685 c 0,0,0
 668.97 1101 668.97 1101 784.63 1101 c 0,0,0
 933.95 1101 933.95 1101 1009.275 1028 c 0,0,0
 1084.6 955 1084.6 955 1084.6 817 c 0,0,0
 1084.6 787.31 1084.6 787.31 1078.94 741.855 c 0,0,0
 1073.28 696.4 1073.28 696.4 1063.6 653 c 2,0,0
 936.6 0 l 1,0,0
 723.26 0 l 1,0,0
 846.62 628.5 l 2,0,0
 867.26 730.04 867.26 730.04 867.26 783.45 c 0,0,0
 867.26 937.91 867.26 937.91 697.17 937.91 c 0,0,0
 618.78 937.91 618.78 937.91 550.25 896.39 c 0,0,0
 481.72 854.87 481.72 854.87 433.365 780.485 c 0,0,0
 385.01 706.1 385.01 706.1 365.32 606 c 2,0,0
 247.32 0 l 1,0,0
 34.33 0 l 1,0,0
 321.67 1484 l 1,0,0
 534.67 1484 l 1,0,0
 458.35 1091.73 l 2,0,0
 449.35 1043.05 449.35 1043.05 438.01 994.365 c 0,0,0
 426.67 945.68 426.67 945.68 413.99 897 c 1,0,0
 416.99 897 l 1,0,0
EndSplineSet
EndChar

StartChar: i
Encoding: 105 105 76
Width: 492
GlyphClass: 2
Flags: W
LayerCount: 2
Fore
SplineSet
534.99 1484 m 1,0,0
 498.68 1300.45 l 1,0,0
 285.35 1300.45 l 1,0,0
 321.66 1484 l 1,0,0
 534.99 1484 l 1,0,0
456.99 1082 m 1,0,0
 245.99 0 l 1,0,0
 33.66 0 l 1,0,0
 243.66 1082 l 1,0,0
 456.99 1082 l 1,0,0
EndSplineSet
Substitution2: "Single Substitution lookup 3 subtable" dotlessi
EndChar

StartChar: j
Encoding: 106 106 77
Width: 492
GlyphClass: 2
Flags: W
LayerCount: 2
Fore
SplineSet
535.66 1484 m 1,0,0
 500.35 1300.45 l 1,0,0
 287.02 1300.45 l 1,0,0
 322.33 1484 l 1,0,0
 535.66 1484 l 1,0,0
-84.82 -425 m 0,0,0
 -152.34 -425 -152.34 -425 -226.03 -409.35 c 1,0,0
 -198.74 -256.19 l 1,0,0
 -176.7 -259.2 -176.7 -259.2 -158.015 -261.035 c 0,0,0
 -139.33 -262.87 -139.33 -262.87 -123.99 -262.87 c 0,0,0
 -62.35 -262.87 -62.35 -262.87 -31.855 -223.345 c 0,0,0
 -1.36 -183.82 -1.36 -183.82 15.97 -91.49 c 2,0,0
 244.33 1082 l 1,0,0
 457.66 1082 l 1,0,0
 220.99 -132.02 l 2,0,0
 190.65 -285.4 190.65 -285.4 114.875 -355.2 c 0,0,0
 39.1 -425 39.1 -425 -84.82 -425 c 0,0,0
EndSplineSet
Substitution2: "Single Substitution lookup 3 subtable" uni0237
EndChar

StartChar: k
Encoding: 107 107 78
Width: 1061
GlyphClass: 2
Flags: W
LayerCount: 2
Fore
SplineSet
322.95 392.52 m 1,0,0
 246.66 0 l 1,0,0
 34.33 0 l 1,0,0
 322.33 1484 l 1,0,0
 535.66 1484 l 1,0,0
 360.62 589.11 l 1,0,0
 550.1 767.23 l 1,0,0
 892.62 1082 l 1,0,0
 1147.62 1082 l 1,0,0
 636.43 631.19 l 1,0,0
 952.3 0 l 1,0,0
 723.31 0 l 1,0,0
 481.71 500.35 l 1,0,0
 322.95 392.52 l 1,0,0
EndSplineSet
EndChar

StartChar: l
Encoding: 108 108 79
Width: 492
GlyphClass: 2
Flags: W
LayerCount: 2
Fore
SplineSet
534.99 1484 m 1,0,0
 245.99 0 l 1,0,0
 33.66 0 l 1,0,0
 321.66 1484 l 1,0,0
 534.99 1484 l 1,0,0
EndSplineSet
EndChar

StartChar: m
Encoding: 109 109 80
Width: 1743
GlyphClass: 2
Flags: W
LayerCount: 2
Fore
SplineSet
664.29 0 m 1,0,0
 787.96 634.33 l 2,0,0
 810.32 747.09 810.32 747.09 810.32 795.79 c 0,0,0
 810.32 866.17 810.32 866.17 774.465 902.535 c 0,0,0
 738.61 938.9 738.61 938.9 660.2 938.9 c 0,0,0
 553.44 938.9 553.44 938.9 472.88 847.655 c 0,0,0
 392.32 756.41 392.32 756.41 365.32 604 c 1,0,0
 247.32 0 l 1,0,0
 34.33 0 l 1,0,0
 200.33 851 l 2,0,0
 220.33 946 220.33 946 239.33 1082 c 1,0,0
 442.99 1082 l 1,0,0
 442.99 1075 442.99 1075 437.99 1040.5 c 0,0,0
 432.99 1006 432.99 1006 426.49 965.5 c 0,0,0
 419.99 925 419.99 925 414.99 897 c 1,0,0
 417.99 897 l 1,0,0
 492.31 1011.66 492.31 1011.66 566.14 1056.33 c 0,0,0
 639.97 1101 639.97 1101 741.97 1101 c 0,0,0
 991.62 1101 991.62 1101 1020.62 869 c 1,0,0
 1102.63 997.35 1102.63 997.35 1183.79 1049.175 c 0,0,0
 1264.95 1101 1264.95 1101 1370.6 1101 c 0,0,0
 1506.59 1101 1506.59 1101 1579.42 1028 c 0,0,0
 1652.25 955 1652.25 955 1652.25 817 c 0,0,0
 1652.25 754 1652.25 754 1631.25 653 c 2,0,0
 1503.92 0 l 1,0,0
 1292.59 0 l 1,0,0
 1415.93 631.69 l 2,0,0
 1438.62 743.13 1438.62 743.13 1438.62 795.79 c 0,0,0
 1438.29 866.17 1438.29 866.17 1402.435 902.535 c 0,0,0
 1366.58 938.9 1366.58 938.9 1288.5 938.9 c 0,0,0
 1180.75 938.9 1180.75 938.9 1101.02 848.165 c 0,0,0
 1021.29 757.43 1021.29 757.43 993.95 607 c 2,0,0
 875.62 0 l 1,0,0
 664.29 0 l 1,0,0
EndSplineSet
EndChar

StartChar: n
Encoding: 110 110 81
Width: 1175
GlyphClass: 2
Flags: W
LayerCount: 2
Fore
SplineSet
365.99 606 m 2,0,0
 247.99 0 l 1,0,0
 34.33 0 l 1,0,0
 200.33 851 l 2,0,0
 209.67 895.69 209.67 895.69 219.17 953.525 c 0,0,0
 228.67 1011.36 228.67 1011.36 239 1082 c 1,0,0
 441.34 1082 l 1,0,0
 441.34 1075.33 441.34 1075.33 436.505 1039.51 c 0,0,0
 431.67 1003.69 431.67 1003.69 425.5 962.695 c 0,0,0
 419.33 921.7 419.33 921.7 414.66 897 c 1,0,0
 417.66 897 l 1,0,0
 498.02 1008.37 498.02 1008.37 583.83 1054.685 c 0,0,0
 669.64 1101 669.64 1101 785.3 1101 c 0,0,0
 934.62 1101 934.62 1101 1009.945 1028 c 0,0,0
 1085.27 955 1085.27 955 1085.27 817 c 0,0,0
 1085.27 787.31 1085.27 787.31 1079.61 741.855 c 0,0,0
 1073.95 696.4 1073.95 696.4 1064.27 653 c 2,0,0
 937.27 0 l 1,0,0
 723.93 0 l 1,0,0
 847.29 628.5 l 2,0,0
 867.93 730.04 867.93 730.04 867.93 783.45 c 0,0,0
 867.93 937.91 867.93 937.91 697.84 937.91 c 0,0,0
 619.45 937.91 619.45 937.91 550.92 896.39 c 0,0,0
 482.39 854.87 482.39 854.87 434.035 780.485 c 0,0,0
 385.68 706.1 385.68 706.1 365.99 606 c 2,0,0
EndSplineSet
EndChar

StartChar: o
Encoding: 111 111 82
Width: 1175
GlyphClass: 2
Flags: W
LayerCount: 2
Fore
SplineSet
1110.63 683 m 0,0,0
 1110.63 561.91 1110.63 561.91 1077.23 437.585 c 0,0,0
 1043.83 313.26 1043.83 313.26 980.72 221.2 c 0,0,0
 903.41 103.08 903.41 103.08 781.715 41.54 c 0,0,0
 660.02 -20 660.02 -20 505.52 -20 c 0,0,0
 302.26 -20 302.26 -20 183.97 97.835 c 0,0,0
 65.68 215.67 65.68 215.67 65.68 419 c 1,0,0
 69.03 624.02 69.03 624.02 141.66 779.02 c 0,0,0
 214.96 936.03 214.96 936.03 346.385 1018.515 c 0,0,0
 477.81 1101 477.81 1101 662.46 1101 c 0,0,0
 880.71 1101 880.71 1101 995.67 991.5 c 0,0,0
 1110.63 882 1110.63 882 1110.63 683 c 0,0,0
888.99 676.07 m 1,0,0
 888.99 949.2 888.99 949.2 654.19 949.2 c 0,0,0
 526.45 949.2 526.45 949.2 449.74 883.17 c 0,0,0
 398.71 839.15 398.71 839.15 362.19 762.28 c 0,0,0
 325.67 685.41 325.67 685.41 306.325 595.2 c 0,0,0
 286.98 504.99 286.98 504.99 286.98 420.95 c 0,0,0
 286.98 278.89 286.98 278.89 347.02 205.68 c 0,0,0
 407.06 132.47 407.06 132.47 523.12 132.47 c 0,0,0
 610.61 132.47 610.61 132.47 667.17 160.705 c 0,0,0
 723.73 188.94 723.73 188.94 766.11 247.09 c 0,0,0
 819.05 315.15 819.05 315.15 851.19 429.145 c 0,0,0
 883.33 543.14 883.33 543.14 888.99 676.07 c 1,0,0
EndSplineSet
EndChar

StartChar: p
Encoding: 112 112 83
Width: 1175
GlyphClass: 2
Flags: W
LayerCount: 2
Fore
SplineSet
589.64 -20 m 0,0,0
 465.98 -20 465.98 -20 388.315 32 c 0,0,0
 310.65 84 310.65 84 278.65 178 c 1,0,0
 274.64 178 l 1,0,0
 273.32 164.42 273.32 164.42 269.505 137.855 c 0,0,0
 265.69 111.29 265.69 111.29 258.72 72.41 c 0,0,0
 249.44 20.33 249.44 20.33 225.42 -104.105 c 0,0,0
 163.31 -425 l 1,0,0
 -49.02 -425 l 1,0,0
 198 851.76 l 2,0,0
 203 877.08 203 877.08 207.83 902.07 c 0,0,0
 212.66 927.06 212.66 927.06 216.66 952.38 c 0,0,0
 225.99 1017.69 l 0,0,0
 234.32 1082 l 1,0,0
 436.96 1082 l 1,0,0
 436.96 1066.97 436.96 1066.97 433.795 1033.975 c 0,0,0
 430.63 1000.98 430.63 1000.98 426.3 968.165 c 0,0,0
 421.97 935.35 421.97 935.35 417.98 918.36 c 1,0,0
 421.98 918.36 l 1,0,0
 494.65 1015.01 494.65 1015.01 576.145 1058.505 c 0,0,0
 657.64 1102 657.64 1102 776.31 1102 c 0,0,0
 933.97 1102 933.97 1102 1021.965 1007.5 c 0,0,0
 1109.96 913 1109.96 913 1109.96 748 c 0,0,0
 1109.96 544.99 1109.96 544.99 1048.63 355 c 0,0,0
 987.3 164.34 987.3 164.34 875.135 72.17 c 0,0,0
 762.97 -20 762.97 -20 589.64 -20 c 0,0,0
701.87 944.52 m 0,0,0
 593.96 944.52 593.96 944.52 521.81 888.345 c 0,0,0
 449.66 832.17 449.66 832.17 405.61 719.49 c 0,0,0
 382.52 673.08 382.52 673.08 365.12 613.755 c 0,0,0
 347.72 554.43 347.72 554.43 338.685 494.75 c 0,0,0
 329.65 435.07 329.65 435.07 329.65 384.92 c 0,0,0
 329.65 265.86 329.65 265.86 389.685 199.33 c 0,0,0
 449.72 132.8 449.72 132.8 556.78 132.8 c 0,0,0
 673.85 132.8 673.85 132.8 741.23 204.84 c 0,0,0
 775.25 240.86 775.25 240.86 802.1 301.055 c 0,0,0
 828.95 361.25 828.95 361.25 847.795 433.285 c 0,0,0
 866.64 505.32 866.64 505.32 876.48 577.685 c 0,0,0
 886.32 650.05 886.32 650.05 886.32 708.74 c 0,0,0
 886.32 826.13 886.32 826.13 842.125 885.325 c 0,0,0
 797.93 944.52 797.93 944.52 701.87 944.52 c 0,0,0
EndSplineSet
EndChar

StartChar: q
Encoding: 113 113 84
Width: 1175
GlyphClass: 2
Flags: W
LayerCount: 2
Fore
SplineSet
398.69 -21 m 0,0,0
 243.34 -21 243.34 -21 154.52 74.655 c 0,0,0
 65.7 170.31 65.7 170.31 65.7 337.95 c 0,0,0
 65.7 538.3 65.7 538.3 128.36 727 c 0,0,0
 191.02 915.36 191.02 915.36 303.67 1008.345 c 0,0,0
 416.32 1101.33 416.32 1101.33 585.36 1101.33 c 0,0,0
 710.67 1101.33 710.67 1101.33 786.025 1051.475 c 0,0,0
 861.38 1001.62 861.38 1001.62 896.35 903 c 1,0,0
 901.35 903 l 1,0,0
 909.68 940.65 909.68 940.65 918.52 979.845 c 0,0,0
 927.36 1019.04 927.36 1019.04 936.03 1049.895 c 0,0,0
 944.7 1080.75 944.7 1080.75 949.69 1091.38 c 1,0,0
 1154.7 1091.38 l 1,0,0
 1146.01 1060.96 1146.01 1060.96 1132.48 1000.66 c 0,0,0
 1118.95 940.36 1118.95 940.36 1101.25 849.84 c 0,0,0
 1058.09 627.33 1058.09 627.33 995.78 308.285 c 0,0,0
 933.47 -10.76 933.47 -10.76 853.68 -425 c 1,0,0
 640.35 -425 l 1,0,0
 725.35 11.69 l 1,0,0
 758.67 160.99 l 1,0,0
 754.67 160.99 l 1,0,0
 681.01 65 681.01 65 598.855 22 c 0,0,0
 516.7 -21 516.7 -21 398.69 -21 c 0,0,0
474.45 135.82 m 0,0,0
 582.69 135.82 582.69 135.82 654.675 192.16 c 0,0,0
 726.66 248.5 726.66 248.5 770.05 362.18 c 0,0,0
 794.14 408.26 794.14 408.26 811.04 466.92 c 0,0,0
 827.94 525.58 827.94 525.58 836.81 585.925 c 0,0,0
 845.68 646.27 845.68 646.27 845.68 696.08 c 0,0,0
 845.68 817.78 845.68 817.78 788.78 883.32 c 0,0,0
 731.88 948.86 731.88 948.86 627.46 948.86 c 0,0,0
 509.09 948.86 509.09 948.86 440.07 879.5 c 0,0,0
 394.06 833.15 394.06 833.15 360.21 745.265 c 0,0,0
 326.36 657.38 326.36 657.38 308.015 556.995 c 0,0,0
 289.67 456.61 289.67 456.61 289.67 371.93 c 0,0,0
 289.67 255.2 289.67 255.2 334.525 195.51 c 0,0,0
 379.38 135.82 379.38 135.82 474.45 135.82 c 0,0,0
EndSplineSet
EndChar

StartChar: r
Encoding: 114 114 85
Width: 719
GlyphClass: 2
Flags: W
LayerCount: 2
Fore
SplineSet
759.58 909.95 m 1,0,0
 708.67 923.61 708.67 923.61 661.66 923.61 c 0,0,0
 587.7 923.61 587.7 923.61 525.865 877.07 c 0,0,0
 464.03 830.53 464.03 830.53 420.02 746.335 c 0,0,0
 376.01 662.14 376.01 662.14 354.69 547.5 c 2,0,0
 247.66 0 l 1,0,0
 34.33 0 l 1,0,0
 196 830 l 2,0,0
 202 863.02 202 863.02 208.17 895.705 c 0,0,0
 214.34 928.39 214.34 928.39 219.68 961.07 c 0,0,0
 225.01 991.39 225.01 991.39 229.84 1021.705 c 0,0,0
 234.67 1052.02 234.67 1052.02 238.67 1082 c 1,0,0
 441.01 1082 l 1,0,0
 415.66 912.01 l 1,0,0
 407.66 861 l 1,0,0
 411.66 861 l 1,0,0
 479.97 994.33 479.97 994.33 546.28 1048.165 c 0,0,0
 612.59 1102 612.59 1102 699.23 1102 c 0,0,0
 743.56 1102 743.56 1102 796.87 1088 c 1,0,0
 759.58 909.95 l 1,0,0
EndSplineSet
EndChar

StartChar: s
Encoding: 115 115 86
Width: 1061
GlyphClass: 2
Flags: W
LayerCount: 2
Fore
SplineSet
937.69 322.61 m 0,0,0
 937.69 156.65 937.69 156.65 812.205 68.325 c 0,0,0
 686.72 -20 686.72 -20 448.76 -20 c 0,0,0
 265.85 -20 265.85 -20 158.895 42.625 c 0,0,0
 51.94 105.25 51.94 105.25 10.94 238.84 c 1,0,0
 192.26 288.24 l 1,0,0
 221.3 204.53 221.3 204.53 286.345 166.84 c 0,0,0
 351.39 129.15 351.39 129.15 466.08 129.15 c 0,0,0
 734.31 129.15 734.31 129.15 734.31 301.33 c 0,0,0
 734.31 359.7 734.31 359.7 686.61 397.41 c 0,0,0
 637.91 433.79 637.91 433.79 481.5 477.86 c 0,0,0
 355.47 515.58 355.47 515.58 287.85 554.91 c 0,0,0
 215.93 596.89 215.93 596.89 180.445 654.02 c 0,0,0
 144.96 711.15 144.96 711.15 144.96 787.76 c 0,0,0
 144.96 937.71 144.96 937.71 264.095 1018.355 c 0,0,0
 383.23 1099 383.23 1099 601.49 1099 c 0,0,0
 788.06 1099 788.06 1099 888.055 1033.19 c 0,0,0
 988.05 967.38 988.05 967.38 1010.71 833.11 c 1,0,0
 818.67 806.79 l 1,0,0
 798.32 882.49 798.32 882.49 741.28 916.17 c 0,0,0
 684.24 949.85 684.24 949.85 587.18 949.85 c 0,0,0
 470.11 949.85 470.11 949.85 408.725 913.485 c 0,0,0
 347.34 877.12 347.34 877.12 347.34 809.08 c 0,0,0
 347.34 770.05 347.34 770.05 368.01 743.695 c 0,0,0
 388.68 717.34 388.68 717.34 427.69 696.65 c 0,0,0
 466.37 675.96 466.37 675.96 608.37 634.92 c 0,0,0
 739.01 597.89 739.01 597.89 806.97 553.92 c 0,0,0
 871.64 512.59 871.64 512.59 904.665 455.765 c 0,0,0
 937.69 398.94 937.69 398.94 937.69 322.61 c 0,0,0
EndSplineSet
EndChar

StartChar: t
Encoding: 116 116 87
Width: 606
GlyphClass: 2
Flags: W
LayerCount: 2
Fore
SplineSet
308.33 -18.68 m 0,0,0
 210.46 -18.68 210.46 -18.68 155.525 34.795 c 0,0,0
 100.59 88.27 100.59 88.27 100.59 180.19 c 0,0,0
 100.59 241.46 100.59 241.46 115.92 319.1 c 2,0,0
 234 931.53 l 1,0,0
 101.41 931.53 l 1,0,0
 131.04 1082 l 1,0,0
 269.59 1082 l 1,0,0
 385.15 1327.96 l 1,0,0
 523.63 1327.96 l 1,0,0
 476.3 1082 l 1,0,0
 676.96 1082 l 1,0,0
 647.99 931.53 l 1,0,0
 446.34 931.53 l 1,0,0
 328.27 322.83 l 2,0,0
 316.6 263.49 316.6 263.49 316.6 229.81 c 0,0,0
 316.6 185.15 316.6 185.15 339.43 162.985 c 0,0,0
 362.26 140.82 362.26 140.82 405.61 140.82 c 0,0,0
 442.96 140.82 442.96 140.82 508.25 154.49 c 1,0,0
 484.96 5.32 l 1,0,0
 391.9 -18.68 391.9 -18.68 308.33 -18.68 c 0,0,0
EndSplineSet
EndChar

StartChar: u
Encoding: 117 117 88
Width: 1175
GlyphClass: 2
Flags: W
LayerCount: 2
Fore
SplineSet
753.28 185 m 1,0,0
 672.59 72.64 672.59 72.64 586.78 26.82 c 0,0,0
 500.97 -19 500.97 -19 385.64 -19 c 0,0,0
 236.32 -19 236.32 -19 160.995 54 c 0,0,0
 85.67 127 85.67 127 85.67 265 c 0,0,0
 85.67 285.35 85.67 285.35 88.5 312.495 c 0,0,0
 91.33 339.64 91.33 339.64 95.995 370.295 c 0,0,0
 100.66 400.95 100.66 400.95 106.67 429 c 2,0,0
 233.67 1082 l 1,0,0
 447.01 1082 l 1,0,0
 323.65 453.5 l 2,0,0
 303.01 353.29 303.01 353.29 303.01 298.55 c 0,0,0
 303.01 144.09 303.01 144.09 473.1 144.09 c 0,0,0
 551.82 144.09 551.82 144.09 620.02 185.445 c 0,0,0
 688.22 226.8 688.22 226.8 737.075 301.685 c 0,0,0
 785.93 376.57 785.93 376.57 804.95 476 c 2,0,0
 922.95 1082 l 1,0,0
 1136.61 1082 l 1,0,0
 970.61 231 l 2,0,0
 961.27 186.31 961.27 186.31 951.77 128.475 c 0,0,0
 942.27 70.64 942.27 70.64 931.94 0 c 1,0,0
 729.6 0 l 1,0,0
 729.6 7.34 729.6 7.34 734.435 42.825 c 0,0,0
 739.27 78.31 739.27 78.31 745.94 119.805 c 0,0,0
 752.61 161.3 752.61 161.3 756.28 185 c 1,0,0
 753.28 185 l 1,0,0
EndSplineSet
EndChar

StartChar: v
Encoding: 118 118 89
Width: 1061
GlyphClass: 2
Flags: W
LayerCount: 2
Fore
SplineSet
1158.3 1082 m 1,0,0
 544.95 0 l 1,0,0
 291.36 0 l 1,0,0
 111.34 1082 l 1,0,0
 332 1082 l 1,0,0
 423.1 410.67 l 2,0,0
 425.77 390.98 425.77 390.98 428.935 359.18 c 0,0,0
 432.1 327.38 432.1 327.38 435.765 290.42 c 0,0,0
 439.43 253.46 439.43 253.46 442.1 215.45 c 2,0,0
 445.77 163.11 l 1,0,0
 470.45 214.79 l 2,0,0
 494.11 265.42 494.11 265.42 517.77 313.725 c 0,0,0
 541.43 362.03 541.43 362.03 565.76 408.34 c 2,0,0
 927.32 1082 l 1,0,0
 1158.3 1082 l 1,0,0
EndSplineSet
EndChar

StartChar: w
Encoding: 119 119 90
Width: 1516
GlyphClass: 2
Flags: W
LayerCount: 2
Fore
SplineSet
763.65 755.15 m 2,0,0
 422.79 0 l 1,0,0
 185.42 0 l 1,0,0
 101.01 1082 l 1,0,0
 305.41 1082 l 1,0,0
 336.83 359.87 l 2,0,0
 338.5 316.15 338.5 316.15 339.675 272.26 c 0,0,0
 340.85 228.37 340.85 228.37 341.52 183.98 c 1,0,0
 361.52 231.31 361.52 231.31 381.36 279.31 c 0,0,0
 401.2 327.31 401.2 327.31 421.86 374.31 c 2,0,0
 747.35 1082 l 1,0,0
 975.99 1082 l 1,0,0
 1019.33 374.31 l 2,0,0
 1022.33 322.29 1022.33 322.29 1023.5 274.79 c 0,0,0
 1024.67 227.29 1024.67 227.29 1025 183.98 c 1,0,0
 1034.31 204.92 1034.31 204.92 1051.665 245.96 c 0,0,0
 1095.42 346.8 l 2,0,0
 1420.59 1082 l 1,0,0
 1626.29 1082 l 1,0,0
 1113.87 0 l 1,0,0
 875.83 0 l 1,0,0
 836.85 685.46 l 1,0,0
 831.18 919.48 l 1,0,0
 812.55 871.26 812.55 871.26 795.585 830.01 c 0,0,0
 778.62 788.76 778.62 788.76 763.65 755.15 c 2,0,0
EndSplineSet
EndChar

StartChar: x
Encoding: 120 120 91
Width: 1061
GlyphClass: 2
Flags: W
LayerCount: 2
Fore
SplineSet
510.53 423.87 m 1,0,0
 148.02 0 l 1,0,0
 -84.64 0 l 1,0,0
 412.64 557.98 l 1,0,0
 143.69 1082 l 1,0,0
 366.68 1082 l 1,0,0
 553.08 685.42 l 1,0,0
 885.26 1082 l 1,0,0
 1124.92 1082 l 1,0,0
 651.3 557.67 l 1,0,0
 936.59 0 l 1,0,0
 711.94 0 l 1,0,0
 510.53 423.87 l 1,0,0
EndSplineSet
EndChar

StartChar: y
Encoding: 121 121 92
Width: 1061
GlyphClass: 2
Flags: W
LayerCount: 2
Fore
SplineSet
39.76 -425 m 0,0,0
 -38.82 -425 -38.82 -425 -105.77 -409.68 c 1,0,0
 -72.46 -255.22 l 1,0,0
 -26.77 -263.55 -26.77 -263.55 7.84 -263.55 c 0,0,0
 97.23 -263.55 97.23 -263.55 165.44 -205.49 c 0,0,0
 233.65 -147.43 233.65 -147.43 300.02 -31.37 c 2,0,0
 327.35 15.96 l 1,0,0
 112 1082 l 1,0,0
 330.64 1082 l 1,0,0
 429.11 517.33 l 2,0,0
 435.79 480.63 435.79 480.63 442.46 434.645 c 0,0,0
 449.13 388.66 449.13 388.66 454.965 343.53 c 0,0,0
 460.8 298.4 460.8 298.4 464.8 263.605 c 0,0,0
 468.8 228.81 468.8 228.81 468.8 214.15 c 1,0,0
 473.8 224.82 473.8 224.82 479.475 236.835 c 0,0,0
 491.83 262.54 l 2,0,0
 619.44 509.98 l 1,0,0
 926.68 1082 l 1,0,0
 1159.01 1082 l 1,0,0
 523.77 -18.81 l 1,0,0
 413.09 -205.23 413.09 -205.23 347.09 -277.26 c 0,0,0
 280.09 -351.96 280.09 -351.96 206.09 -388.48 c 0,0,0
 132.09 -425 132.09 -425 39.76 -425 c 0,0,0
EndSplineSet
EndChar

StartChar: z
Encoding: 122 122 93
Width: 1024
GlyphClass: 2
Flags: W
LayerCount: 2
Fore
SplineSet
863.21 160.78 m 1,0,0
 833.26 0 l 1,0,0
 -11.34 0 l 1,0,0
 16.61 157.46 l 1,0,0
 716.04 921.88 l 1,0,0
 191.62 921.88 l 1,0,0
 221.57 1082 l 1,0,0
 1000.62 1082 l 1,0,0
 971.67 923.88 l 1,0,0
 273.23 160.78 l 1,0,0
 863.21 160.78 l 1,0,0
EndSplineSet
EndChar

StartChar: braceleft
Encoding: 123 123 94
Width: 721
GlyphClass: 2
Flags: W
LayerCount: 2
Fore
SplineSet
373.26 -425 m 2,0,0
 259.62 -425 259.62 -425 193.13 -360.48 c 0,0,0
 126.64 -295.96 126.64 -295.96 126.64 -183.91 c 0,0,0
 126.64 -127.5 126.64 -127.5 136.97 -72.19 c 2,0,0
 194.62 221.74 l 2,0,0
 202.96 261.78 202.96 261.78 202.96 295.77 c 0,0,0
 202.96 376.79 202.96 376.79 155.965 414.28 c 0,0,0
 108.97 451.77 108.97 451.77 20.34 455.11 c 1,0,0
 49.63 603.56 l 1,0,0
 270.58 609.57 270.58 609.57 314.92 836.59 c 2,0,0
 383.93 1190.67 l 2,0,0
 412.26 1334.66 412.26 1334.66 490.4 1409.33 c 0,0,0
 568.54 1484 568.54 1484 714.5 1484 c 2,0,0
 868.97 1484 l 1,0,0
 840.01 1334.87 l 1,0,0
 772.72 1334.87 l 2,0,0
 686.03 1334.87 686.03 1334.87 639.345 1288.035 c 0,0,0
 592.66 1241.2 592.66 1241.2 569.32 1123.17 c 2,0,0
 503.29 782.35 l 2,0,0
 484.29 687.68 484.29 687.68 417.305 620.51 c 0,0,0
 350.32 553.34 350.32 553.34 256 532 c 1,0,0
 255.67 529.34 l 1,0,0
 326.32 511.68 326.32 511.68 368.14 461.515 c 0,0,0
 409.96 411.35 409.96 411.35 409.96 334.34 c 0,0,0
 409.96 307.34 409.96 307.34 404.29 277.65 c 2,0,0
 341.97 -46.3 l 2,0,0
 337.3 -69.31 337.3 -69.31 333.795 -104.39 c 0,0,0
 330.29 -139.47 330.29 -139.47 330.29 -157.14 c 0,0,0
 330.29 -212.15 330.29 -212.15 364.295 -243.845 c 0,0,0
 398.3 -275.54 398.3 -275.54 468.37 -275.54 c 2,0,0
 526.93 -275.54 l 1,0,0
 497.97 -425 l 1,0,0
 373.26 -425 l 2,0,0
EndSplineSet
EndChar

StartChar: bar
Encoding: 124 124 95
Width: 545
GlyphClass: 2
Flags: W
LayerCount: 2
Fore
SplineSet
403.42 1484 m 1,0,0
 403.42 -444.43 l 1,0,0
 205.74 -444.43 l 1,0,0
 205.74 1484 l 1,0,0
 403.42 1484 l 1,0,0
EndSplineSet
EndChar

StartChar: braceright
Encoding: 125 125 96
Width: 721
GlyphClass: 2
Flags: W
LayerCount: 2
Fore
SplineSet
338.03 1484.33 m 2,0,0
 451.67 1484.33 451.67 1484.33 518.16 1419.81 c 0,0,0
 584.65 1355.29 584.65 1355.29 584.65 1243.24 c 0,0,0
 584.65 1186.17 584.65 1186.17 574.32 1131.52 c 2,0,0
 516.67 837.59 l 2,0,0
 508.33 798.55 508.33 798.55 508.33 763.56 c 0,0,0
 508.33 682.54 508.33 682.54 554.83 645.05 c 0,0,0
 601.33 607.56 601.33 607.56 690.95 604.22 c 1,0,0
 661.66 455.77 l 1,0,0
 440.71 449.76 440.71 449.76 396.37 222.41 c 2,0,0
 327.36 -131.34 l 2,0,0
 298.37 -277.31 298.37 -277.31 219.9 -351.155 c 0,0,0
 141.43 -425 141.43 -425 -3.21 -425 c 2,0,0
 -157.68 -425 l 1,0,0
 -128.72 -275.87 l 1,0,0
 -61.43 -275.87 l 2,0,0
 25.26 -275.87 25.26 -275.87 71.945 -229.035 c 0,0,0
 118.63 -182.2 118.63 -182.2 141.97 -64.17 c 2,0,0
 208 276.65 l 2,0,0
 227 371.65 227 371.65 293.985 438.82 c 0,0,0
 360.97 505.99 360.97 505.99 455.29 527.33 c 1,0,0
 455.62 529.66 l 1,0,0
 384.64 547.32 384.64 547.32 342.985 597.815 c 0,0,0
 301.33 648.31 301.33 648.31 301.33 724.99 c 0,0,0
 301.33 752.66 301.33 752.66 307 781.68 c 2,0,0
 369.32 1105.3 l 2,0,0
 374.32 1128.97 374.32 1128.97 377.66 1164.72 c 0,0,0
 381 1200.47 381 1200.47 381 1216.47 c 0,0,0
 381 1271.48 381 1271.48 346.995 1303.175 c 0,0,0
 312.99 1334.87 312.99 1334.87 242.92 1334.87 c 2,0,0
 184.36 1334.87 l 1,0,0
 213.32 1484.33 l 1,0,0
 338.03 1484.33 l 2,0,0
EndSplineSet
EndChar

StartChar: asciitilde
Encoding: 126 126 97
Width: 1196
GlyphClass: 2
Flags: W
LayerCount: 2
Fore
SplineSet
878.95 540.79 m 0,0,0
 807.97 540.79 807.97 540.79 735.47 562.46 c 0,0,0
 662.97 584.13 662.97 584.13 589.31 610.13 c 0,0,0
 458 655.79 458 655.79 370.99 655.79 c 0,0,0
 302.67 655.79 302.67 655.79 244.175 634.96 c 0,0,0
 185.68 614.13 185.68 614.13 120.68 567.79 c 1,0,0
 120.68 733.89 l 1,0,0
 232.34 817.89 232.34 817.89 386.32 817.89 c 0,0,0
 446.89 817.89 446.89 817.89 511.33 802.925 c 0,0,0
 575.77 787.96 575.77 787.96 645.08 763.97 c 0,0,0
 725.59 736.24 725.59 736.24 771.295 722.725 c 0,0,0
 817 709.21 817 709.21 844.14 705.05 c 0,0,0
 871.28 700.89 871.28 700.89 895.94 700.89 c 0,0,0
 1026.26 700.89 1026.26 700.89 1141.26 792.89 c 1,0,0
 1141.26 620.79 l 1,0,0
 1079.94 578.13 1079.94 578.13 1022.11 559.46 c 0,0,0
 964.28 540.79 964.28 540.79 878.95 540.79 c 0,0,0
EndSplineSet
EndChar

StartChar: exclamdown
Encoding: 161 161 99
Width: 682
GlyphClass: 2
Flags: W
LayerCount: 2
Fore
SplineSet
553.16 1082.67 m 1,0,0
 508.87 858.9 l 1,0,0
 283.85 858.9 l 1,0,0
 328.14 1082.67 l 1,0,0
 553.16 1082.67 l 1,0,0
270.14 675.44 m 1,0,0
 445.2 675.44 l 1,0,0
 277.82 -326.33 l 1,0,0
 49.48 -326.33 l 1,0,0
 270.14 675.44 l 1,0,0
EndSplineSet
EndChar

StartChar: cent
Encoding: 162 162 100
Width: 1139
GlyphClass: 2
Flags: W
LayerCount: 2
Fore
SplineSet
556.37 294.5 m 0,0,0
 652.77 294.5 652.77 294.5 718.83 350.35 c 0,0,0
 784.89 406.2 784.89 406.2 823.59 517.24 c 1,0,0
 1017.54 467.91 l 1,0,0
 961.52 308.96 961.52 308.96 853.725 226.975 c 0,0,0
 745.93 144.99 745.93 144.99 586.68 136 c 1,0,0
 554.68 -31 l 1,0,0
 418.14 -31 l 1,0,0
 451.48 142.33 l 1,0,0
 297.2 165.65 297.2 165.65 214.07 272.645 c 0,0,0
 130.94 379.64 130.94 379.64 130.94 553.97 c 0,0,0
 130.94 669.35 130.94 669.35 156.31 773.17 c 0,0,0
 177.62 861.38 177.62 861.38 210.57 936.31 c 0,0,0
 243.52 1011.24 243.52 1011.24 288.11 1067.2 c 0,0,0
 354.43 1154.6 354.43 1154.6 447.265 1202.47 c 0,0,0
 540.1 1250.34 540.1 1250.34 668.15 1256.34 c 1,0,0
 697.14 1409 l 1,0,0
 833.68 1409 l 1,0,0
 803.69 1250.01 l 1,0,0
 938.32 1229.69 938.32 1229.69 1015.615 1144.06 c 0,0,0
 1092.91 1058.43 1092.91 1058.43 1101.9 925.48 c 1,0,0
 889.59 901.14 l 1,0,0
 883.92 997.48 883.92 997.48 833.88 1048.495 c 0,0,0
 783.84 1099.51 783.84 1099.51 697.13 1099.51 c 0,0,0
 576.73 1099.51 576.73 1099.51 505.34 1030.53 c 0,0,0
 461.95 988.85 461.95 988.85 428.755 914.965 c 0,0,0
 395.56 841.08 395.56 841.08 374.57 748.09 c 0,0,0
 362.91 694.44 362.91 694.44 357.24 644.235 c 0,0,0
 351.57 594.03 351.57 594.03 351.57 550.61 c 0,0,0
 351.57 294.5 351.57 294.5 556.37 294.5 c 0,0,0
EndSplineSet
EndChar

StartChar: sterling
Encoding: 163 163 101
Width: 1139
GlyphClass: 2
Flags: W
LayerCount: 2
Fore
SplineSet
976.33 0 m 1,0,0
 -24.87 0 l 1,0,0
 7.43 170.83 l 1,0,0
 103.44 214.19 103.44 214.19 161.445 288.73 c 0,0,0
 219.45 363.27 219.45 363.27 242.46 481 c 2,0,0
 269.47 618.07 l 1,0,0
 83.14 618.07 l 1,0,0
 110.45 760.6 l 1,0,0
 293.81 760.6 l 1,0,0
 347.49 1034 l 2,0,0
 387.16 1239.66 387.16 1239.66 498.835 1334.83 c 0,0,0
 610.51 1430 610.51 1430 801.48 1430 c 0,0,0
 958.72 1430 958.72 1430 1057.19 1361.89 c 0,0,0
 1155.66 1293.78 1155.66 1293.78 1176.68 1176.9 c 1,0,0
 985.95 1127.56 l 1,0,0
 967.6 1198.16 967.6 1198.16 916.385 1232.985 c 0,0,0
 865.17 1267.81 865.17 1267.81 792.83 1267.81 c 0,0,0
 690.71 1267.81 690.71 1267.81 634.305 1214.105 c 0,0,0
 577.9 1160.4 577.9 1160.4 555.22 1042 c 2,0,0
 500.21 760.6 l 1,0,0
 867.95 760.6 l 1,0,0
 840.31 618.07 l 1,0,0
 472.57 618.07 l 1,0,0
 445.57 478 l 2,0,0
 425.24 371.62 425.24 371.62 364.225 291.89 c 0,0,0
 303.21 212.16 303.21 212.16 212.23 171.81 c 1,0,0
 1008.3 171.81 l 1,0,0
 976.33 0 l 1,0,0
EndSplineSet
EndChar

StartChar: currency
Encoding: 164 164 102
Width: 1139
GlyphClass: 2
Flags: W
LayerCount: 2
Fore
SplineSet
159.72 684 m 0,0,0
 159.72 816.39 159.72 816.39 231.78 925.77 c 1,0,0
 120.89 1036.66 l 1,0,0
 242.38 1157.15 l 1,0,0
 351.94 1045.59 l 1,0,0
 460.98 1120 460.98 1120 594.72 1120 c 0,0,0
 725.77 1120 725.77 1120 835.16 1046.93 c 1,0,0
 944.7 1156.47 l 1,0,0
 1066.52 1033.98 l 1,0,0
 957.32 925.11 l 1,0,0
 1030.72 813.38 1030.72 813.38 1030.72 684 c 0,0,0
 1030.72 551.6 1030.72 551.6 956.64 443.55 c 1,0,0
 1067.86 332.66 l 1,0,0
 947.38 209.51 l 1,0,0
 835.82 321.73 l 1,0,0
 726.11 250 726.11 250 594.72 250 c 0,0,0
 459.32 250 459.32 250 353.28 322.41 c 1,0,0
 238.38 206.85 l 1,0,0
 118.23 329.34 l 1,0,0
 231.12 442.89 l 1,0,0
 159.72 551.61 159.72 551.61 159.72 684 c 0,0,0
337.48 686 m 0,0,0
 337.48 616.27 337.48 616.27 372.18 558.05 c 0,0,0
 406.88 499.83 406.88 499.83 465.1 464.63 c 0,0,0
 523.32 429.43 523.32 429.43 594.72 429.43 c 0,0,0
 664.45 429.43 664.45 429.43 722.505 463.96 c 0,0,0
 780.56 498.49 780.56 498.49 815.76 556.875 c 0,0,0
 850.96 615.26 850.96 615.26 850.96 686 c 0,0,0
 850.96 757.4 850.96 757.4 816.26 815.455 c 0,0,0
 781.56 873.51 781.56 873.51 723.505 908.375 c 0,0,0
 665.45 943.24 665.45 943.24 594.72 943.24 c 0,0,0
 523.65 943.24 523.65 943.24 465.43 908.205 c 0,0,0
 407.21 873.17 407.21 873.17 372.345 814.615 c 0,0,0
 337.48 756.06 337.48 756.06 337.48 686 c 0,0,0
EndSplineSet
EndChar

StartChar: yen
Encoding: 165 165 103
Width: 1139
GlyphClass: 2
Flags: W
LayerCount: 2
Fore
SplineSet
618.19 280.89 m 1,0,0
 563.48 0 l 1,0,0
 354.46 0 l 1,0,0
 409.17 280.89 l 1,0,0
 43.02 280.89 l 1,0,0
 69.01 414.49 l 1,0,0
 435.49 414.49 l 1,0,0
 467.49 571.13 l 1,0,0
 99.67 571.13 l 1,0,0
 124.99 703.06 l 1,0,0
 430.47 703.06 l 1,0,0
 165.6 1409 l 1,0,0
 388.63 1409 l 1,0,0
 604.27 778.83 l 1,0,0
 1067.97 1409 l 1,0,0
 1302.34 1409 l 1,0,0
 762.16 703.06 l 1,0,0
 1068.31 703.06 l 1,0,0
 1042.99 571.13 l 1,0,0
 674.84 571.13 l 1,0,0
 644.18 414.49 l 1,0,0
 1012.33 414.49 l 1,0,0
 986.34 280.89 l 1,0,0
 618.19 280.89 l 1,0,0
EndSplineSet
EndChar

StartChar: brokenbar
Encoding: 166 166 104
Width: 545
GlyphClass: 2
Flags: W
LayerCount: 2
Fore
SplineSet
403.75 1484.67 m 1,0,0
 403.75 716.57 l 1,0,0
 206.07 716.57 l 1,0,0
 206.07 1484.67 l 1,0,0
 403.75 1484.67 l 1,0,0
403.75 324 m 1,0,0
 403.75 -445.1 l 1,0,0
 206.07 -445.1 l 1,0,0
 206.07 324 l 1,0,0
 403.75 324 l 1,0,0
EndSplineSet
EndChar

StartChar: section
Encoding: 167 167 105
Width: 1139
GlyphClass: 2
Flags: W
LayerCount: 2
Fore
SplineSet
1032.77 671.35 m 0,0,0
 1032.77 559.35 1032.77 559.35 967.735 487.69 c 0,0,0
 902.7 416.03 902.7 416.03 767.02 381.4 c 1,0,0
 899.02 302.04 899.02 302.04 899.02 157.41 c 0,0,0
 899.02 -11.19 899.02 -11.19 770.235 -101 c 0,0,0
 641.45 -190.81 641.45 -190.81 396.86 -190.81 c 0,0,0
 209.69 -190.81 209.69 -190.81 103.06 -128.68 c 0,0,0
 -3.57 -66.55 -3.57 -66.55 -36.64 67.04 c 1,0,0
 142.37 116.77 l 1,0,0
 169.1 30.42 169.1 30.42 234.805 -8.26 c 0,0,0
 300.51 -46.94 300.51 -46.94 413.88 -46.94 c 0,0,0
 554.57 -46.94 554.57 -46.94 627.58 -1.245 c 0,0,0
 700.59 44.45 700.59 44.45 700.59 131.18 c 0,0,0
 700.59 168.46 700.59 168.46 683.295 196.445 c 0,0,0
 666 224.43 666 224.43 633.07 246.1 c 0,0,0
 583.72 281.17 583.72 281.17 423.37 326.55 c 0,0,0
 99.69 416.98 99.69 416.98 99.69 643.96 c 0,0,0
 99.69 862.34 99.69 862.34 374.04 925.32 c 1,0,0
 236.41 1009.01 236.41 1009.01 236.41 1154.94 c 0,0,0
 236.41 1306.54 236.41 1306.54 355.39 1385.865 c 0,0,0
 474.37 1465.19 474.37 1465.19 702.59 1465.19 c 0,0,0
 885.82 1465.19 885.82 1465.19 987.28 1399.545 c 0,0,0
 1088.74 1333.9 1088.74 1333.9 1105.79 1203.92 c 1,0,0
 916.06 1178.92 l 1,0,0
 898.7 1250.94 898.7 1250.94 841.025 1286.13 c 0,0,0
 783.35 1321.32 783.35 1321.32 690.97 1321.32 c 0,0,0
 434.83 1321.32 434.83 1321.32 434.83 1168.22 c 0,0,0
 434.83 1119.83 434.83 1119.83 479.59 1080.78 c 0,0,0
 506.91 1055.15 506.91 1055.15 560.235 1032.975 c 0,0,0
 613.56 1010.8 613.56 1010.8 693.86 987.12 c 0,0,0
 874.87 935.4 874.87 935.4 953.82 857.88 c 0,0,0
 1032.77 780.36 1032.77 780.36 1032.77 671.35 c 0,0,0
299.1 667.54 m 0,0,0
 299.1 622.86 299.1 622.86 325.44 587.33 c 0,0,0
 351.78 551.8 351.78 551.8 406.84 522.09 c 0,0,0
 460.57 493.05 460.57 493.05 566.5 463.38 c 1,0,0
 691.57 469.7 691.57 469.7 762.46 515.58 c 0,0,0
 833.35 561.46 833.35 561.46 833.35 640.88 c 0,0,0
 833.35 686.6 833.35 686.6 809.8 720.635 c 0,0,0
 786.25 754.67 786.25 754.67 741.16 780.7 c 0,0,0
 687.5 812 687.5 812 545.54 851.02 c 1,0,0
 433.16 845.02 433.16 845.02 366.13 795.97 c 0,0,0
 299.1 746.92 299.1 746.92 299.1 667.54 c 0,0,0
EndSplineSet
EndChar

StartChar: dieresis
Encoding: 168 168 106
Width: 682
GlyphClass: 2
Flags: W
LayerCount: 2
Fore
SplineSet
761.67 1407.95 m 1,0,0
 724.03 1212.4 l 1,0,0
 536.51 1212.4 l 1,0,0
 574.15 1407.95 l 1,0,0
 761.67 1407.95 l 1,0,0
361.52 1407.95 m 1,0,0
 323.88 1212.4 l 1,0,0
 136.34 1212.4 l 1,0,0
 173.65 1407.95 l 1,0,0
 361.52 1407.95 l 1,0,0
EndSplineSet
EndChar

StartChar: copyright
Encoding: 169 169 107
Width: 1509
GlyphClass: 2
Flags: W
LayerCount: 2
Fore
SplineSet
1508.67 707 m 0,0,0
 1508.67 514 1508.67 514 1412.67 346 c 0,0,0
 1315.67 177 1315.67 177 1147.17 80.5 c 0,0,0
 978.67 -16 978.67 -16 785.67 -16 c 0,0,0
 589.67 -16 589.67 -16 419.67 85 c 0,0,0
 250.67 186 250.67 186 156.67 352 c 0,0,0
 62.67 518 62.67 518 62.67 707 c 0,0,0
 62.67 901 62.67 901 159.67 1068 c 0,0,0
 256.67 1236 256.67 1236 424.67 1333 c 0,0,0
 592.67 1430 592.67 1430 785.67 1430 c 0,0,0
 979.67 1430 979.67 1430 1148.67 1333 c 0,0,0
 1316.67 1236 1316.67 1236 1412.67 1068.5 c 0,0,0
 1508.67 901 1508.67 901 1508.67 707 c 0,0,0
1410.07 707 m 0,0,0
 1410.07 874.35 1410.07 874.35 1326.73 1017.7 c 0,0,0
 1242.72 1161.72 1242.72 1161.72 1097.705 1245.06 c 0,0,0
 952.69 1328.4 952.69 1328.4 785.67 1328.4 c 0,0,0
 621.3 1328.4 621.3 1328.4 477.28 1246.38 c 0,0,0
 333.26 1163.69 333.26 1163.69 248.765 1019.175 c 0,0,0
 164.27 874.66 164.27 874.66 164.27 707 c 0,0,0
 164.27 539.31 164.27 539.31 248.28 395.3 c 0,0,0
 331.29 250.62 331.29 250.62 474.805 167.28 c 0,0,0
 618.32 83.94 618.32 83.94 785.67 83.94 c 0,0,0
 954.36 83.94 954.36 83.94 1099.04 167.95 c 0,0,0
 1243.72 251.29 1243.72 251.29 1326.895 395.635 c 0,0,0
 1410.07 539.98 1410.07 539.98 1410.07 707 c 0,0,0
797.33 280.98 m 0,0,0
 607.68 280.98 607.68 280.98 503.185 393.32 c 0,0,0
 398.69 505.66 398.69 505.66 398.69 709 c 0,0,0
 398.69 912 398.69 912 499.35 1021.015 c 0,0,0
 600.01 1130.03 600.01 1130.03 789.67 1130.03 c 0,0,0
 1038.62 1130.03 1038.62 1130.03 1133.96 914.43 c 1,0,0
 1006.1 878.79 l 1,0,0
 976.08 945.15 976.08 945.15 921.215 979.15 c 0,0,0
 866.35 1013.15 866.35 1013.15 792.66 1013.15 c 0,0,0
 671.6 1013.15 671.6 1013.15 608.06 936.115 c 0,0,0
 544.52 859.08 544.52 859.08 544.52 709 c 0,0,0
 544.52 560.6 544.52 560.6 611.56 478.895 c 0,0,0
 678.6 397.19 678.6 397.19 797.33 397.19 c 0,0,0
 947.39 397.19 947.39 397.19 1018.12 548.9 c 1,0,0
 1147.97 509.94 l 1,0,0
 1087.29 387.62 1087.29 387.62 1001.965 334.3 c 0,0,0
 916.64 280.98 916.64 280.98 797.33 280.98 c 0,0,0
EndSplineSet
EndChar

StartChar: ordfeminine
Encoding: 170 170 108
Width: 758
GlyphClass: 2
Flags: W
LayerCount: 2
Fore
SplineSet
708.48 670.2 m 0,0,0
 642.48 670.2 642.48 670.2 606.98 698.545 c 0,0,0
 571.48 726.89 571.48 726.89 571.48 774.9 c 1,0,0
 575.15 815.23 l 1,0,0
 571.48 815.23 l 1,0,0
 508.78 729.57 508.78 729.57 447.74 696.555 c 0,0,0
 386.7 663.54 386.7 663.54 308.69 663.54 c 0,0,0
 211.65 663.54 211.65 663.54 152.8 718.88 c 0,0,0
 93.95 774.22 93.95 774.22 93.95 866.58 c 0,0,0
 93.95 988.94 93.95 988.94 182.31 1051.945 c 0,0,0
 270.67 1114.95 270.67 1114.95 454.32 1117.28 c 2,0,0
 614.84 1120.62 l 1,0,0
 631.52 1204.02 631.52 1204.02 631.52 1225.04 c 0,0,0
 631.52 1320.44 631.52 1320.44 519.37 1320.44 c 0,0,0
 448.65 1320.44 448.65 1320.44 407.93 1290.405 c 0,0,0
 367.21 1260.37 367.21 1260.37 352.53 1199.96 c 1,0,0
 207.66 1217.62 l 1,0,0
 233.69 1320.36 233.69 1320.36 311.375 1373.87 c 0,0,0
 389.06 1427.38 389.06 1427.38 521.7 1427.38 c 0,0,0
 651.34 1427.38 651.34 1427.38 718.53 1376.19 c 0,0,0
 785.72 1325 785.72 1325 785.72 1231.02 c 0,0,0
 785.72 1212.68 785.72 1212.68 782.89 1191.845 c 0,0,0
 780.06 1171.01 780.06 1171.01 775.06 1148.67 c 2,0,0
 722.72 880.93 l 2,0,0
 720.38 866.25 720.38 866.25 719.045 853.745 c 0,0,0
 717.71 841.24 717.71 841.24 717.05 829.91 c 0,0,0
 717.05 778.87 717.05 778.87 766.37 778.87 c 0,0,0
 784.04 778.87 784.04 778.87 809.38 786.21 c 1,0,0
 796.03 682.87 l 1,0,0
 760.69 670.2 760.69 670.2 708.48 670.2 c 0,0,0
261.15 881.17 m 0,0,0
 261.15 832.85 261.15 832.85 288.995 806.335 c 0,0,0
 316.84 779.82 316.84 779.82 363.55 779.82 c 0,0,0
 415.3 779.82 415.3 779.82 461.205 805.355 c 0,0,0
 507.11 830.89 507.11 830.89 540.155 874.435 c 0,0,0
 573.2 917.98 573.2 917.98 584.53 971.01 c 2,0,0
 596.51 1025.65 l 1,0,0
 471.04 1022.31 l 2,0,0
 363.22 1019.64 363.22 1019.64 312.185 984.44 c 0,0,0
 261.15 949.24 261.15 949.24 261.15 881.17 c 0,0,0
EndSplineSet
EndChar

StartChar: guillemotleft
Encoding: 171 171 109
Width: 1139
GlyphClass: 2
Flags: W
LayerCount: 2
Fore
SplineSet
975.08 168.62 m 1,0,0
 970.08 140.34 l 1,0,0
 786.32 140.34 l 1,0,0
 544.07 504.02 l 1,0,0
 556.73 569.66 l 1,0,0
 938.02 939.34 l 1,0,0
 1122.75 939.34 l 1,0,0
 1116.75 901.02 l 1,0,0
 733.48 531 l 1,0,0
 975.08 168.62 l 1,0,0
503.68 167.95 m 1,0,0
 498.68 140.34 l 1,0,0
 315.59 140.34 l 1,0,0
 74.68 504.02 l 1,0,0
 87.34 569.66 l 1,0,0
 467.29 939.34 l 1,0,0
 651.35 939.34 l 1,0,0
 645.35 900.35 l 1,0,0
 264.09 530.33 l 1,0,0
 503.68 167.95 l 1,0,0
EndSplineSet
EndChar

StartChar: logicalnot
Encoding: 172 172 110
Width: 1196
GlyphClass: 2
Flags: W
LayerCount: 2
Fore
SplineSet
1097.31 766.87 m 1,0,0
 1097.31 167.13 l 1,0,0
 926.24 167.13 l 1,0,0
 926.24 595.13 l 1,0,0
 91.75 595.13 l 1,0,0
 91.75 766.87 l 1,0,0
 1097.31 766.87 l 1,0,0
EndSplineSet
EndChar

StartChar: registered
Encoding: 174 174 111
Width: 1509
GlyphClass: 2
Flags: W
LayerCount: 2
Fore
SplineSet
1508.67 707 m 0,0,0
 1508.67 514 1508.67 514 1412.67 346 c 0,0,0
 1315.67 177 1315.67 177 1147.17 80.5 c 0,0,0
 978.67 -16 978.67 -16 785.67 -16 c 0,0,0
 589.67 -16 589.67 -16 419.67 85 c 0,0,0
 250.67 186 250.67 186 156.67 352 c 0,0,0
 62.67 518 62.67 518 62.67 707 c 0,0,0
 62.67 901 62.67 901 159.67 1068 c 0,0,0
 256.67 1236 256.67 1236 424.67 1333 c 0,0,0
 592.67 1430 592.67 1430 785.67 1430 c 0,0,0
 979.67 1430 979.67 1430 1148.67 1333 c 0,0,0
 1316.67 1236 1316.67 1236 1412.67 1068.5 c 0,0,0
 1508.67 901 1508.67 901 1508.67 707 c 0,0,0
1410.07 707 m 0,0,0
 1410.07 874.35 1410.07 874.35 1326.73 1017.7 c 0,0,0
 1242.72 1161.72 1242.72 1161.72 1097.705 1245.06 c 0,0,0
 952.69 1328.4 952.69 1328.4 785.67 1328.4 c 0,0,0
 621.3 1328.4 621.3 1328.4 477.28 1246.38 c 0,0,0
 333.26 1163.69 333.26 1163.69 248.765 1019.175 c 0,0,0
 164.27 874.66 164.27 874.66 164.27 707 c 0,0,0
 164.27 539.31 164.27 539.31 248.28 395.3 c 0,0,0
 331.29 250.62 331.29 250.62 474.805 167.28 c 0,0,0
 618.32 83.94 618.32 83.94 785.67 83.94 c 0,0,0
 954.36 83.94 954.36 83.94 1099.04 167.95 c 0,0,0
 1243.72 251.29 1243.72 251.29 1326.895 395.635 c 0,0,0
 1410.07 539.98 1410.07 539.98 1410.07 707 c 0,0,0
637.23 620.05 m 1,0,0
 637.23 291.64 l 1,0,0
 493.4 291.64 l 1,0,0
 493.4 1117.36 l 1,0,0
 807.99 1117.36 l 2,0,0
 953.62 1117.36 953.62 1117.36 1029.285 1053.865 c 0,0,0
 1104.95 990.37 1104.95 990.37 1104.95 878.71 c 0,0,0
 1104.95 779.35 1104.95 779.35 1054.27 718.675 c 0,0,0
 1003.59 658 1003.59 658 920.9 637.02 c 1,0,0
 1139.26 291.64 l 1,0,0
 975.78 291.64 l 1,0,0
 783.71 620.05 l 1,0,0
 637.23 620.05 l 1,0,0
960.46 876.71 m 0,0,0
 960.46 941.75 960.46 941.75 916.26 975.77 c 0,0,0
 872.06 1009.79 872.06 1009.79 795.02 1009.79 c 2,0,0
 637.23 1009.79 l 1,0,0
 637.23 726.94 l 1,0,0
 806.69 726.94 l 2,0,0
 882.07 726.94 882.07 726.94 921.265 767.13 c 0,0,0
 960.46 807.32 960.46 807.32 960.46 876.71 c 0,0,0
EndSplineSet
EndChar

StartChar: macron
Encoding: 175 175 112
Width: 1131
GlyphClass: 2
Flags: W
LayerCount: 2
Fore
SplineSet
1148 1595.58 m 1,0,0
 1148 1486.17 l 1,0,0
 -17 1486.17 l 1,0,0
 -17 1595.58 l 1,0,0
 1148 1595.58 l 1,0,0
EndSplineSet
EndChar

StartChar: degree
Encoding: 176 176 113
Width: 819
GlyphClass: 2
Flags: W
LayerCount: 2
Fore
SplineSet
789.8 1133.45 m 0,0,0
 789.8 1051.81 789.8 1051.81 749.48 984.665 c 0,0,0
 709.16 917.52 709.16 917.52 641.685 878.035 c 0,0,0
 574.21 838.55 574.21 838.55 491.58 838.55 c 0,0,0
 410.28 838.55 410.28 838.55 342.47 878.54 c 0,0,0
 274.66 918.53 274.66 918.53 234.175 985.34 c 0,0,0
 193.69 1052.15 193.69 1052.15 193.69 1133.78 c 0,0,0
 193.69 1215.08 193.69 1215.08 233.675 1282.06 c 0,0,0
 273.66 1349.04 273.66 1349.04 341.3 1388.695 c 0,0,0
 408.94 1428.35 408.94 1428.35 491.58 1428.35 c 0,0,0
 574.88 1428.35 574.88 1428.35 642.355 1388.865 c 0,0,0
 709.83 1349.38 709.83 1349.38 749.815 1282.57 c 0,0,0
 789.8 1215.76 789.8 1215.76 789.8 1133.45 c 0,0,0
664.63 1133.45 m 0,0,0
 664.63 1207.47 664.63 1207.47 614.78 1258.15 c 0,0,0
 564.93 1308.83 564.93 1308.83 491.58 1308.83 c 0,0,0
 417.9 1308.83 417.9 1308.83 367.72 1257.315 c 0,0,0
 317.54 1205.8 317.54 1205.8 317.54 1133.45 c 0,0,0
 317.54 1061.1 317.54 1061.1 368.885 1009.255 c 0,0,0
 420.23 957.41 420.23 957.41 491.58 957.41 c 0,0,0
 563.27 957.41 563.27 957.41 613.95 1008.755 c 0,0,0
 664.63 1060.1 664.63 1060.1 664.63 1133.45 c 0,0,0
EndSplineSet
EndChar

StartChar: plusminus
Encoding: 177 177 114
Width: 1124
GlyphClass: 2
Flags: W
LayerCount: 2
Fore
SplineSet
661.08 688.91 m 1,0,0
 661.08 311.73 l 1,0,0
 488.67 311.73 l 1,0,0
 488.67 688.91 l 1,0,0
 72.26 688.91 l 1,0,0
 72.26 859.65 l 1,0,0
 488.67 859.65 l 1,0,0
 488.67 1235.83 l 1,0,0
 661.08 1235.83 l 1,0,0
 661.08 859.65 l 1,0,0
 1077.82 859.65 l 1,0,0
 1077.82 688.91 l 1,0,0
 661.08 688.91 l 1,0,0
1077.82 170.74 m 1,0,0
 1077.82 0 l 1,0,0
 72.26 0 l 1,0,0
 72.26 170.74 l 1,0,0
 1077.82 170.74 l 1,0,0
EndSplineSet
EndChar

StartChar: uni00B2
Encoding: 178 178 115
Width: 682
GlyphClass: 2
Flags: W
LayerCount: 2
Fore
SplineSet
43.53 606.89 m 1,0,0
 63.51 715.5 l 1,0,0
 92.18 761.84 92.18 761.84 132.51 802.18 c 0,0,0
 158.18 827.52 158.18 827.52 186.335 850.855 c 0,0,0
 214.49 874.19 214.49 874.19 255.505 901.205 c 0,0,0
 296.52 928.22 296.52 928.22 358.26 964.6 c 0,0,0
 465.86 1026.43 465.86 1026.43 503.53 1057.78 c 0,0,0
 544.86 1091.12 544.86 1091.12 564.87 1126.31 c 0,0,0
 584.88 1161.5 584.88 1161.5 584.88 1204.87 c 0,0,0
 584.88 1248.61 584.88 1248.61 554.84 1279.165 c 0,0,0
 524.8 1309.72 524.8 1309.72 469.7 1309.72 c 0,0,0
 408.28 1309.72 408.28 1309.72 365.375 1275.67 c 0,0,0
 322.47 1241.62 322.47 1241.62 308.8 1183.24 c 1,0,0
 171.59 1204.51 l 1,0,0
 201.25 1313.56 201.25 1313.56 277.955 1368.105 c 0,0,0
 354.66 1422.65 354.66 1422.65 479.67 1422.65 c 0,0,0
 597.35 1422.65 597.35 1422.65 667.035 1365.785 c 0,0,0
 736.72 1308.92 736.72 1308.92 736.72 1216.89 c 0,0,0
 736.72 1164.6 736.72 1164.6 717.08 1120.26 c 0,0,0
 699.45 1080.62 699.45 1080.62 669.995 1047.46 c 0,0,0
 640.54 1014.3 640.54 1014.3 602.59 985.29 c 0,0,0
 576.58 965.59 576.58 965.59 535.325 938.855 c 0,0,0
 494.07 912.12 494.07 912.12 436.9 879.35 c 0,0,0
 356.73 833.58 356.73 833.58 310.025 799.7 c 0,0,0
 263.32 765.82 263.32 765.82 238.64 729.79 c 1,0,0
 653.97 729.79 l 1,0,0
 632.32 606.89 l 1,0,0
 43.53 606.89 l 1,0,0
EndSplineSet
EndChar

StartChar: uni00B3
Encoding: 179 179 116
Width: 682
GlyphClass: 2
Flags: W
LayerCount: 2
Fore
SplineSet
334.97 1074.41 m 1,0,0
 392.96 1074.41 l 2,0,0
 478.41 1074.41 478.41 1074.41 525.79 1110.465 c 0,0,0
 573.17 1146.52 573.17 1146.52 573.17 1209.61 c 0,0,0
 573.17 1255.3 573.17 1255.3 544.13 1283.335 c 0,0,0
 515.09 1311.37 515.09 1311.37 463.37 1311.37 c 0,0,0
 402.96 1311.37 402.96 1311.37 361.06 1280.165 c 0,0,0
 319.16 1248.96 319.16 1248.96 302.14 1189.9 c 1,0,0
 164.6 1214.57 l 1,0,0
 195.96 1319.27 195.96 1319.27 272.325 1370.96 c 0,0,0
 348.69 1422.65 348.69 1422.65 476.67 1422.65 c 0,0,0
 589.98 1422.65 589.98 1422.65 658.66 1370.11 c 0,0,0
 727.34 1317.57 727.34 1317.57 727.34 1227.57 c 0,0,0
 727.34 1144.51 727.34 1144.51 674.16 1090.16 c 0,0,0
 620.98 1035.81 620.98 1035.81 520.89 1018.76 c 1,0,0
 520.56 1016.76 l 1,0,0
 590.59 1004.09 590.59 1004.09 633.61 959.56 c 0,0,0
 676.63 915.03 676.63 915.03 676.63 848.68 c 0,0,0
 676.63 734.28 676.63 734.28 588.95 665.245 c 0,0,0
 501.27 596.21 501.27 596.21 356.27 596.21 c 0,0,0
 100.22 596.21 100.22 596.21 67.19 818 c 1,0,0
 213.35 836.97 l 1,0,0
 222.02 772.56 222.02 772.56 261.415 739.52 c 0,0,0
 300.81 706.48 300.81 706.48 365.57 706.48 c 0,0,0
 438.37 706.48 438.37 706.48 480.92 745.04 c 0,0,0
 523.47 783.6 523.47 783.6 523.47 851.35 c 0,0,0
 523.47 901.72 523.47 901.72 484.915 930.76 c 0,0,0
 446.36 959.8 446.36 959.8 376.29 959.8 c 2,0,0
 312.98 959.8 l 1,0,0
 334.97 1074.41 l 1,0,0
EndSplineSet
EndChar

StartChar: acute
Encoding: 180 180 117
Width: 682
GlyphClass: 2
Flags: W
LayerCount: 2
Fore
SplineSet
687.22 1472.4 m 1,0,0
 312.56 1195.06 l 1,0,0
 201.4 1195.06 l 1,0,0
 205.39 1218.69 l 1,0,0
 456.41 1506.02 l 1,0,0
 693.21 1506.02 l 1,0,0
 687.22 1472.4 l 1,0,0
EndSplineSet
EndChar

StartChar: mu
Encoding: 181 181 118
Width: 1180
GlyphClass: 2
Flags: W
LayerCount: 2
Fore
SplineSet
270.49 -44.33 m 1,0,0
 196.82 -425 l 1,0,0
 -16.18 -425 l 1,0,0
 276.16 1082 l 1,0,0
 490.16 1082 l 1,0,0
 361.44 422.73 l 2,0,0
 356.44 391.72 356.44 391.72 353.275 365.07 c 0,0,0
 350.11 338.42 350.11 338.42 349.78 315.79 c 0,0,0
 349.78 143.42 349.78 143.42 499.57 143.42 c 0,0,0
 601.34 143.42 601.34 143.42 676.415 233.47 c 0,0,0
 751.49 323.52 751.49 323.52 778.83 482.56 c 2,0,0
 894.85 1082 l 1,0,0
 1108.18 1082 l 1,0,0
 954.48 291.5 l 2,0,0
 945.48 249.85 945.48 249.85 945.48 215.11 c 0,0,0
 945.48 144.1 945.48 144.1 1000.17 144.1 c 0,0,0
 1015.12 144.1 1015.12 144.1 1052.87 151.77 c 1,0,0
 1032.85 1.65 l 1,0,0
 948.95 -20 948.95 -20 888.4 -20 c 0,0,0
 814.47 -20 814.47 -20 780.66 16.855 c 0,0,0
 746.85 53.71 746.85 53.71 743.5 128.7 c 2,0,0
 743.49 167.35 l 1,0,0
 740.83 167.35 l 1,0,0
 684.09 75.66 684.09 75.66 614.675 27.83 c 0,0,0
 545.26 -20 545.26 -20 458.23 -20 c 0,0,0
 397.22 -20 397.22 -20 354.365 2.155 c 0,0,0
 311.51 24.31 311.51 24.31 291.15 62.63 c 1,0,0
 289.17 62.63 l 1,0,0
 270.49 -44.33 l 1,0,0
EndSplineSet
EndChar

StartChar: paragraph
Encoding: 182 182 119
Width: 1112
GlyphClass: 2
Flags: W
LayerCount: 2
Fore
SplineSet
620.65 1293.47 m 1,0,0
 620.65 -264 l 1,0,0
 493.79 -264 l 1,0,0
 493.79 694 l 1,0,0
 325.46 694 325.46 694 228.46 786.5 c 0,0,0
 131.46 879 131.46 879 131.46 1049 c 0,0,0
 131.46 1218 131.46 1218 229.96 1313.5 c 0,0,0
 328.46 1409 328.46 1409 501.79 1409 c 2,0,0
 1086.57 1409 l 1,0,0
 1086.57 1293.47 l 1,0,0
 956.91 1293.47 l 1,0,0
 956.91 -264 l 1,0,0
 830.39 -264 l 1,0,0
 830.39 1293.47 l 1,0,0
 620.65 1293.47 l 1,0,0
EndSplineSet
EndChar

StartChar: periodcentered
Encoding: 183 183 120
Width: 682
GlyphClass: 2
Flags: W
LayerCount: 2
Fore
SplineSet
484.41 722.1 m 1,0,0
 436.13 474.05 l 1,0,0
 210.44 474.05 l 1,0,0
 258.72 722.1 l 1,0,0
 484.41 722.1 l 1,0,0
EndSplineSet
EndChar

StartChar: cedilla
Encoding: 184 184 121
Width: 682
GlyphClass: 2
Flags: W
LayerCount: 2
Fore
SplineSet
339.12 -91.71 m 1,0,0
 416.49 -95.39 416.49 -95.39 457.98 -130.235 c 0,0,0
 499.47 -165.08 499.47 -165.08 499.47 -226.39 c 0,0,0
 499.47 -323.39 499.47 -323.39 421.165 -374.195 c 0,0,0
 342.86 -425 342.86 -425 182.61 -425 c 0,0,0
 157.61 -425 157.61 -425 131.11 -423.5 c 0,0,0
 104.61 -422 104.61 -422 76.61 -418.33 c 1,0,0
 100.25 -318.75 l 1,0,0
 145.28 -325.08 145.28 -325.08 186.27 -325.08 c 0,0,0
 273.97 -325.08 273.97 -325.08 311.305 -304.565 c 0,0,0
 348.64 -284.05 348.64 -284.05 348.64 -240.04 c 0,0,0
 348.64 -171.01 348.64 -171.01 232.61 -171.01 c 0,0,0
 213.58 -171.34 213.58 -171.34 199.575 -171.675 c 0,0,0
 185.57 -172.01 185.57 -172.01 176.26 -173.01 c 1,0,0
 276.27 0 l 1,0,0
 394.49 0 l 1,0,0
 339.12 -91.71 l 1,0,0
EndSplineSet
EndChar

StartChar: uni00B9
Encoding: 185 185 122
Width: 682
GlyphClass: 2
Flags: W
LayerCount: 2
Fore
SplineSet
644.27 717.52 m 1,0,0
 622.61 605.9 l 1,0,0
 73.21 605.9 l 1,0,0
 94.2 717.52 l 1,0,0
 296.29 717.52 l 1,0,0
 405.38 1279.99 l 1,0,0
 187.93 1151.89 l 1,0,0
 213.27 1279.92 l 1,0,0
 438.72 1410.32 l 1,0,0
 578.88 1410.32 l 1,0,0
 444.12 717.52 l 1,0,0
 644.27 717.52 l 1,0,0
EndSplineSet
EndChar

StartChar: ordmasculine
Encoding: 186 186 123
Width: 748
GlyphClass: 2
Flags: W
LayerCount: 2
Fore
SplineSet
404.98 663.54 m 0,0,0
 260.97 663.54 260.97 663.54 181.15 742.04 c 0,0,0
 101.33 820.54 101.33 820.54 101.33 959.9 c 0,0,0
 101.33 1022.56 101.33 1022.56 114.66 1086.91 c 0,0,0
 148.33 1253.02 148.33 1253.02 251.315 1340.2 c 0,0,0
 354.3 1427.38 354.3 1427.38 518.35 1427.38 c 0,0,0
 665.99 1427.38 665.99 1427.38 744.985 1350.53 c 0,0,0
 823.98 1273.68 823.98 1273.68 823.98 1135.97 c 0,0,0
 823.98 1074.96 823.98 1074.96 811.97 1014.57 c 0,0,0
 779.62 844.17 779.62 844.17 675.315 753.855 c 0,0,0
 571.01 663.54 571.01 663.54 404.98 663.54 c 0,0,0
509.04 1310.15 m 0,0,0
 421.31 1310.15 421.31 1310.15 369.61 1263.15 c 0,0,0
 336.91 1233.13 336.91 1233.13 313.88 1181.395 c 0,0,0
 290.85 1129.66 290.85 1129.66 278.995 1069.925 c 0,0,0
 267.14 1010.19 267.14 1010.19 267.14 954.17 c 0,0,0
 267.14 780.44 267.14 780.44 414.93 780.44 c 0,0,0
 464.26 780.44 464.26 780.44 497.965 792.94 c 0,0,0
 531.67 805.44 531.67 805.44 557.36 830.11 c 0,0,0
 589.74 861.13 589.74 861.13 612.605 916.68 c 0,0,0
 635.47 972.23 635.47 972.23 647.99 1034.295 c 0,0,0
 660.51 1096.36 660.51 1096.36 660.51 1145.42 c 0,0,0
 660.51 1232.49 660.51 1232.49 620.97 1271.32 c 0,0,0
 581.43 1310.15 581.43 1310.15 509.04 1310.15 c 0,0,0
EndSplineSet
EndChar

StartChar: guillemotright
Encoding: 187 187 124
Width: 1139
GlyphClass: 2
Flags: W
LayerCount: 2
Fore
SplineSet
1051.97 506 m 1,0,0
 671.35 140.34 l 1,0,0
 486.62 140.34 l 1,0,0
 493.29 180 l 1,0,0
 876.56 546.67 l 1,0,0
 637.64 912.4 l 1,0,0
 641.97 939.34 l 1,0,0
 823.05 939.34 l 1,0,0
 1064.63 571.64 l 1,0,0
 1051.97 506 l 1,0,0
580.57 506 m 1,0,0
 201.96 140.34 l 1,0,0
 15.89 140.34 l 1,0,0
 22.56 180 l 1,0,0
 405.83 546.67 l 1,0,0
 166.91 912.4 l 1,0,0
 171.24 939.34 l 1,0,0
 353.66 939.34 l 1,0,0
 593.23 571.64 l 1,0,0
 580.57 506 l 1,0,0
EndSplineSet
EndChar

StartChar: questiondown
Encoding: 191 191 128
Width: 1251
GlyphClass: 2
Flags: W
LayerCount: 2
Fore
SplineSet
907.91 1082.67 m 1,0,0
 864.62 858.9 l 1,0,0
 638.6 858.9 l 1,0,0
 681.89 1082.67 l 1,0,0
 907.91 1082.67 l 1,0,0
494.69 -347.33 m 0,0,0
 360.06 -347.33 360.06 -347.33 260.25 -302.82 c 0,0,0
 160.44 -258.31 160.44 -258.31 106.285 -177.805 c 0,0,0
 52.13 -97.3 52.13 -97.3 52.13 9.01 c 0,0,0
 52.13 88.85 52.13 88.85 75.7 148.11 c 0,0,0
 99.27 207.37 99.27 207.37 138.37 253.09 c 0,0,0
 168.06 291.71 168.06 291.71 205.73 323.83 c 0,0,0
 243.4 355.95 243.4 355.95 291.49 386.88 c 0,0,0
 339.58 417.81 339.58 417.81 400.7 451.69 c 1,0,0
 455.77 484.38 455.77 484.38 493.15 511.915 c 0,0,0
 530.53 539.45 530.53 539.45 553.58 562.5 c 0,0,0
 581.92 591.85 581.92 591.85 597.08 622.685 c 0,0,0
 612.24 653.52 612.24 653.52 618.58 689.5 c 1,0,0
 823.94 689.5 l 1,0,0
 809.94 609.82 809.94 609.82 776.93 552.15 c 0,0,0
 754.92 512.81 754.92 512.81 726.08 479.81 c 0,0,0
 697.24 446.81 697.24 446.81 647.89 410.64 c 0,0,0
 598.54 374.47 598.54 374.47 512.17 324.13 c 0,0,0
 454.56 290.51 454.56 290.51 414.085 262.535 c 0,0,0
 373.61 234.56 373.61 234.56 349.29 211.26 c 0,0,0
 309.56 172.89 309.56 172.89 290.185 129.83 c 0,0,0
 270.81 86.77 270.81 86.77 270.81 29.68 c 0,0,0
 270.81 -56.77 270.81 -56.77 335.56 -110.665 c 0,0,0
 400.31 -164.56 400.31 -164.56 511.36 -164.56 c 0,0,0
 642.45 -164.56 642.45 -164.56 726.52 -101.82 c 0,0,0
 810.59 -39.08 810.59 -39.08 844.63 74.67 c 1,0,0
 1042.96 34.67 l 1,0,0
 981.61 -159.01 981.61 -159.01 844.46 -253.17 c 0,0,0
 707.31 -347.33 707.31 -347.33 494.69 -347.33 c 0,0,0
EndSplineSet
EndChar

StartChar: AE
Encoding: 198 198 135
Width: 2048
GlyphClass: 2
Flags: W
LayerCount: 2
Fore
SplineSet
419.48 394.84 m 1,0,0
 152.69 0 l 1,0,0
 -86.28 0 l 1,0,0
 874.7 1409 l 1,0,0
 2077.56 1409 l 1,0,0
 2042.61 1229.57 l 1,0,0
 1316.15 1229.57 l 1,0,0
 1234.42 809.58 l 1,0,0
 1900.22 809.58 l 1,0,0
 1865.93 633.47 l 1,0,0
 1200.13 633.47 l 1,0,0
 1112.39 179.43 l 1,0,0
 1879.85 179.43 l 1,0,0
 1844.56 0 l 1,0,0
 854.42 0 l 1,0,0
 931.79 394.84 l 1,0,0
 419.48 394.84 l 1,0,0
533.66 567.93 m 1,0,0
 965.41 567.93 l 1,0,0
 1095.47 1238.9 l 1,0,0
 974.17 1238.9 l 1,0,0
 838.17 1025.21 l 1,0,0
 533.66 567.93 l 1,0,0
EndSplineSet
EndChar

StartChar: Eth
Encoding: 208 208 145
Width: 1479
GlyphClass: 2
Flags: W
LayerCount: 2
Fore
SplineSet
754.1 1409 m 2,0,0
 966.72 1409 966.72 1409 1117.875 1336.15 c 0,0,0
 1269.03 1263.3 1269.03 1263.3 1349.035 1126.62 c 0,0,0
 1429.04 989.94 1429.04 989.94 1429.04 796.28 c 0,0,0
 1429.04 562.62 1429.04 562.62 1330.71 382.63 c 0,0,0
 1231.71 203.64 1231.71 203.64 1042.035 101.82 c 0,0,0
 852.36 0 852.36 0 612.66 0 c 2,0,0
 54.09 0 l 1,0,0
 175.79 629.51 l 1,0,0
 30.37 629.51 l 1,0,0
 64.33 804.96 l 1,0,0
 210.08 804.96 l 1,0,0
 327.42 1409 l 1,0,0
 754.1 1409 l 2,0,0
313.36 177.75 m 1,0,0
 592.94 177.75 l 2,0,0
 777.06 177.75 777.06 177.75 917.14 252.78 c 0,0,0
 1057.56 326.81 1057.56 326.81 1132.77 466.865 c 0,0,0
 1207.98 606.92 1207.98 606.92 1207.98 793.33 c 0,0,0
 1207.98 1002.43 1207.98 1002.43 1088.745 1116.84 c 0,0,0
 969.51 1231.25 969.51 1231.25 752.08 1231.25 c 2,0,0
 518.46 1231.25 l 1,0,0
 435.07 804.96 l 1,0,0
 824.9 804.96 l 1,0,0
 790.28 629.51 l 1,0,0
 401.11 629.51 l 1,0,0
 313.36 177.75 l 1,0,0
EndSplineSet
EndChar

StartChar: multiply
Encoding: 215 215 152
Width: 1196
GlyphClass: 2
Flags: W
LayerCount: 2
Fore
SplineSet
633.3 562.18 m 1,0,0
 277.3 206.19 l 1,0,0
 156.82 328.68 l 1,0,0
 511.48 684 l 1,0,0
 159.48 1036 l 1,0,0
 281.3 1156.49 l 1,0,0
 631.96 804.48 l 1,0,0
 982.62 1155.81 l 1,0,0
 1105.11 1033.32 l 1,0,0
 754.45 683.34 l 1,0,0
 1106.45 332 l 1,0,0
 985.97 208.85 l 1,0,0
 633.3 562.18 l 1,0,0
EndSplineSet
EndChar

StartChar: Oslash
Encoding: 216 216 153
Width: 1593
GlyphClass: 2
Flags: W
LayerCount: 2
Fore
SplineSet
1426.96 1212.26 m 1,0,0
 1536.89 1066.27 1536.89 1066.27 1536.89 851 c 0,0,0
 1534.21 591.27 1534.21 591.27 1427.2 392.29 c 0,0,0
 1320.53 193.65 1320.53 193.65 1133.54 86.825 c 0,0,0
 946.55 -20 946.55 -20 708.24 -20 c 0,0,0
 465.47 -20 465.47 -20 314.79 93.11 c 1,0,0
 168.97 -53 l 1,0,0
 -25.97 -53 l 1,0,0
 215.88 189.78 l 1,0,0
 100.67 341.08 100.67 341.08 100.67 573 c 0,0,0
 100.67 811.68 100.67 811.68 206.67 1012.67 c 0,0,0
 311.67 1213.66 311.67 1213.66 500.01 1321.83 c 0,0,0
 688.35 1430 688.35 1430 928 1430 c 0,0,0
 1172.71 1430 1172.71 1430 1329.36 1310.59 c 1,0,0
 1484.48 1466 l 1,0,0
 1680.11 1466 l 1,0,0
 1426.96 1212.26 l 1,0,0
917.35 1249.93 m 0,0,0
 730.56 1249.93 730.56 1249.93 599.14 1165.55 c 0,0,0
 511.75 1109.52 511.75 1109.52 451.38 1013.635 c 0,0,0
 391.01 917.75 391.01 917.75 359.325 802.03 c 0,0,0
 327.64 686.31 327.64 686.31 327.64 568.94 c 0,0,0
 327.64 436.55 327.64 436.55 371.33 347.51 c 1,0,0
 1184.9 1163.85 l 1,0,0
 1083.49 1249.93 1083.49 1249.93 917.35 1249.93 c 0,0,0
1308.6 840.4 m 0,0,0
 1308.6 962.85 1308.6 962.85 1268.21 1050.24 c 1,0,0
 458.27 238.54 l 1,0,0
 554.02 160.41 554.02 160.41 718.89 160.41 c 0,0,0
 904.01 160.41 904.01 160.41 1034.76 243.45 c 0,0,0
 1121.48 298.81 1121.48 298.81 1182.685 391.855 c 0,0,0
 1243.89 484.9 1243.89 484.9 1276.245 601.29 c 0,0,0
 1308.6 717.68 1308.6 717.68 1308.6 840.4 c 0,0,0
EndSplineSet
EndChar

StartChar: Thorn
Encoding: 222 222 159
Width: 1366
GlyphClass: 2
Flags: W
LayerCount: 2
Fore
SplineSet
337.1 288.42 m 1,0,0
 279.41 0 l 1,0,0
 54.09 0 l 1,0,0
 328.09 1409 l 1,0,0
 553.41 1409 l 1,0,0
 506.06 1165.91 l 1,0,0
 806.33 1165.91 l 2,0,0
 1046.3 1165.91 1046.3 1165.91 1179.785 1060.61 c 0,0,0
 1313.27 955.31 1313.27 955.31 1313.27 766.02 c 0,0,0
 1313.27 618.7 1313.27 618.7 1244.105 511.215 c 0,0,0
 1174.94 403.73 1174.94 403.73 1047.77 346.075 c 0,0,0
 920.6 288.42 920.6 288.42 745.92 288.42 c 2,0,0
 337.1 288.42 l 1,0,0
371.72 464.5 m 1,0,0
 726.38 464.5 l 2,0,0
 905.5 464.5 905.5 464.5 995.06 535.9 c 0,0,0
 1084.62 607.3 1084.62 607.3 1084.62 754.71 c 0,0,0
 1084.62 868.1 1084.62 868.1 1010.57 927.965 c 0,0,0
 936.52 987.83 936.52 987.83 793.74 987.83 c 2,0,0
 473.45 987.83 l 1,0,0
 371.72 464.5 l 1,0,0
EndSplineSet
EndChar

StartChar: germandbls
Encoding: 223 223 160
Width: 1251
GlyphClass: 2
Flags: W
LayerCount: 2
Fore
SplineSet
1132.57 320.21 m 0,0,0
 1132.57 158.57 1132.57 158.57 1023.745 66.27 c 0,0,0
 914.92 -26.03 914.92 -26.03 725.55 -26.03 c 0,0,0
 634.6 -26.03 634.6 -26.03 553.43 -10.525 c 0,0,0
 472.26 4.98 472.26 4.98 420.63 29.63 c 1,0,0
 480.59 186.82 l 1,0,0
 545.19 156.85 545.19 156.85 602.235 144.34 c 0,0,0
 659.28 131.83 659.28 131.83 719.33 131.83 c 0,0,0
 819.43 131.83 819.43 131.83 872.655 178.855 c 0,0,0
 925.88 225.88 925.88 225.88 925.88 310.61 c 0,0,0
 925.88 364.96 925.88 364.96 895.2 412.5 c 0,0,0
 864.52 460.04 864.52 460.04 793.16 519.76 c 0,0,0
 723.13 577.15 723.13 577.15 691.285 629.99 c 0,0,0
 659.44 682.83 659.44 682.83 659.44 743.46 c 0,0,0
 659.44 816.82 659.44 816.82 696.62 872.995 c 0,0,0
 733.8 929.17 733.8 929.17 810.46 978.46 c 0,0,0
 891.14 1030.09 891.14 1030.09 925.81 1076.075 c 0,0,0
 960.48 1122.06 960.48 1122.06 960.48 1180.06 c 0,0,0
 960.48 1243.78 960.48 1243.78 908.235 1283.16 c 0,0,0
 855.99 1322.54 855.99 1322.54 764.55 1322.54 c 0,0,0
 629.12 1322.54 629.12 1322.54 552.235 1248.155 c 0,0,0
 475.35 1173.77 475.35 1173.77 445.33 1021 c 2,0,0
 247.66 0 l 1,0,0
 34.33 0 l 1,0,0
 234.33 1027 l 2,0,0
 282.32 1264 282.32 1264 415.46 1374 c 0,0,0
 548.6 1484 548.6 1484 773.55 1484 c 0,0,0
 951.87 1484 951.87 1484 1057.71 1404.32 c 0,0,0
 1163.55 1324.64 1163.55 1324.64 1163.55 1196 c 0,0,0
 1163.55 1040.38 1163.55 1040.38 1012.51 934.72 c 0,0,0
 918.15 869.06 918.15 869.06 890.81 838.72 c 0,0,0
 861.14 807.39 861.14 807.39 861.14 771.06 c 0,0,0
 861.14 727.09 861.14 727.09 898.41 684.11 c 0,0,0
 913.75 665.08 913.75 665.08 938.11 641.035 c 0,0,0
 962.47 616.99 962.47 616.99 997.19 586.26 c 0,0,0
 1132.57 467.47 1132.57 467.47 1132.57 320.21 c 0,0,0
EndSplineSet
EndChar

StartChar: ae
Encoding: 230 230 167
Width: 1821
GlyphClass: 2
Flags: W
LayerCount: 2
Fore
SplineSet
1001.54 494.09 m 1,0,0
 995.21 459.76 995.21 459.76 993.2 389.01 c 0,0,0
 993.2 264.92 993.2 264.92 1049.75 198.705 c 0,0,0
 1106.3 132.49 1106.3 132.49 1217.4 132.49 c 0,0,0
 1300.11 132.49 1300.11 132.49 1364.835 176.835 c 0,0,0
 1429.56 221.18 1429.56 221.18 1469.93 308.19 c 1,0,0
 1643.24 241.56 l 1,0,0
 1570.92 100.65 1570.92 100.65 1463.27 40.325 c 0,0,0
 1355.62 -20 1355.62 -20 1196.39 -20 c 0,0,0
 1046.38 -20 1046.38 -20 950.225 45.05 c 0,0,0
 854.07 110.1 854.07 110.1 814.45 231.83 c 1,0,0
 736.99 119.34 736.99 119.34 641.82 59.27 c 0,0,0
 578.82 18.64 578.82 18.64 508.335 -0.68 c 0,0,0
 437.85 -20 437.85 -20 347.66 -20 c 0,0,0
 245.07 -20 245.07 -20 170.77 25.92 c 0,0,0
 105.37 64.58 105.37 64.58 70.335 130.44 c 0,0,0
 35.3 196.3 35.3 196.3 35.3 278 c 0,0,0
 35.3 464.98 35.3 464.98 170.635 559.81 c 0,0,0
 305.97 654.64 305.97 654.64 595.06 657.99 c 2,0,0
 817.55 660 l 1,0,0
 837.21 755 837.21 755 837.21 788.32 c 0,0,0
 837.21 949.82 837.21 949.82 655.94 949.82 c 0,0,0
 541.84 949.82 541.84 949.82 484.115 909.635 c 0,0,0
 426.39 869.45 426.39 869.45 401.35 787.72 c 1,0,0
 195.3 817.38 l 1,0,0
 238.01 963.39 238.01 963.39 354.83 1032.695 c 0,0,0
 471.65 1102 471.65 1102 667.64 1102 c 0,0,0
 884.02 1102 884.02 1102 984.39 958.85 c 1,0,0
 1114.34 1102 1114.34 1102 1328.4 1102 c 0,0,0
 1528.02 1102 1528.02 1102 1637.835 996.845 c 0,0,0
 1747.65 891.69 1747.65 891.69 1747.65 702.39 c 0,0,0
 1747.65 654.06 1747.65 654.06 1740.645 595.035 c 0,0,0
 1733.64 536.01 1733.64 536.01 1724.32 494.09 c 1,0,0
 1001.54 494.09 l 1,0,0
1028.51 648.26 m 1,0,0
 1539.24 648.26 l 1,0,0
 1542.91 714.98 l 1,0,0
 1542.91 833.37 1542.91 833.37 1487.045 893.76 c 0,0,0
 1431.18 954.15 1431.18 954.15 1330.41 954.15 c 0,0,0
 1216.32 954.15 1216.32 954.15 1138.425 875.255 c 0,0,0
 1060.53 796.36 1060.53 796.36 1028.51 648.26 c 1,0,0
261.94 298.87 m 0,0,0
 261.94 223.52 261.94 223.52 304.48 179.995 c 0,0,0
 347.02 136.47 347.02 136.47 420.73 136.47 c 0,0,0
 511.84 136.47 511.84 136.47 588.92 182.13 c 0,0,0
 659.74 221.84 659.74 221.84 707.83 288.935 c 0,0,0
 755.92 356.03 755.92 356.03 771.92 433.78 c 2,0,0
 790.57 522.78 l 1,0,0
 599.42 520.1 l 2,0,0
 466.26 516.75 466.26 516.75 394.2 487.45 c 0,0,0
 261.94 437.09 261.94 437.09 261.94 298.87 c 0,0,0
EndSplineSet
EndChar

StartChar: eth
Encoding: 240 240 177
Width: 1175
GlyphClass: 2
Flags: W
LayerCount: 2
Fore
SplineSet
636.88 1320.41 m 1,0,0
 532.3 1419.98 532.3 1419.98 432.97 1484 c 1,0,0
 647.58 1484 l 1,0,0
 684.92 1465 684.92 1465 722.765 1440.16 c 0,0,0
 760.61 1415.32 760.61 1415.32 798.63 1384.64 c 1,0,0
 1072.19 1488.95 l 1,0,0
 1048.9 1358.51 l 1,0,0
 887.82 1295.8 l 1,0,0
 997.56 1162.08 997.56 1162.08 1045.25 1026.545 c 0,0,0
 1092.94 891.01 1092.94 891.01 1092.94 728 c 0,0,0
 1092.94 518.32 1092.94 518.32 1029.93 345.91 c 0,0,0
 963.62 163.59 963.62 163.59 833.55 73.47 c 0,0,0
 703.48 -16.65 703.48 -16.65 502.88 -16.65 c 0,0,0
 297.28 -16.65 297.28 -16.65 180.655 97.175 c 0,0,0
 64.03 211 64.03 211 64.03 405.31 c 0,0,0
 64.03 578.5 64.03 578.5 139.92 717.5 c 0,0,0
 207.89 844.93 207.89 844.93 328.36 911.965 c 0,0,0
 448.83 979 448.83 979 619.52 979 c 0,0,0
 692.58 979 692.58 979 763.265 953.13 c 0,0,0
 833.95 927.26 833.95 927.26 869.61 887.86 c 1,0,0
 851.6 986.67 851.6 986.67 811.555 1074.11 c 0,0,0
 771.51 1161.55 771.51 1161.55 717.14 1226.23 c 1,0,0
 442.82 1113.89 l 1,0,0
 467.78 1253.36 l 1,0,0
 636.88 1320.41 l 1,0,0
621.15 826.53 m 0,0,0
 510.4 826.53 510.4 826.53 434.72 771.52 c 0,0,0
 387.03 736.17 387.03 736.17 353.185 674.615 c 0,0,0
 319.34 613.06 319.34 613.06 301.835 539.18 c 0,0,0
 284.33 465.3 284.33 465.3 284.33 390.31 c 0,0,0
 284.33 269.55 284.33 269.55 344.69 202.685 c 0,0,0
 405.05 135.82 405.05 135.82 514.13 135.82 c 0,0,0
 663.44 135.82 663.44 135.82 747.16 248.09 c 0,0,0
 783.1 292.12 783.1 292.12 808.89 356.82 c 0,0,0
 834.68 421.52 834.68 421.52 848.325 492.515 c 0,0,0
 861.97 563.51 861.97 563.51 861.97 625.43 c 0,0,0
 861.97 682.07 861.97 682.07 830.96 729.76 c 0,0,0
 800.93 774.8 800.93 774.8 746.385 800.665 c 0,0,0
 691.84 826.53 691.84 826.53 621.15 826.53 c 0,0,0
EndSplineSet
EndChar

StartChar: divide
Encoding: 247 247 184
Width: 1124
GlyphClass: 2
Flags: W
LayerCount: 2
Fore
SplineSet
675.21 1158.49 m 1,0,0
 675.21 958.99 l 1,0,0
 484.11 958.99 l 1,0,0
 484.11 1158.49 l 1,0,0
 675.21 1158.49 l 1,0,0
1083.27 766.87 m 1,0,0
 1083.27 595.13 l 1,0,0
 77.71 595.13 l 1,0,0
 77.71 766.87 l 1,0,0
 1083.27 766.87 l 1,0,0
675.21 405.01 m 1,0,0
 675.21 205.51 l 1,0,0
 484.11 205.51 l 1,0,0
 484.11 405.01 l 1,0,0
 675.21 405.01 l 1,0,0
EndSplineSet
EndChar

StartChar: oslash
Encoding: 248 248 185
Width: 1251
GlyphClass: 2
Flags: W
LayerCount: 2
Fore
SplineSet
191.76 134.77 m 1,0,0
 104.54 245.75 104.54 245.75 104.54 419 c 0,0,0
 107.89 624.02 107.89 624.02 180.52 779.02 c 0,0,0
 253.82 936.03 253.82 936.03 385.245 1018.515 c 0,0,0
 516.67 1101 516.67 1101 701.32 1101 c 0,0,0
 863 1101 863 1101 970.3 1038.29 c 1,0,0
 1037 1116 l 1,0,0
 1211.26 1116 l 1,0,0
 1069.22 951.29 l 1,0,0
 1149.49 846.96 1149.49 846.96 1149.49 683 c 0,0,0
 1149.49 545.01 1149.49 545.01 1105.34 416.84 c 0,0,0
 1041.43 202.24 1041.43 202.24 898.965 92.795 c 0,0,0
 756.5 -16.65 756.5 -16.65 544.38 -16.65 c 0,0,0
 395.33 -16.65 395.33 -16.65 291 47.09 c 1,0,0
 218.26 -38 l 1,0,0
 43.34 -38 l 1,0,0
 191.76 134.77 l 1,0,0
325.84 420.95 m 0,0,0
 325.84 356.53 325.84 356.53 338.53 305.17 c 1,0,0
 850.48 899.17 l 1,0,0
 791.1 949.2 791.1 949.2 693.05 949.2 c 0,0,0
 565.31 949.2 565.31 949.2 488.6 883.17 c 0,0,0
 437.57 839.15 437.57 839.15 401.05 762.28 c 0,0,0
 364.53 685.41 364.53 685.41 345.185 595.2 c 0,0,0
 325.84 504.99 325.84 504.99 325.84 420.95 c 0,0,0
927.85 676.07 m 0,0,0
 927.85 730.5 927.85 730.5 917.15 774.26 c 1,0,0
 408.83 183.89 l 1,0,0
 466.54 135.82 466.54 135.82 561.98 135.82 c 0,0,0
 690.73 135.82 690.73 135.82 764.1 199.52 c 0,0,0
 837.14 262.22 837.14 262.22 879.33 390.955 c 0,0,0
 921.52 519.69 921.52 519.69 927.85 676.07 c 0,0,0
EndSplineSet
EndChar

StartChar: thorn
Encoding: 254 254 191
Width: 1175
GlyphClass: 2
Flags: W
LayerCount: 2
Fore
SplineSet
589.64 -20 m 0,0,0
 465.98 -20 465.98 -20 388.315 32 c 0,0,0
 310.65 84 310.65 84 278.65 178 c 1,0,0
 274.64 178 l 1,0,0
 271.31 153.99 271.31 153.99 267.975 129.815 c 0,0,0
 264.64 105.64 264.64 105.64 260.64 80.63 c 0,0,0
 256.64 59.65 256.64 59.65 252.81 38.33 c 0,0,0
 248.98 17.01 248.98 17.01 244.65 -4.64 c 2,0,0
 162.98 -425 l 1,0,0
 -49.35 -425 l 1,0,0
 320.99 1484 l 1,0,0
 534.32 1484 l 1,0,0
 451.32 1059.68 l 2,0,0
 445.67 1029.09 445.67 1029.09 437.17 993.76 c 0,0,0
 428.67 958.43 428.67 958.43 417.32 918.36 c 1,0,0
 421.98 918.36 l 1,0,0
 494.65 1015.01 494.65 1015.01 576.145 1058.505 c 0,0,0
 657.64 1102 657.64 1102 776.31 1102 c 0,0,0
 933.97 1102 933.97 1102 1021.965 1007.5 c 0,0,0
 1109.96 913 1109.96 913 1109.96 748 c 0,0,0
 1109.96 544.99 1109.96 544.99 1048.63 355 c 0,0,0
 987.3 164.34 987.3 164.34 875.135 72.17 c 0,0,0
 762.97 -20 762.97 -20 589.64 -20 c 0,0,0
701.87 944.52 m 0,0,0
 526.05 944.52 526.05 944.52 433.66 796.38 c 0,0,0
 405.66 751.37 405.66 751.37 384.495 690.69 c 0,0,0
 363.33 630.01 363.33 630.01 349.33 562.04 c 0,0,0
 329.65 464.03 329.65 464.03 329.65 384.92 c 0,0,0
 329.65 265.86 329.65 265.86 389.685 199.33 c 0,0,0
 449.72 132.8 449.72 132.8 556.78 132.8 c 0,0,0
 673.85 132.8 673.85 132.8 741.23 204.84 c 0,0,0
 775.25 240.86 775.25 240.86 802.1 301.055 c 0,0,0
 828.95 361.25 828.95 361.25 847.795 433.285 c 0,0,0
 866.64 505.32 866.64 505.32 876.48 577.685 c 0,0,0
 886.32 650.05 886.32 650.05 886.32 708.74 c 0,0,0
 886.32 826.13 886.32 826.13 842.125 885.325 c 0,0,0
 797.93 944.52 797.93 944.52 701.87 944.52 c 0,0,0
EndSplineSet
EndChar

StartChar: dcroat
Encoding: 273 273 210
Width: 1175
GlyphClass: 2
Flags: W
LayerCount: 2
Fore
SplineSet
398.03 -21 m 0,0,0
 242.02 -21 242.02 -21 153.695 74.655 c 0,0,0
 65.37 170.31 65.37 170.31 65.37 335.31 c 0,0,0
 65.37 530.71 65.37 530.71 127.7 717.76 c 0,0,0
 190.03 903.81 190.03 903.81 302.185 995.805 c 0,0,0
 414.34 1087.8 414.34 1087.8 582.39 1087.8 c 0,0,0
 706.71 1087.8 706.71 1087.8 785.035 1036.955 c 0,0,0
 863.36 986.11 863.36 986.11 894.37 892.44 c 1,0,0
 899.7 892.44 l 1,0,0
 905.72 927.17 905.72 927.17 913.225 970.325 c 0,0,0
 920.73 1013.48 920.73 1013.48 930.04 1063.72 c 2,0,0
 955.71 1195.77 l 1,0,0
 659.34 1195.77 l 1,0,0
 686.98 1339.64 l 1,0,0
 983.68 1339.64 l 1,0,0
 1012.35 1484 l 1,0,0
 1224.36 1484 l 1,0,0
 1196.02 1339.64 l 1,0,0
 1328.02 1339.64 l 1,0,0
 1300.38 1195.77 l 1,0,0
 1168.71 1195.77 l 1,0,0
 981 225.64 l 2,0,0
 968.32 160.26 968.32 160.26 959.645 103.6 c 0,0,0
 950.97 46.94 950.97 46.94 945.97 0 c 1,0,0
 738 0 l 1,0,0
 738 54.96 738 54.96 757.02 160 c 1,0,0
 753.02 160 l 1,0,0
 680.68 65.66 680.68 65.66 599.185 22.33 c 0,0,0
 517.69 -21 517.69 -21 398.03 -21 c 0,0,0
473.46 135.82 m 0,0,0
 637.08 135.82 637.08 135.82 724.84 265.82 c 0,0,0
 762.13 315.86 762.13 315.86 788.6 389.37 c 0,0,0
 815.07 462.88 815.07 462.88 829.22 542.365 c 0,0,0
 843.37 621.85 843.37 621.85 843.37 688.16 c 0,0,0
 843.37 809.86 843.37 809.86 785.315 873.42 c 0,0,0
 727.26 936.98 727.26 936.98 620.53 936.98 c 0,0,0
 506.78 936.98 506.78 936.98 438.09 867.62 c 0,0,0
 392.74 821.27 392.74 821.27 359.22 734.705 c 0,0,0
 325.7 648.14 325.7 648.14 307.52 550.065 c 0,0,0
 289.34 451.99 289.34 451.99 289.34 370.61 c 0,0,0
 289.34 253.55 289.34 253.55 334.03 194.685 c 0,0,0
 378.72 135.82 378.72 135.82 473.46 135.82 c 0,0,0
EndSplineSet
EndChar

StartChar: Hbar
Encoding: 294 294 231
Width: 1479
GlyphClass: 2
Flags: W
LayerCount: 2
Fore
SplineSet
401.77 636.83 m 1,0,0
 278.41 0 l 1,0,0
 53.42 0 l 1,0,0
 253.41 1031.6 l 1,0,0
 109.64 1031.6 l 1,0,0
 140.63 1190.88 l 1,0,0
 284.4 1190.88 l 1,0,0
 326.42 1409 l 1,0,0
 551.74 1409 l 1,0,0
 509.72 1190.88 l 1,0,0
 1230.19 1190.88 l 1,0,0
 1272.21 1409 l 1,0,0
 1490.55 1409 l 1,0,0
 1448.53 1190.88 l 1,0,0
 1591.63 1190.88 l 1,0,0
 1560.64 1031.6 l 1,0,0
 1417.54 1031.6 l 1,0,0
 1217.22 0 l 1,0,0
 998.88 0 l 1,0,0
 1122.24 636.83 l 1,0,0
 401.77 636.83 l 1,0,0
438.72 824.55 m 1,0,0
 1159.19 824.55 l 1,0,0
 1199.2 1031.6 l 1,0,0
 478.73 1031.6 l 1,0,0
 438.72 824.55 l 1,0,0
EndSplineSet
EndChar

StartChar: hbar
Encoding: 295 295 232
Width: 1175
GlyphClass: 2
Flags: W
LayerCount: 2
Fore
SplineSet
408.99 857 m 1,0,0
 489.35 968.37 489.35 968.37 575.16 1014.685 c 0,0,0
 660.97 1061 660.97 1061 776.63 1061 c 0,0,0
 925.95 1061 925.95 1061 1001.275 988 c 0,0,0
 1076.6 915 1076.6 915 1076.6 777 c 0,0,0
 1076.6 747.31 1076.6 747.31 1070.94 701.855 c 0,0,0
 1065.28 656.4 1065.28 656.4 1055.6 613 c 2,0,0
 936.6 0 l 1,0,0
 723.26 0 l 1,0,0
 838.62 588.5 l 2,0,0
 859.26 690.04 859.26 690.04 859.26 743.45 c 0,0,0
 859.26 897.91 859.26 897.91 689.17 897.91 c 0,0,0
 610.78 897.91 610.78 897.91 542.25 856.39 c 0,0,0
 473.72 814.87 473.72 814.87 425.365 740.485 c 0,0,0
 377.01 666.1 377.01 666.1 357.32 566 c 2,0,0
 247.32 0 l 1,0,0
 34.33 0 l 1,0,0
 265.69 1195.77 l 1,0,0
 132.71 1195.77 l 1,0,0
 160.35 1339.64 l 1,0,0
 293.33 1339.64 l 1,0,0
 321.67 1484 l 1,0,0
 534.67 1484 l 1,0,0
 506.33 1339.64 l 1,0,0
 811.29 1339.64 l 1,0,0
 783.65 1195.77 l 1,0,0
 478.36 1195.77 l 1,0,0
 453.99 1062.56 453.99 1062.56 434.14 977.7 c 0,0,0
 414.29 892.84 414.29 892.84 405.99 857 c 1,0,0
 408.99 857 l 1,0,0
EndSplineSet
EndChar

StartChar: dotlessi
Encoding: 305 305 242
Width: 569
GlyphClass: 2
Flags: W
LayerCount: 2
Fore
SplineSet
494.51 1082 m 1,0,0
 283.51 0 l 1,0,0
 71.18 0 l 1,0,0
 281.18 1082 l 1,0,0
 494.51 1082 l 1,0,0
EndSplineSet
EndChar

StartChar: jcircumflex
Encoding: 309 309 246
Width: 492
GlyphClass: 2
Flags: W
LayerCount: 2
Fore
SplineSet
399.85 1371.65 m 1,0,0
 140.46 1195.06 l 1,0,0
 6.97 1195.06 l 1,0,0
 11.3 1217.7 l 1,0,0
 308.52 1503.54 l 1,0,0
 520.77 1503.54 l 1,0,0
 697.38 1217.7 l 1,0,0
 693.05 1195.06 l 1,0,0
 581.91 1195.06 l 1,0,0
 402.51 1371.65 l 1,0,0
 399.85 1371.65 l 1,0,0
-84.82 -425 m 0,0,0
 -152.34 -425 -152.34 -425 -226.03 -409.35 c 1,0,0
 -198.74 -256.19 l 1,0,0
 -176.7 -259.2 -176.7 -259.2 -158.015 -260.87 c 0,0,0
 -139.33 -262.54 -139.33 -262.54 -123.99 -262.87 c 0,0,0
 -62.35 -262.87 -62.35 -262.87 -31.855 -223.345 c 0,0,0
 -1.36 -183.82 -1.36 -183.82 15.97 -91.49 c 2,0,0
 244.33 1082 l 1,0,0
 457.66 1082 l 1,0,0
 220.99 -132.02 l 2,0,0
 190.65 -285.4 190.65 -285.4 114.875 -355.2 c 0,0,0
 39.1 -425 39.1 -425 -84.82 -425 c 0,0,0
EndSplineSet
EndChar

StartChar: kgreenlandic
Encoding: 312 312 249
Width: 1061
GlyphClass: 2
Flags: W
LayerCount: 2
Fore
SplineSet
322.95 392.52 m 1,0,0
 246.66 0 l 1,0,0
 34.33 0 l 1,0,0
 244.33 1082 l 1,0,0
 457.66 1082 l 1,0,0
 360.95 589.11 l 1,0,0
 549.44 766.57 l 1,0,0
 892.62 1082 l 1,0,0
 1147.62 1082 l 1,0,0
 636.43 631.19 l 1,0,0
 952.3 0 l 1,0,0
 723.31 0 l 1,0,0
 481.71 500.35 l 1,0,0
 322.95 392.52 l 1,0,0
EndSplineSet
EndChar

StartChar: Lslash
Encoding: 321 321 258
Width: 1175
GlyphClass: 2
Flags: W
LayerCount: 2
Fore
SplineSet
312.69 179.76 m 1,0,0
 1039.21 179.76 l 1,0,0
 1003.59 0 l 1,0,0
 52.08 0 l 1,0,0
 153.12 519.52 l 1,0,0
 -4.93 441.45 l 1,0,0
 29.02 621.56 l 1,0,0
 188.41 699.96 l 1,0,0
 325.75 1409 l 1,0,0
 551.07 1409 l 1,0,0
 436.71 819.86 l 1,0,0
 752.61 968.19 l 1,0,0
 717.65 789.41 l 1,0,0
 401.75 640.41 l 1,0,0
 312.69 179.76 l 1,0,0
EndSplineSet
EndChar

StartChar: lslash
Encoding: 322 322 259
Width: 492
GlyphClass: 2
Flags: W
LayerCount: 2
Fore
SplineSet
375.94 669.43 m 1,0,0
 245.32 0 l 1,0,0
 32.99 0 l 1,0,0
 138.98 548.27 l 1,0,0
 3.32 479.94 l 1,0,0
 37.62 656.75 l 1,0,0
 172.94 725.08 l 1,0,0
 320.99 1484 l 1,0,0
 534.32 1484 l 1,0,0
 410.24 846.24 l 1,0,0
 550.22 918.9 l 1,0,0
 515.59 742.08 l 1,0,0
 375.94 669.43 l 1,0,0
EndSplineSet
EndChar

StartChar: Eng
Encoding: 330 330 267
Width: 1481
GlyphClass: 2
Flags: W
LayerCount: 2
Fore
SplineSet
887.08 -425 m 0,0,0
 819.56 -425 819.56 -425 745.87 -409.35 c 1,0,0
 773.16 -256.19 l 1,0,0
 796.52 -259.2 796.52 -259.2 816.36 -260.87 c 0,0,0
 836.2 -262.54 836.2 -262.54 852.86 -262.87 c 0,0,0
 908.23 -262.87 908.23 -262.87 937.07 -229.45 c 0,0,0
 965.91 -196.03 965.91 -196.03 983.24 -122.51 c 0,0,0
 989.23 -98.48 989.23 -98.48 996.215 -68.02 c 0,0,0
 1003.2 -37.56 1003.2 -37.56 1009.85 0 c 1,0,0
 474.82 1185.27 l 1,0,0
 463.82 1105.61 463.82 1105.61 455.995 1053.985 c 0,0,0
 448.17 1002.36 448.17 1002.36 443.52 978.43 c 2,0,0
 255.45 0 l 1,0,0
 55.09 0 l 1,0,0
 328.42 1409 l 1,0,0
 585.29 1409 l 1,0,0
 1079.43 301.79 l 1,0,0
 1088.73 355.66 l 0,0,0
 1094.05 386.95 1094.05 386.95 1101.05 426.95 c 2,0,0
 1290.52 1409 l 1,0,0
 1492.22 1409 l 1,0,0
 1192.89 -132.02 l 2,0,0
 1162.55 -285.4 1162.55 -285.4 1086.775 -355.2 c 0,0,0
 1011 -425 1011 -425 887.08 -425 c 0,0,0
EndSplineSet
EndChar

StartChar: eng
Encoding: 331 331 268
Width: 1175
GlyphClass: 2
Flags: W
LayerCount: 2
Fore
SplineSet
605.45 -425 m 0,0,0
 537.93 -425 537.93 -425 464.24 -409.35 c 1,0,0
 491.53 -256.19 l 1,0,0
 513.57 -259.2 513.57 -259.2 532.255 -260.87 c 0,0,0
 550.94 -262.54 550.94 -262.54 566.28 -262.87 c 0,0,0
 627.92 -262.87 627.92 -262.87 658.415 -223.015 c 0,0,0
 688.91 -183.16 688.91 -183.16 706.24 -91.49 c 2,0,0
 847.29 628.5 l 2,0,0
 867.93 730.04 867.93 730.04 867.93 783.45 c 0,0,0
 867.93 937.91 867.93 937.91 697.84 937.91 c 0,0,0
 619.45 937.91 619.45 937.91 550.92 896.39 c 0,0,0
 482.39 854.87 482.39 854.87 434.035 780.485 c 0,0,0
 385.68 706.1 385.68 706.1 365.99 606 c 2,0,0
 247.99 0 l 1,0,0
 34.33 0 l 1,0,0
 200.33 851 l 2,0,0
 209.67 895.69 209.67 895.69 219.17 953.525 c 0,0,0
 228.67 1011.36 228.67 1011.36 239 1082 c 1,0,0
 441.34 1082 l 1,0,0
 441.34 1073.35 441.34 1073.35 436.505 1037.53 c 0,0,0
 431.67 1001.71 431.67 1001.71 425.5 961.54 c 0,0,0
 419.33 921.37 419.33 921.37 414.66 897 c 1,0,0
 417.66 897 l 1,0,0
 498.02 1008.37 498.02 1008.37 583.83 1054.685 c 0,0,0
 669.64 1101 669.64 1101 785.3 1101 c 0,0,0
 934.62 1101 934.62 1101 1009.945 1028 c 0,0,0
 1085.27 955 1085.27 955 1085.27 817 c 0,0,0
 1085.27 787.31 1085.27 787.31 1079.61 741.855 c 0,0,0
 1073.95 696.4 1073.95 696.4 1064.27 653 c 2,0,0
 911.26 -132.02 l 2,0,0
 882.24 -283.42 882.24 -283.42 806.465 -354.21 c 0,0,0
 730.69 -425 730.69 -425 605.45 -425 c 0,0,0
EndSplineSet
EndChar

StartChar: OE
Encoding: 338 338 275
Width: 2048
GlyphClass: 2
Flags: W
LayerCount: 2
Fore
SplineSet
900.92 0 m 1,0,0
 832.21 -10 832.21 -10 703.32 -10 c 0,0,0
 514.66 -10 514.66 -10 379.995 59.84 c 0,0,0
 245.33 129.68 245.33 129.68 173.495 260.515 c 0,0,0
 101.66 391.35 101.66 391.35 101.66 573 c 0,0,0
 101.66 711.51 101.66 711.51 139.055 837.685 c 0,0,0
 176.45 963.86 176.45 963.86 249.91 1067.79 c 0,0,0
 359.22 1237.04 359.22 1237.04 536.65 1328.52 c 0,0,0
 714.08 1420 714.08 1420 932.92 1420 c 0,0,0
 975.6 1420 975.6 1420 1018.81 1418.5 c 0,0,0
 1062.02 1417 1062.02 1417 1106.43 1414.33 c 2,0,0
 1179.48 1409 l 1,0,0
 2077.56 1409 l 1,0,0
 2042.94 1229.57 l 1,0,0
 1347.13 1229.57 l 1,0,0
 1265.4 809.58 l 1,0,0
 1900.88 809.58 l 1,0,0
 1866.59 633.47 l 1,0,0
 1231.11 633.47 l 1,0,0
 1143.37 180.75 l 1,0,0
 1880.18 180.75 l 1,0,0
 1845.23 0 l 1,0,0
 900.92 0 l 1,0,0
719.92 170.41 m 0,0,0
 780.3 170.41 780.3 170.41 829.83 174.07 c 0,0,0
 879.36 177.73 879.36 177.73 918.38 184.38 c 1,0,0
 1120.49 1226.62 l 1,0,0
 1082.12 1233.27 1082.12 1233.27 1028.765 1236.765 c 0,0,0
 975.41 1240.26 975.41 1240.26 922.92 1240.26 c 0,0,0
 709.12 1240.26 709.12 1240.26 569.78 1127.2 c 0,0,0
 492.29 1070.53 492.29 1070.53 438.35 981.29 c 0,0,0
 384.41 892.05 384.41 892.05 356.52 784.43 c 0,0,0
 328.63 676.81 328.63 676.81 328.63 563 c 0,0,0
 328.63 372.87 328.63 372.87 430.375 271.64 c 0,0,0
 532.12 170.41 532.12 170.41 719.92 170.41 c 0,0,0
EndSplineSet
EndChar

StartChar: oe
Encoding: 339 339 276
Width: 1933
GlyphClass: 2
Flags: W
LayerCount: 2
Fore
SplineSet
1090.64 494.09 m 1,0,0
 1080.96 447.03 1080.96 447.03 1080.96 389.01 c 0,0,0
 1080.96 264.92 1080.96 264.92 1140.86 198.705 c 0,0,0
 1200.76 132.49 1200.76 132.49 1320.57 132.49 c 0,0,0
 1409.31 132.49 1409.31 132.49 1478.725 177.84 c 0,0,0
 1548.14 223.19 1548.14 223.19 1589.18 308.19 c 1,0,0
 1762.49 241.56 l 1,0,0
 1688.16 99.98 1688.16 99.98 1576.49 39.99 c 0,0,0
 1464.82 -20 1464.82 -20 1300.23 -20 c 0,0,0
 1039.16 -20 1039.16 -20 929.54 159.47 c 1,0,0
 858.19 71.74 858.19 71.74 750.7 27.545 c 0,0,0
 643.21 -16.65 643.21 -16.65 503.87 -16.65 c 0,0,0
 298.6 -16.65 298.6 -16.65 181.985 99.845 c 0,0,0
 65.37 216.34 65.37 216.34 65.37 419 c 1,0,0
 68.72 622.01 68.72 622.01 141.35 778.35 c 0,0,0
 213.98 935.36 213.98 935.36 345.405 1018.18 c 0,0,0
 476.83 1101 476.83 1101 660.81 1101 c 0,0,0
 795.86 1101 795.86 1101 888.89 1057.785 c 0,0,0
 981.92 1014.57 981.92 1014.57 1038.52 925.83 c 1,0,0
 1114.52 1011.57 1114.52 1011.57 1215.21 1056.785 c 0,0,0
 1315.9 1102 1315.9 1102 1434.92 1102 c 0,0,0
 1640.57 1102 1640.57 1102 1753.735 997.515 c 0,0,0
 1866.9 893.03 1866.9 893.03 1866.9 702.39 c 0,0,0
 1866.9 600.04 1866.9 600.04 1842.9 494.09 c 1,0,0
 1090.64 494.09 l 1,0,0
887.34 676.07 m 1,0,0
 887.34 949.2 887.34 949.2 652.54 949.2 c 0,0,0
 524.13 949.2 524.13 949.2 448.09 882.5 c 0,0,0
 397.06 837.81 397.06 837.81 360.875 760.605 c 0,0,0
 324.69 683.4 324.69 683.4 305.68 593.86 c 0,0,0
 286.67 504.32 286.67 504.32 286.67 420.95 c 0,0,0
 286.67 280.2 286.67 280.2 345.37 208.01 c 0,0,0
 404.07 135.82 404.07 135.82 521.8 135.82 c 0,0,0
 651.21 135.82 651.21 135.82 724.25 200.18 c 0,0,0
 797.29 263.87 797.29 263.87 839.315 393.1 c 0,0,0
 881.34 522.33 881.34 522.33 887.34 676.07 c 1,0,0
1116.27 648.26 m 1,0,0
 1658.49 648.26 l 1,0,0
 1662.16 714.98 l 1,0,0
 1662.16 833.37 1662.16 833.37 1603.95 893.76 c 0,0,0
 1545.74 954.15 1545.74 954.15 1437.6 954.15 c 0,0,0
 1316.14 954.15 1316.14 954.15 1233.22 874.92 c 0,0,0
 1150.3 795.69 1150.3 795.69 1116.27 648.26 c 1,0,0
EndSplineSet
EndChar

StartChar: Tbar
Encoding: 358 358 295
Width: 1251
GlyphClass: 2
Flags: W
LayerCount: 2
Fore
SplineSet
755.51 640.07 m 1,0,0
 631.5 0 l 1,0,0
 406.85 0 l 1,0,0
 530.86 640.07 l 1,0,0
 269.02 640.07 l 1,0,0
 301.33 805.95 l 1,0,0
 563.17 805.95 l 1,0,0
 645.56 1229.24 l 1,0,0
 171.13 1229.24 l 1,0,0
 205.75 1409 l 1,0,0
 1379.59 1409 l 1,0,0
 1344.97 1229.24 l 1,0,0
 870.21 1229.24 l 1,0,0
 787.82 805.95 l 1,0,0
 1051.33 805.95 l 1,0,0
 1019.02 640.07 l 1,0,0
 755.51 640.07 l 1,0,0
EndSplineSet
EndChar

StartChar: tbar
Encoding: 359 359 296
Width: 606
GlyphClass: 2
Flags: W
LayerCount: 2
Fore
SplineSet
316.6 229.81 m 0,0,0
 316.6 185.15 316.6 185.15 339.43 162.985 c 0,0,0
 362.26 140.82 362.26 140.82 405.61 140.82 c 0,0,0
 442.96 140.82 442.96 140.82 508.25 154.49 c 1,0,0
 484.96 5.32 l 1,0,0
 391.9 -18.68 391.9 -18.68 308.33 -18.68 c 0,0,0
 210.46 -18.68 210.46 -18.68 155.525 34.795 c 0,0,0
 100.59 88.27 100.59 88.27 100.59 180.19 c 0,0,0
 100.59 241.46 100.59 241.46 115.92 319.1 c 2,0,0
 150.66 501.81 l 1,0,0
 25.33 501.81 l 1,0,0
 53.96 652.28 l 1,0,0
 179.62 652.28 l 1,0,0
 234 931.53 l 1,0,0
 101.41 931.53 l 1,0,0
 131.04 1082 l 1,0,0
 269.59 1082 l 1,0,0
 385.15 1327.96 l 1,0,0
 523.63 1327.96 l 1,0,0
 476.3 1082 l 1,0,0
 676.96 1082 l 1,0,0
 647.99 931.53 l 1,0,0
 446.34 931.53 l 1,0,0
 391.96 652.28 l 1,0,0
 587.01 652.28 l 1,0,0
 558.05 501.81 l 1,0,0
 362.33 501.81 l 1,0,0
 328.27 322.83 l 2,0,0
 316.6 263.49 316.6 263.49 316.6 229.81 c 0,0,0
EndSplineSet
EndChar

StartChar: longs
Encoding: 383 383 320
Width: 492
GlyphClass: 2
Flags: W
LayerCount: 2
Fore
SplineSet
33.66 0 m 1,0,0
 267.33 1201.03 l 2,0,0
 296.66 1356.7 296.66 1356.7 376.085 1420.35 c 0,0,0
 455.51 1484 455.51 1484 600.71 1484 c 0,0,0
 670.71 1484 670.71 1484 730.92 1470.35 c 1,0,0
 702.96 1318.83 l 1,0,0
 684.59 1322.17 684.59 1322.17 659.96 1324.83 c 0,0,0
 635.33 1327.49 635.33 1327.49 615 1327.49 c 0,0,0
 567.75 1327.49 567.75 1327.49 539.77 1307.88 c 0,0,0
 513.72 1291.21 513.72 1291.21 500.205 1259.34 c 0,0,0
 486.69 1227.47 486.69 1227.47 475.67 1175.04 c 2,0,0
 246.66 0 l 1,0,0
 33.66 0 l 1,0,0
EndSplineSet
EndChar

StartChar: uni0180
Encoding: 384 384 321
Width: 1175
GlyphClass: 2
Flags: W
LayerCount: 2
Fore
SplineSet
165.02 1339.64 m 1,0,0
 296.97 1339.64 l 1,0,0
 325.31 1484 l 1,0,0
 538.64 1484 l 1,0,0
 510.3 1339.64 l 1,0,0
 794.84 1339.64 l 1,0,0
 768.85 1195.77 l 1,0,0
 481.99 1195.77 l 1,0,0
 453 1047.47 l 2,0,0
 445.34 1013.17 445.34 1013.17 437.505 977.175 c 0,0,0
 429.67 941.18 429.67 941.18 419.66 905.16 c 1,0,0
 423.66 905.16 l 1,0,0
 493.36 999.83 493.36 999.83 577.99 1044.315 c 0,0,0
 662.62 1088.8 662.62 1088.8 778.32 1088.8 c 0,0,0
 935.98 1088.8 935.98 1088.8 1023.975 994.3 c 0,0,0
 1111.97 899.8 1111.97 899.8 1111.97 734.8 c 0,0,0
 1111.97 525.52 1111.97 525.52 1050.31 342.79 c 0,0,0
 988.32 159.72 988.32 159.72 875.495 69.86 c 0,0,0
 762.67 -20 762.67 -20 593.96 -20 c 0,0,0
 470.3 -20 470.3 -20 392.97 32 c 0,0,0
 315.64 84 315.64 84 283.64 178 c 1,0,0
 280.97 178 l 1,0,0
 276.33 154.11 276.33 154.11 264.01 107.3 c 0,0,0
 251.69 60.49 251.69 60.49 236.32 0 c 1,0,0
 30.98 0 l 1,0,0
 34.98 13 34.98 13 47.48 68.5 c 0,0,0
 59.98 124 59.98 124 79.98 223 c 2,0,0
 269 1195.77 l 1,0,0
 137.38 1195.77 l 1,0,0
 165.02 1339.64 l 1,0,0
703.88 931.32 m 0,0,0
 606.53 931.32 606.53 931.32 541.805 894.45 c 0,0,0
 477.08 857.58 477.08 857.58 431.71 782.52 c 0,0,0
 401.69 732.48 401.69 732.48 379.505 662.1 c 0,0,0
 357.32 591.72 357.32 591.72 345.645 518.675 c 0,0,0
 333.97 445.63 333.97 445.63 333.97 384.92 c 0,0,0
 333.97 265.86 333.97 265.86 394.005 199.33 c 0,0,0
 454.04 132.8 454.04 132.8 561.1 132.8 c 0,0,0
 679.48 132.8 679.48 132.8 749.81 210.75 c 0,0,0
 793.19 256.44 793.19 256.44 824.23 337.72 c 0,0,0
 855.27 419 855.27 419 872.295 514.105 c 0,0,0
 889.32 609.21 889.32 609.21 889.32 695.54 c 0,0,0
 889.32 814.58 889.32 814.58 844.3 872.95 c 0,0,0
 799.28 931.32 799.28 931.32 703.88 931.32 c 0,0,0
EndSplineSet
EndChar

StartChar: uni0181
Encoding: 385 385 322
Width: 1540
GlyphClass: 2
Flags: W
LayerCount: 2
Fore
SplineSet
1442.34 436.36 m 0,0,0
 1442.34 224.02 1442.34 224.02 1286.175 112.01 c 0,0,0
 1130.01 0 1130.01 0 840.8 0 c 2,0,0
 209.5 0 l 1,0,0
 450.21 1239.22 l 1,0,0
 432.89 1239.22 l 2,0,0
 346.15 1239.22 346.15 1239.22 302.455 1192.51 c 0,0,0
 258.76 1145.8 258.76 1145.8 258.76 1060.73 c 0,0,0
 259.43 1045.75 259.43 1045.75 261.09 1029.79 c 0,0,0
 262.75 1013.83 262.75 1013.83 265.4 995.22 c 1,0,0
 91.99 978.22 l 1,0,0
 88.65 993.87 88.65 993.87 86.815 1011.015 c 0,0,0
 84.98 1028.16 84.98 1028.16 84.98 1045.79 c 0,0,0
 84.98 1225.36 84.98 1225.36 176.8 1317.18 c 0,0,0
 268.62 1409 268.62 1409 449.2 1409 c 2,0,0
 1017.25 1409 l 2,0,0
 1240.11 1409 1240.11 1409 1363.415 1323.82 c 0,0,0
 1486.72 1238.64 1486.72 1238.64 1486.72 1085.68 c 0,0,0
 1486.72 802.99 1486.72 802.99 1152.67 741.35 c 1,0,0
 1290.01 718.35 1290.01 718.35 1366.175 636.52 c 0,0,0
 1442.34 554.69 1442.34 554.69 1442.34 436.36 c 0,0,0
593.8 820.23 m 1,0,0
 912.59 820.23 l 2,0,0
 1089.6 820.23 1089.6 820.23 1173.15 878.625 c 0,0,0
 1256.7 937.02 1256.7 937.02 1256.7 1058.1 c 0,0,0
 1256.7 1147.48 1256.7 1147.48 1193 1190.85 c 0,0,0
 1129.3 1234.22 1129.3 1234.22 995.3 1234.22 c 2,0,0
 674.2 1234.22 l 1,0,0
 593.8 820.23 l 1,0,0
468.11 174.78 m 1,0,0
 822.91 174.78 l 2,0,0
 1032.58 174.78 1032.58 174.78 1124.635 240.69 c 0,0,0
 1216.69 306.6 1216.69 306.6 1216.69 440.35 c 0,0,0
 1216.69 541.74 1216.69 541.74 1140.985 595.1 c 0,0,0
 1065.28 648.46 1065.28 648.46 914.63 648.46 c 2,0,0
 560.51 648.46 l 1,0,0
 468.11 174.78 l 1,0,0
EndSplineSet
EndChar

StartChar: uni0182
Encoding: 386 386 323
Width: 1371
GlyphClass: 2
Flags: W
LayerCount: 2
Fore
SplineSet
327.09 1409 m 1,0,0
 1296.98 1409 l 1,0,0
 1262.36 1229.57 l 1,0,0
 517.79 1229.57 l 1,0,0
 439.39 824.55 l 1,0,0
 779.89 824.55 l 2,0,0
 1009.21 824.55 1009.21 824.55 1139.02 724.735 c 0,0,0
 1268.83 624.92 1268.83 624.92 1268.83 445.25 c 0,0,0
 1268.83 233.63 1268.83 233.63 1116.545 116.815 c 0,0,0
 964.26 0 964.26 0 695.03 0 c 2,0,0
 53.42 0 l 1,0,0
 327.09 1409 l 1,0,0
312.69 177.07 m 1,0,0
 692.3 177.07 l 2,0,0
 864.1 177.07 864.1 177.07 951.315 241.45 c 0,0,0
 1038.53 305.83 1038.53 305.83 1038.53 431.62 c 0,0,0
 1038.53 536.7 1038.53 536.7 967.485 592.25 c 0,0,0
 896.44 647.8 896.44 647.8 752.74 647.8 c 2,0,0
 404.77 647.8 l 1,0,0
 312.69 177.07 l 1,0,0
EndSplineSet
EndChar

StartChar: uni0183
Encoding: 387 387 324
Width: 1175
GlyphClass: 2
Flags: W
LayerCount: 2
Fore
SplineSet
780.63 1102 m 0,0,0
 938.29 1102 938.29 1102 1026.285 1007.5 c 0,0,0
 1114.28 913 1114.28 913 1114.28 748 c 0,0,0
 1114.28 544.99 1114.28 544.99 1052.95 355 c 0,0,0
 991.62 164.34 991.62 164.34 879.455 72.17 c 0,0,0
 767.29 -20 767.29 -20 593.96 -20 c 0,0,0
 470.3 -20 470.3 -20 393.135 32 c 0,0,0
 315.97 84 315.97 84 283.97 178 c 1,0,0
 280.97 178 l 1,0,0
 276.33 154.11 276.33 154.11 264.01 107.3 c 0,0,0
 251.69 60.49 251.69 60.49 236.32 0 c 1,0,0
 30.98 0 l 1,0,0
 34.65 11.35 34.65 11.35 45.005 57.445 c 0,0,0
 55.36 103.54 55.36 103.54 72.06 185.05 c 2,0,0
 325.31 1484 l 1,0,0
 1081.52 1484 l 1,0,0
 1048.87 1307.18 l 1,0,0
 504.01 1307.18 l 1,0,0
 490.32 1238.06 490.32 1238.06 479.305 1181.975 c 0,0,0
 468.29 1125.89 468.29 1125.89 459.95 1082.85 c 0,0,0
 447.97 1025.61 447.97 1025.61 438.475 984.655 c 0,0,0
 428.98 943.7 428.98 943.7 421.97 918.36 c 1,0,0
 425.97 918.36 l 1,0,0
 495.67 1013.03 495.67 1013.03 580.3 1057.515 c 0,0,0
 664.93 1102 664.93 1102 780.63 1102 c 0,0,0
706.19 944.52 m 0,0,0
 526.41 944.52 526.41 944.52 433.69 789.45 c 0,0,0
 403.34 737.43 403.34 737.43 380.66 665.565 c 0,0,0
 357.98 593.7 357.98 593.7 345.975 519.83 c 0,0,0
 333.97 445.96 333.97 445.96 333.97 384.92 c 0,0,0
 333.97 265.86 333.97 265.86 394.005 199.33 c 0,0,0
 454.04 132.8 454.04 132.8 561.1 132.8 c 0,0,0
 676.84 132.8 676.84 132.8 742.55 202.5 c 0,0,0
 776.24 236.85 776.24 236.85 803.255 297.37 c 0,0,0
 830.27 357.89 830.27 357.89 850.28 430.75 c 0,0,0
 870.29 503.61 870.29 503.61 880.96 576.815 c 0,0,0
 891.63 650.02 891.63 650.02 891.63 708.74 c 0,0,0
 891.63 825.8 891.63 825.8 848.425 885.16 c 0,0,0
 805.22 944.52 805.22 944.52 706.19 944.52 c 0,0,0
EndSplineSet
EndChar

StartChar: uni0184
Encoding: 388 388 325
Width: 1371
GlyphClass: 2
Flags: W
LayerCount: 2
Fore
SplineSet
438.72 824.55 m 1,0,0
 771.85 824.55 l 2,0,0
 1001.17 824.55 1001.17 824.55 1130.98 724.735 c 0,0,0
 1260.79 624.92 1260.79 624.92 1260.79 445.25 c 0,0,0
 1260.79 233.63 1260.79 233.63 1108.505 116.815 c 0,0,0
 956.22 0 956.22 0 686.99 0 c 2,0,0
 52.75 0 l 1,0,0
 248.76 1008.36 l 1,0,0
 125.4 1185.9 l 1,0,0
 131.4 1219.89 l 1,0,0
 489.47 1409 l 1,0,0
 551.74 1409 l 1,0,0
 438.72 824.55 l 1,0,0
312.02 177.07 m 1,0,0
 684.26 177.07 l 2,0,0
 856.06 177.07 856.06 177.07 943.275 241.45 c 0,0,0
 1030.49 305.83 1030.49 305.83 1030.49 431.62 c 0,0,0
 1030.49 536.7 1030.49 536.7 959.445 592.25 c 0,0,0
 888.4 647.8 888.4 647.8 744.7 647.8 c 2,0,0
 404.1 647.8 l 1,0,0
 312.02 177.07 l 1,0,0
EndSplineSet
EndChar

StartChar: uni0185
Encoding: 389 389 326
Width: 1175
GlyphClass: 2
Flags: W
LayerCount: 2
Fore
SplineSet
780.63 1102 m 0,0,0
 948.67 1102 948.67 1102 1036.66 995.28 c 0,0,0
 1114.28 902.96 1114.28 902.96 1114.28 748 c 0,0,0
 1114.28 691.34 1114.28 691.34 1109.615 635.015 c 0,0,0
 1104.95 578.69 1104.95 578.69 1094.62 523.37 c 0,0,0
 1067.96 375.34 1067.96 375.34 1013.24 256.42 c 0,0,0
 958.52 137.5 958.52 137.5 877.09 72.5 c 0,0,0
 820.79 25.59 820.79 25.59 750.34 2.795 c 0,0,0
 679.89 -20 679.89 -20 593.96 -20 c 0,0,0
 470.3 -20 470.3 -20 392.97 32 c 0,0,0
 315.64 84 315.64 84 283.64 178 c 1,0,0
 280.97 178 l 1,0,0
 276.33 154.11 276.33 154.11 264.01 107.3 c 0,0,0
 251.69 60.49 251.69 60.49 236.32 0 c 1,0,0
 30.98 0 l 1,0,0
 34.64 10.65 34.64 10.65 41.3 41.45 c 0,0,0
 47.96 72.25 47.96 72.25 58.295 118.915 c 0,0,0
 68.63 165.58 68.63 165.58 79.98 223 c 2,0,0
 247.97 1089.63 l 1,0,0
 148.7 1273.92 l 1,0,0
 155.04 1307.58 l 1,0,0
 480.71 1484 l 1,0,0
 538.64 1484 l 1,0,0
 526.98 1423.69 526.98 1423.69 515.31 1366.18 c 0,0,0
 503.64 1308.67 503.64 1308.67 493.3 1253.63 c 0,0,0
 481 1191.12 481 1191.12 470.51 1138.505 c 0,0,0
 460.02 1085.89 460.02 1085.89 451.35 1041.86 c 0,0,0
 445.34 1015.48 445.34 1015.48 437.505 980.145 c 0,0,0
 429.67 944.81 429.67 944.81 421.97 918.36 c 1,0,0
 425.97 918.36 l 1,0,0
 494.02 1010.39 494.02 1010.39 578.155 1056.195 c 0,0,0
 662.29 1102 662.29 1102 780.63 1102 c 0,0,0
706.19 944.52 m 0,0,0
 622.37 944.52 622.37 944.52 559.46 911.94 c 0,0,0
 496.55 879.36 496.55 879.36 450.52 811.89 c 0,0,0
 417.89 765.86 417.89 765.86 392.755 698.7 c 0,0,0
 367.62 631.54 367.62 631.54 351.64 551.99 c 0,0,0
 333.97 459.65 333.97 459.65 333.97 384.92 c 0,0,0
 333.97 265.53 333.97 265.53 394.17 199.165 c 0,0,0
 454.37 132.8 454.37 132.8 561.1 132.8 c 0,0,0
 618.8 132.8 618.8 132.8 664.66 149.975 c 0,0,0
 710.52 167.15 710.52 167.15 744.86 204.81 c 0,0,0
 784.9 247.5 784.9 247.5 816.095 326.73 c 0,0,0
 847.29 405.96 847.29 405.96 867.62 502.6 c 0,0,0
 891.63 616 891.63 616 891.63 708.74 c 0,0,0
 891.63 825.8 891.63 825.8 848.425 885.16 c 0,0,0
 805.22 944.52 805.22 944.52 706.19 944.52 c 0,0,0
EndSplineSet
EndChar

StartChar: uni0186
Encoding: 390 390 327
Width: 1479
GlyphClass: 2
Flags: W
LayerCount: 2
Fore
SplineSet
157.18 1057.82 m 1,0,0
 283.18 1253.41 283.18 1253.41 447.47 1341.705 c 0,0,0
 611.76 1430 611.76 1430 831.02 1430 c 0,0,0
 1016.32 1430 1016.32 1430 1151.3 1358.99 c 0,0,0
 1287.28 1286.98 1287.28 1286.98 1357.765 1155.29 c 0,0,0
 1428.25 1023.6 1428.25 1023.6 1428.25 850.9 c 0,0,0
 1428.25 600.95 1428.25 600.95 1323.91 399.96 c 0,0,0
 1219.57 198.98 1219.57 198.98 1031.75 89.49 c 0,0,0
 843.93 -20 843.93 -20 606.34 -20 c 0,0,0
 384.72 -20 384.72 -20 234.89 74.79 c 0,0,0
 85.06 169.58 85.06 169.58 41.02 340.51 c 1,0,0
 252.04 400.79 l 1,0,0
 282.43 291.1 282.43 291.1 381.64 226.09 c 0,0,0
 480.85 161.08 480.85 161.08 625.91 161.08 c 0,0,0
 799.68 161.08 799.68 161.08 930.44 247.77 c 0,0,0
 1061.53 334.13 1061.53 334.13 1131.415 490.005 c 0,0,0
 1201.3 645.88 1201.3 645.88 1201.3 849.28 c 0,0,0
 1201.3 1036.41 1201.3 1036.41 1096.755 1143 c 0,0,0
 992.21 1249.59 992.21 1249.59 807.46 1249.59 c 0,0,0
 664.74 1249.59 664.74 1249.59 544.165 1178.235 c 0,0,0
 423.59 1106.88 423.59 1106.88 331.53 966.18 c 1,0,0
 157.18 1057.82 l 1,0,0
EndSplineSet
EndChar

StartChar: uni0187
Encoding: 391 391 328
Width: 1479
GlyphClass: 2
Flags: W
LayerCount: 2
Fore
SplineSet
1363.94 341.28 m 1,0,0
 1245.2 153.94 1245.2 153.94 1082.56 66.97 c 0,0,0
 919.92 -20 919.92 -20 703.63 -20 c 0,0,0
 519 -20 519 -20 384.35 52.67 c 0,0,0
 249.7 124.67 249.7 124.67 179.205 258.67 c 0,0,0
 108.71 392.67 108.71 392.67 108.71 569 c 0,0,0
 108.71 816.98 108.71 816.98 213.71 1015.98 c 0,0,0
 318.71 1214.65 318.71 1214.65 505.87 1322.325 c 0,0,0
 693.03 1430 693.03 1430 926.33 1430 c 0,0,0
 1189.86 1430 1189.86 1430 1342.9 1300.15 c 1,0,0
 1353.21 1352.68 l 2,0,0
 1383.22 1499.03 1383.22 1499.03 1469 1572.53 c 0,0,0
 1554.78 1646.03 1554.78 1646.03 1687.7 1646.03 c 0,0,0
 1754.67 1646.03 1754.67 1646.03 1816.6 1626.35 c 1,0,0
 1783.97 1457.86 l 1,0,0
 1735.67 1473.88 1735.67 1473.88 1698.3 1473.88 c 0,0,0
 1635.58 1473.88 1635.58 1473.88 1596.23 1435.17 c 0,0,0
 1556.88 1396.46 1556.88 1396.46 1540.21 1308.09 c 2,0,0
 1494.29 1069.49 l 1,0,0
 1283.27 1009.21 l 1,0,0
 1248.91 1119.56 1248.91 1119.56 1152.675 1184.24 c 0,0,0
 1056.44 1248.92 1056.44 1248.92 916.66 1248.92 c 0,0,0
 742.88 1248.92 742.88 1248.92 612.79 1167.52 c 0,0,0
 479.06 1084.8 479.06 1084.8 406.865 929.74 c 0,0,0
 334.67 774.68 334.67 774.68 334.67 568.31 c 0,0,0
 334.67 377.22 334.67 377.22 435.915 268.65 c 0,0,0
 537.16 160.08 537.16 160.08 718.94 160.08 c 0,0,0
 861.99 160.08 861.99 160.08 982.235 230.61 c 0,0,0
 1102.48 301.14 1102.48 301.14 1193.22 440.19 c 1,0,0
 1363.94 341.28 l 1,0,0
EndSplineSet
EndChar

StartChar: uni0188
Encoding: 392 392 329
Width: 1061
GlyphClass: 2
Flags: W
LayerCount: 2
Fore
SplineSet
491.11 138.83 m 0,0,0
 585.5 138.83 585.5 138.83 651.225 193.005 c 0,0,0
 716.95 247.18 716.95 247.18 758.33 361.57 c 1,0,0
 952.28 312.24 l 1,0,0
 835.89 -20 835.89 -20 483.15 -20 c 0,0,0
 281.24 -20 281.24 -20 173.46 90.825 c 0,0,0
 65.68 201.65 65.68 201.65 65.68 398.3 c 0,0,0
 65.68 597.65 65.68 597.65 140.66 768.32 c 0,0,0
 214.97 939.99 214.97 939.99 338.43 1020.995 c 0,0,0
 461.89 1102 461.89 1102 643.15 1102 c 0,0,0
 797.58 1102 797.58 1102 896.56 1031.58 c 1,0,0
 929.25 1166.89 929.25 1166.89 1009.02 1234.38 c 0,0,0
 1088.79 1301.87 1088.79 1301.87 1210.36 1301.87 c 0,0,0
 1279 1301.87 1279 1301.87 1336.25 1282.19 c 1,0,0
 1303.95 1114.69 l 1,0,0
 1252.97 1132.05 1252.97 1132.05 1222.97 1132.05 c 0,0,0
 1163.6 1132.05 1163.6 1132.05 1127.265 1090.995 c 0,0,0
 1090.93 1049.94 1090.93 1049.94 1072.92 958.22 c 2,0,0
 1036.64 769.81 l 1,0,0
 824.33 745.47 l 1,0,0
 818.66 841.81 818.66 841.81 768.62 892.825 c 0,0,0
 718.58 943.84 718.58 943.84 631.87 943.84 c 0,0,0
 516.75 943.84 516.75 943.84 447.01 882.12 c 0,0,0
 401.65 841.77 401.65 841.77 367.97 768.75 c 0,0,0
 334.29 695.73 334.29 695.73 311.32 600.46 c 1,0,0
 286.31 486.48 286.31 486.48 286.31 394.94 c 0,0,0
 286.31 138.83 286.31 138.83 491.11 138.83 c 0,0,0
EndSplineSet
EndChar

StartChar: uni018A
Encoding: 394 394 331
Width: 1611
GlyphClass: 2
Flags: W
LayerCount: 2
Fore
SplineSet
882.55 1409 m 2,0,0
 1095.17 1409 1095.17 1409 1246.325 1336.15 c 0,0,0
 1397.48 1263.3 1397.48 1263.3 1477.485 1126.62 c 0,0,0
 1557.49 989.94 1557.49 989.94 1557.49 796.28 c 0,0,0
 1557.49 559.94 1557.49 559.94 1455.81 381.96 c 0,0,0
 1354.13 203.64 1354.13 203.64 1162.445 101.82 c 0,0,0
 970.76 0 970.76 0 729.72 0 c 2,0,0
 206.5 0 l 1,0,0
 446.54 1239.22 l 1,0,0
 430.88 1239.22 l 2,0,0
 344.14 1239.22 344.14 1239.22 300.445 1192.51 c 0,0,0
 256.75 1145.8 256.75 1145.8 256.75 1060.73 c 0,0,0
 257.42 1045.75 257.42 1045.75 259.08 1029.79 c 0,0,0
 260.74 1013.83 260.74 1013.83 263.39 995.22 c 1,0,0
 89.98 978.22 l 1,0,0
 86.64 993.87 86.64 993.87 84.805 1011.015 c 0,0,0
 82.97 1028.16 82.97 1028.16 82.97 1045.79 c 0,0,0
 82.97 1225.36 82.97 1225.36 174.79 1317.18 c 0,0,0
 266.61 1409 266.61 1409 447.19 1409 c 2,0,0
 882.55 1409 l 2,0,0
465.77 177.75 m 1,0,0
 721.39 177.75 l 2,0,0
 906.18 177.75 906.18 177.75 1046.26 252.78 c 0,0,0
 1186.01 326.81 1186.01 326.81 1261.22 466.865 c 0,0,0
 1336.43 606.92 1336.43 606.92 1336.43 793.33 c 0,0,0
 1336.43 1002.43 1336.43 1002.43 1217.195 1116.84 c 0,0,0
 1097.96 1231.25 1097.96 1231.25 880.53 1231.25 c 2,0,0
 670.87 1231.25 l 1,0,0
 465.77 177.75 l 1,0,0
EndSplineSet
EndChar

StartChar: uni018B
Encoding: 395 395 332
Width: 1343
GlyphClass: 2
Flags: W
LayerCount: 2
Fore
SplineSet
529.58 0 m 2,0,0
 370.48 0 370.48 0 260.09 52.03 c 0,0,0
 162.44 98.03 162.44 98.03 110.45 180.355 c 0,0,0
 58.46 262.68 58.46 262.68 58.46 374.02 c 0,0,0
 58.46 546.49 58.46 546.49 163.62 657.18 c 0,0,0
 234.95 738.05 234.95 738.05 351.55 780.145 c 0,0,0
 468.15 822.24 468.15 822.24 620.38 822.24 c 2,0,0
 1025.36 822.24 l 1,0,0
 1104.76 1229.57 l 1,0,0
 362.58 1229.57 l 1,0,0
 397.2 1409 l 1,0,0
 1364.7 1409 l 1,0,0
 1091.03 0 l 1,0,0
 529.58 0 l 2,0,0
991.4 649.13 m 1,0,0
 636.31 649.13 l 2,0,0
 463.2 649.13 463.2 649.13 375.65 583.265 c 0,0,0
 288.1 517.4 288.1 517.4 288.1 387.98 c 0,0,0
 288.1 283.89 288.1 283.89 357.99 229 c 0,0,0
 427.88 174.11 427.88 174.11 565.31 174.11 c 2,0,0
 904.36 174.11 l 1,0,0
 991.4 649.13 l 1,0,0
EndSplineSet
EndChar

StartChar: uni018C
Encoding: 396 396 333
Width: 1175
GlyphClass: 2
Flags: W
LayerCount: 2
Fore
SplineSet
398.03 -21 m 0,0,0
 242.02 -21 242.02 -21 153.695 75.975 c 0,0,0
 65.37 172.95 65.37 172.95 65.37 339.93 c 0,0,0
 65.37 538.63 65.37 538.63 128.03 727.33 c 0,0,0
 190.69 915.69 190.69 915.69 303.175 1008.51 c 0,0,0
 415.66 1101.33 415.66 1101.33 585.36 1101.33 c 0,0,0
 708.69 1101.33 708.69 1101.33 787.18 1049.825 c 0,0,0
 865.67 998.32 865.67 998.32 896.68 903.33 c 1,0,0
 901.68 903.33 l 1,0,0
 907.03 936.08 907.03 936.08 912.71 970.145 c 0,0,0
 918.39 1004.21 918.39 1004.21 924.4 1039.26 c 0,0,0
 933.76 1091.06 933.76 1091.06 947.09 1158.04 c 0,0,0
 976.72 1307.18 l 1,0,0
 431.86 1307.18 l 1,0,0
 467.81 1484 l 1,0,0
 1223.69 1484 l 1,0,0
 981 225.64 l 2,0,0
 971 170.31 971 170.31 962.66 113.65 c 0,0,0
 954.32 56.99 954.32 56.99 945.97 0 c 1,0,0
 738 0 l 1,0,0
 738 27.65 738 27.65 743.17 70.45 c 0,0,0
 748.34 113.25 748.34 113.25 757.02 160 c 1,0,0
 752.35 160 l 1,0,0
 680.01 65.66 680.01 65.66 598.515 22.33 c 0,0,0
 517.02 -21 517.02 -21 398.03 -21 c 0,0,0
473.46 135.82 m 0,0,0
 653.58 135.82 653.58 135.82 745.3 291.56 c 0,0,0
 776.65 343.58 776.65 343.58 798.995 415.11 c 0,0,0
 821.34 486.64 821.34 486.64 833.345 561.175 c 0,0,0
 845.35 635.71 845.35 635.71 845.35 696.41 c 0,0,0
 845.35 819.76 845.35 819.76 787.295 884.31 c 0,0,0
 729.24 948.86 729.24 948.86 622.51 948.86 c 0,0,0
 506.1 948.86 506.1 948.86 436.41 875.84 c 0,0,0
 390.06 827.16 390.06 827.16 357.21 738.935 c 0,0,0
 324.36 650.71 324.36 650.71 306.85 552.485 c 0,0,0
 289.34 454.26 289.34 454.26 289.34 374.24 c 0,0,0
 289.34 255.53 289.34 255.53 334.03 195.675 c 0,0,0
 378.72 135.82 378.72 135.82 473.46 135.82 c 0,0,0
EndSplineSet
EndChar

StartChar: uni018D
Encoding: 397 397 334
Width: 1174
GlyphClass: 2
Flags: W
LayerCount: 2
Fore
SplineSet
1116.57 681.35 m 0,0,0
 1116.57 507.34 1116.57 507.34 1051.9 347.56 c 0,0,0
 986.56 188.12 986.56 188.12 863.73 97.13 c 0,0,0
 740.9 6.14 740.9 6.14 563.88 -9.76 c 1,0,0
 856.52 -276.83 l 1,0,0
 828.22 -424.67 l 1,0,0
 28.5 -424.67 l 1,0,0
 60.46 -260.53 l 1,0,0
 439.33 -260.53 l 1,0,0
 584.73 -265.89 l 1,0,0
 238.83 50.38 l 2,0,0
 158.5 124.05 158.5 124.05 124.49 196.15 c 0,0,0
 98.87 245.46 98.87 245.46 85.575 302.74 c 0,0,0
 72.28 360.02 72.28 360.02 72.28 427.25 c 0,0,0
 72.28 613.24 72.28 613.24 145.23 773.95 c 0,0,0
 218.18 933.33 218.18 933.33 352.6 1017.33 c 0,0,0
 487.02 1101.33 487.02 1101.33 675.99 1101.33 c 0,0,0
 888.96 1101.33 888.96 1101.33 1002.765 991.005 c 0,0,0
 1116.57 880.68 1116.57 880.68 1116.57 681.35 c 0,0,0
895.59 684.98 m 0,0,0
 895.59 815.44 895.59 815.44 835.57 882.32 c 0,0,0
 775.55 949.2 775.55 949.2 659.14 949.2 c 0,0,0
 534.7 949.2 534.7 949.2 457 882.51 c 0,0,0
 404.98 837.83 404.98 837.83 368.46 762.775 c 0,0,0
 331.94 687.72 331.94 687.72 312.595 597.84 c 0,0,0
 293.25 507.96 293.25 507.96 293.25 417.98 c 0,0,0
 293.25 280.54 293.25 280.54 353.125 209.805 c 0,0,0
 413 139.07 413 139.07 523.45 139.07 c 0,0,0
 609.96 139.07 609.96 139.07 667.19 168.14 c 0,0,0
 724.42 197.21 724.42 197.21 769.12 259.37 c 0,0,0
 807.39 307.41 807.39 307.41 835.68 378.935 c 0,0,0
 863.97 450.46 863.97 450.46 879.78 531.105 c 0,0,0
 895.59 611.75 895.59 611.75 895.59 684.98 c 0,0,0
EndSplineSet
EndChar

StartChar: uni018E
Encoding: 398 398 335
Width: 1366
GlyphClass: 2
Flags: W
LayerCount: 2
Fore
SplineSet
-13.5 0 m 1,0,0
 23.13 179.76 l 1,0,0
 907.15 179.76 l 1,0,0
 999.6 625.55 l 1,0,0
 203.38 625.55 l 1,0,0
 240.01 803.97 l 1,0,0
 1036.23 803.97 l 1,0,0
 1124.31 1229.24 l 1,0,0
 254.23 1229.24 l 1,0,0
 291.19 1409 l 1,0,0
 1386.26 1409 l 1,0,0
 1095.84 0 l 1,0,0
 -13.5 0 l 1,0,0
EndSplineSet
EndChar

StartChar: uni018F
Encoding: 399 399 336
Width: 1572
GlyphClass: 2
Flags: W
LayerCount: 2
Fore
SplineSet
1264.85 822.54 m 1,0,0
 1265.85 841.57 1265.85 841.57 1266.35 855.905 c 0,0,0
 1266.85 870.24 1266.85 870.24 1266.85 879.55 c 0,0,0
 1266.85 1049.42 1266.85 1049.42 1170.115 1149.5 c 0,0,0
 1073.38 1249.58 1073.38 1249.58 907.86 1249.58 c 0,0,0
 824.86 1249.58 824.86 1249.58 755.81 1231.58 c 0,0,0
 671.68 1209.23 671.68 1209.23 604.065 1157.665 c 0,0,0
 536.45 1106.1 536.45 1106.1 473.75 1013.08 c 1,0,0
 275.72 1077.37 l 1,0,0
 384.16 1259.34 384.16 1259.34 541.38 1344.67 c 0,0,0
 698.6 1430 698.6 1430 915.88 1430 c 0,0,0
 1093.87 1430 1093.87 1430 1222.345 1360.345 c 0,0,0
 1350.82 1290.69 1350.82 1290.69 1420.3 1161.375 c 0,0,0
 1489.78 1032.06 1489.78 1032.06 1489.78 852.41 c 0,0,0
 1489.78 601.71 1489.78 601.71 1388.81 401.36 c 0,0,0
 1287.51 201.01 1287.51 201.01 1102.86 90.505 c 0,0,0
 918.21 -20 918.21 -20 677.84 -20 c 0,0,0
 504.45 -20 504.45 -20 379.43 47.64 c 0,0,0
 252.4 114.95 252.4 114.95 184.725 242.435 c 0,0,0
 117.05 369.92 117.05 369.92 117.05 541.65 c 0,0,0
 117.05 673.55 117.05 673.55 157.68 822.54 c 1,0,0
 1264.85 822.54 l 1,0,0
702.01 152.4 m 0,0,0
 903.59 152.4 903.59 152.4 1040.895 279.165 c 0,0,0
 1178.2 405.93 1178.2 405.93 1234.91 639.13 c 1,0,0
 342 639.13 l 1,0,0
 333.66 587.41 333.66 587.41 333.66 533.4 c 0,0,0
 333.66 350.88 333.66 350.88 429.58 251.64 c 0,0,0
 525.5 152.4 525.5 152.4 702.01 152.4 c 0,0,0
EndSplineSet
EndChar

StartChar: uni0190
Encoding: 400 400 337
Width: 1276
GlyphClass: 2
Flags: W
LayerCount: 2
Fore
SplineSet
550.94 -20 m 0,0,0
 394.21 -20 394.21 -20 279.88 33.7 c 0,0,0
 181.96 80.03 181.96 80.03 128.67 159.85 c 0,0,0
 75.38 239.67 75.38 239.67 75.38 344.34 c 0,0,0
 75.38 506.03 75.38 506.03 179.065 609.38 c 0,0,0
 282.75 712.73 282.75 712.73 466.73 738.06 c 1,0,0
 359.72 767.05 359.72 767.05 300.725 835.21 c 0,0,0
 241.73 903.37 241.73 903.37 241.73 1004.38 c 0,0,0
 241.73 1132.39 241.73 1132.39 312.06 1231.38 c 0,0,0
 379.04 1325.69 379.04 1325.69 501.18 1377.345 c 0,0,0
 623.32 1429 623.32 1429 780.99 1429 c 0,0,0
 986.93 1429 986.93 1429 1106.87 1340.055 c 0,0,0
 1226.81 1251.11 1226.81 1251.11 1264.13 1070.84 c 1,0,0
 1057.12 1016.87 l 1,0,0
 1023.42 1146.55 1023.42 1146.55 953.9 1200.045 c 0,0,0
 884.38 1253.54 884.38 1253.54 766.67 1253.54 c 0,0,0
 628.23 1253.54 628.23 1253.54 545.66 1185.47 c 0,0,0
 463.09 1117.4 463.09 1117.4 463.09 998.32 c 0,0,0
 463.09 906.58 463.09 906.58 537.47 858.745 c 0,0,0
 611.85 810.91 611.85 810.91 764.62 810.91 c 2,0,0
 824.96 810.91 l 1,0,0
 791.01 636.84 l 1,0,0
 723.97 636.84 l 2,0,0
 508.89 636.84 508.89 636.84 405.635 570.26 c 0,0,0
 302.38 503.68 302.38 503.68 302.38 366.23 c 0,0,0
 302.38 269.16 302.38 269.16 376.41 213.455 c 0,0,0
 450.44 157.75 450.44 157.75 578.83 157.75 c 0,0,0
 829.23 157.75 829.23 157.75 986.37 423.48 c 1,0,0
 1165.03 321.63 l 1,0,0
 1086.62 193.92 1086.62 193.92 1003.3 123.61 c 0,0,0
 917 50.32 917 50.32 805.57 15.16 c 0,0,0
 694.14 -20 694.14 -20 550.94 -20 c 0,0,0
EndSplineSet
EndChar

StartChar: uni0191
Encoding: 401 401 338
Width: 1251
GlyphClass: 2
Flags: W
LayerCount: 2
Fore
SplineSet
256.72 -114.81 m 2,0,0
 226.08 -272.36 226.08 -272.36 139.615 -348.345 c 0,0,0
 53.15 -424.33 53.15 -424.33 -108.4 -424.33 c 0,0,0
 -175.71 -424.33 -175.71 -424.33 -242.27 -403.66 c 1,0,0
 -208.31 -227.21 l 1,0,0
 -157.7 -243.56 -157.7 -243.56 -120 -243.56 c 0,0,0
 -53.99 -243.56 -53.99 -243.56 -15.47 -202.045 c 0,0,0
 23.05 -160.53 23.05 -160.53 40.06 -72.82 c 2,0,0
 327.09 1409 l 1,0,0
 1329.84 1409 l 1,0,0
 1295.22 1229.24 l 1,0,0
 517.79 1229.24 l 1,0,0
 421.4 734.28 l 1,0,0
 1175.16 734.28 l 1,0,0
 1139.87 553.18 l 1,0,0
 386.11 553.18 l 1,0,0
 256.72 -114.81 l 2,0,0
EndSplineSet
EndChar

StartChar: florin
Encoding: 402 402 339
Width: 1139
GlyphClass: 2
Flags: W
LayerCount: 2
Fore
SplineSet
1033.61 1303.42 m 1,0,0
 1013.23 1309.44 1013.23 1309.44 983.91 1313.105 c 0,0,0
 954.59 1316.77 954.59 1316.77 928.23 1316.77 c 0,0,0
 865.92 1316.77 865.92 1316.77 834.58 1281.42 c 0,0,0
 803.24 1246.07 803.24 1246.07 786.22 1161.64 c 2,0,0
 763.52 1041.8 l 1,0,0
 975.18 1041.8 l 1,0,0
 946.22 891.33 l 1,0,0
 733.22 891.33 l 1,0,0
 475.22 -445.77 l 1,0,0
 262.22 -445.77 l 1,0,0
 520.22 891.33 l 1,0,0
 366.24 891.33 l 1,0,0
 396.54 1041.8 l 1,0,0
 549.85 1041.8 l 1,0,0
 576.54 1180.93 l 2,0,0
 607.21 1334.59 607.21 1334.59 688.31 1399.245 c 0,0,0
 769.41 1463.9 769.41 1463.9 915.28 1463.9 c 0,0,0
 989.97 1463.9 989.97 1463.9 1066.26 1444.89 c 1,0,0
 1033.61 1303.42 l 1,0,0
EndSplineSet
EndChar

StartChar: uni0193
Encoding: 403 403 340
Width: 1593
GlyphClass: 2
Flags: W
LayerCount: 2
Fore
SplineSet
741.34 -19.67 m 0,0,0
 437.99 -19.67 437.99 -19.67 269.33 137.155 c 0,0,0
 100.67 293.98 100.67 293.98 100.67 576.3 c 0,0,0
 100.67 825.64 100.67 825.64 205.34 1020.98 c 0,0,0
 310.01 1216.66 310.01 1216.66 502.345 1323.33 c 0,0,0
 694.68 1430 694.68 1430 943.34 1430 c 0,0,0
 1210.2 1430 1210.2 1430 1361.2 1303.88 c 1,0,0
 1370.83 1352.68 l 2,0,0
 1398.83 1495.68 1398.83 1495.68 1485.28 1570.855 c 0,0,0
 1571.73 1646.03 1571.73 1646.03 1705.32 1646.03 c 0,0,0
 1772.29 1646.03 1772.29 1646.03 1834.22 1626.35 c 1,0,0
 1801.59 1457.86 l 1,0,0
 1753.29 1473.88 1753.29 1473.88 1715.92 1473.88 c 0,0,0
 1653.2 1473.88 1653.2 1473.88 1614.185 1435.17 c 0,0,0
 1575.17 1396.46 1575.17 1396.46 1557.83 1308.09 c 2,0,0
 1513.25 1078.53 l 1,0,0
 1290.88 1016.61 l 1,0,0
 1256.52 1130.95 1256.52 1130.95 1164.14 1189.935 c 0,0,0
 1071.76 1248.92 1071.76 1248.92 930.02 1248.92 c 0,0,0
 749.25 1248.92 749.25 1248.92 612.5 1166.55 c 0,0,0
 475.75 1083.85 475.75 1083.85 403.205 932.28 c 0,0,0
 330.66 780.71 330.66 780.71 330.66 581.95 c 0,0,0
 330.66 382.17 330.66 382.17 441.07 271.125 c 0,0,0
 551.48 160.08 551.48 160.08 753.28 160.08 c 0,0,0
 883.39 160.08 883.39 160.08 1003.145 196.13 c 0,0,0
 1122.9 232.18 1122.9 232.18 1203.61 296.28 c 1,0,0
 1252.96 541.7 l 1,0,0
 858.03 541.7 l 1,0,0
 892.34 717.54 l 1,0,0
 1494.95 717.54 l 1,0,0
 1393.3 198.45 l 1,0,0
 1250.99 84.06 1250.99 84.06 1092.985 32.195 c 0,0,0
 934.98 -19.67 934.98 -19.67 741.34 -19.67 c 0,0,0
EndSplineSet
EndChar

StartChar: uni0194
Encoding: 404 404 341
Width: 1100
GlyphClass: 2
Flags: W
LayerCount: 2
Fore
SplineSet
384.91 -425 m 0,0,0
 275.98 -425 275.98 -425 210.695 -363.365 c 0,0,0
 145.41 -301.73 145.41 -301.73 145.41 -196.42 c 0,0,0
 145.41 -142.12 145.41 -142.12 168.9 -78.965 c 0,0,0
 192.39 -15.81 192.39 -15.81 239.97 59.78 c 0,0,0
 261.95 94.44 261.95 94.44 297.96 144.65 c 0,0,0
 333.97 194.86 333.97 194.86 384.35 261.29 c 1,0,0
 91.9 1409 l 1,0,0
 326.2 1409 l 1,0,0
 537.43 455.23 l 1,0,0
 1117.83 1409 l 1,0,0
 1356.5 1409 l 1,0,0
 615.68 254.59 l 1,0,0
 669.64 90.99 669.64 90.99 684.3 18.63 c 0,0,0
 698.29 -50.04 698.29 -50.04 698.29 -106.72 c 0,0,0
 698.29 -198.99 698.29 -198.99 659.33 -274.33 c 0,0,0
 621.02 -348.68 621.02 -348.68 550.415 -386.84 c 0,0,0
 479.81 -425 479.81 -425 384.91 -425 c 0,0,0
406.51 -256.19 m 0,0,0
 457.17 -256.19 457.17 -256.19 484.185 -212.82 c 0,0,0
 511.2 -169.45 511.2 -169.45 511.2 -95.67 c 0,0,0
 511.2 -37.36 511.2 -37.36 501.22 15.675 c 0,0,0
 491.24 68.71 491.24 68.71 475.89 118.45 c 1,0,0
 438.57 64.77 l 2,0,0
 389.54 -7.99 389.54 -7.99 362.68 -71.41 c 0,0,0
 335.82 -134.83 335.82 -134.83 335.82 -175.51 c 0,0,0
 335.82 -212.2 335.82 -212.2 354.495 -234.195 c 0,0,0
 373.17 -256.19 373.17 -256.19 406.51 -256.19 c 0,0,0
EndSplineSet
EndChar

StartChar: uni0195
Encoding: 405 405 342
Width: 1837
GlyphClass: 2
Flags: W
LayerCount: 2
Fore
SplineSet
1171.39 -20 m 0,0,0
 984.11 -20 984.11 -20 885.995 58.985 c 0,0,0
 787.88 137.97 787.88 137.97 787.88 279.25 c 0,0,0
 787.88 309.82 787.88 309.82 792.03 342.715 c 0,0,0
 796.18 375.61 796.18 375.61 802.83 409.18 c 2,0,0
 848.63 640.53 l 2,0,0
 857.29 682.18 857.29 682.18 862.275 719.31 c 0,0,0
 867.26 756.44 867.26 756.44 867.26 782.78 c 0,0,0
 867.26 937.91 867.26 937.91 697.84 937.91 c 0,0,0
 619.45 937.91 619.45 937.91 550.75 896.22 c 0,0,0
 482.05 854.53 482.05 854.53 433.695 780.815 c 0,0,0
 385.34 707.1 385.34 707.1 365.99 609.35 c 2,0,0
 247.32 0 l 1,0,0
 34.33 0 l 1,0,0
 321.67 1484 l 1,0,0
 534.67 1484 l 1,0,0
 458.35 1091.73 l 2,0,0
 448.35 1039.7 448.35 1039.7 437.51 991.35 c 0,0,0
 426.67 943 426.67 943 414.66 897 c 1,0,0
 417.66 897 l 1,0,0
 491.65 1004 491.65 1004 578.8 1052.5 c 0,0,0
 665.95 1101 665.95 1101 785.3 1101 c 0,0,0
 933.28 1101 933.28 1101 1008.94 1028 c 0,0,0
 1084.6 955 1084.6 955 1084.6 819.01 c 0,0,0
 1084.6 787.02 1084.6 787.02 1080.275 748.075 c 0,0,0
 1075.95 709.13 1075.95 709.13 1065.97 661.23 c 2,0,0
 1020.85 430.27 l 2,0,0
 1003.89 349.14 1003.89 349.14 1003.89 309.43 c 0,0,0
 1003.89 225.78 1003.89 225.78 1045.745 183.6 c 0,0,0
 1087.6 141.42 1087.6 141.42 1182.03 141.42 c 0,0,0
 1295.12 141.42 1295.12 141.42 1358.475 203.24 c 0,0,0
 1421.83 265.06 1421.83 265.06 1450.85 411.82 c 2,0,0
 1581.55 1082 l 1,0,0
 1795.22 1082 l 1,0,0
 1661.16 395.03 l 2,0,0
 1618.52 176.5 1618.52 176.5 1498.74 78.25 c 0,0,0
 1378.96 -20 1378.96 -20 1171.39 -20 c 0,0,0
EndSplineSet
EndChar

StartChar: uni0196
Encoding: 406 406 343
Width: 492
GlyphClass: 2
Flags: W
LayerCount: 2
Fore
SplineSet
278.32 142.96 m 0,0,0
 278.32 102.65 278.32 102.65 289.995 65.825 c 0,0,0
 301.67 29 301.67 29 322.33 0 c 1,0,0
 90.67 0 l 1,0,0
 63 42.97 63 42.97 63 126.65 c 0,0,0
 63 177.68 63 177.68 74 236 c 2,0,0
 317 1484 l 1,0,0
 530.66 1484 l 1,0,0
 287.32 231.62 l 2,0,0
 282.99 209.97 282.99 209.97 280.655 186.125 c 0,0,0
 278.32 162.28 278.32 162.28 278.32 142.96 c 0,0,0
EndSplineSet
EndChar

StartChar: uni0197
Encoding: 407 407 344
Width: 569
GlyphClass: 2
Flags: W
LayerCount: 2
Fore
SplineSet
406.85 656.82 m 1,0,0
 278.82 0 l 1,0,0
 66.16 0 l 1,0,0
 193.52 656.82 l 1,0,0
 36.45 656.82 l 1,0,0
 68.73 824.22 l 1,0,0
 226.47 824.22 l 1,0,0
 354.49 1484 l 1,0,0
 567.82 1484 l 1,0,0
 439.13 824.22 l 1,0,0
 604.51 824.22 l 1,0,0
 572.23 656.82 l 1,0,0
 406.85 656.82 l 1,0,0
EndSplineSet
EndChar

StartChar: uni0198
Encoding: 408 408 345
Width: 1403
GlyphClass: 2
Flags: W
LayerCount: 2
Fore
SplineSet
745.45 783.62 m 1,0,0
 1272.09 0 l 1,0,0
 1013.09 0 l 1,0,0
 579.7 662.78 l 1,0,0
 382.77 535.76 l 1,0,0
 279.08 0 l 1,0,0
 54.09 0 l 1,0,0
 327.09 1409 l 1,0,0
 552.08 1409 l 1,0,0
 418.39 735.16 l 1,0,0
 575.23 874.06 l 1,0,0
 1022.96 1254.4 l 2,0,0
 1059.53 1285.32 1059.53 1285.32 1093.295 1310.775 c 0,0,0
 1127.06 1336.23 1127.06 1336.23 1159 1356.89 c 0,0,0
 1260.36 1426.65 1260.36 1426.65 1379.73 1426.65 c 0,0,0
 1417.37 1426.65 1417.37 1426.65 1450.53 1420.65 c 0,0,0
 1483.69 1414.65 1483.69 1414.65 1510.68 1405.98 c 1,0,0
 1474.72 1226.85 l 1,0,0
 1453.07 1233.86 1453.07 1233.86 1430.915 1238.53 c 0,0,0
 1408.76 1243.2 1408.76 1243.2 1386.09 1243.2 c 0,0,0
 1341.77 1243.2 1341.77 1243.2 1290.44 1221.22 c 0,0,0
 1239.44 1198.57 1239.44 1198.57 1156.35 1127.83 c 2,0,0
 745.45 783.62 l 1,0,0
EndSplineSet
EndChar

StartChar: uni0199
Encoding: 409 409 346
Width: 1061
GlyphClass: 2
Flags: W
LayerCount: 2
Fore
SplineSet
322.95 392.52 m 1,0,0
 246.66 0 l 1,0,0
 34.33 0 l 1,0,0
 268.69 1207.8 l 2,0,0
 295.01 1347.06 295.01 1347.06 377.805 1420.22 c 0,0,0
 460.6 1493.38 460.6 1493.38 595.79 1493.38 c 0,0,0
 670.41 1493.38 670.41 1493.38 732.34 1473.7 c 1,0,0
 699.71 1305.21 l 1,0,0
 649.4 1322.57 649.4 1322.57 618.73 1322.57 c 0,0,0
 559.36 1322.57 559.36 1322.57 523.02 1280.51 c 0,0,0
 486.68 1238.45 486.68 1238.45 469.01 1146.73 c 2,0,0
 360.62 589.11 l 1,0,0
 559.34 776.14 l 1,0,0
 892.62 1082 l 1,0,0
 1147.62 1082 l 1,0,0
 636.43 631.19 l 1,0,0
 952.3 0 l 1,0,0
 723.31 0 l 1,0,0
 481.71 500.35 l 1,0,0
 322.95 392.52 l 1,0,0
EndSplineSet
EndChar

StartChar: uni019A
Encoding: 410 410 347
Width: 492
GlyphClass: 2
Flags: W
LayerCount: 2
Fore
SplineSet
368.33 651.81 m 1,0,0
 241.97 0 l 1,0,0
 29.64 0 l 1,0,0
 156 651.81 l 1,0,0
 16.4 651.81 l 1,0,0
 49.36 808.91 l 1,0,0
 186.29 808.91 l 1,0,0
 317.64 1484 l 1,0,0
 530.97 1484 l 1,0,0
 398.95 808.91 l 1,0,0
 547.84 808.91 l 1,0,0
 514.88 651.81 l 1,0,0
 368.33 651.81 l 1,0,0
EndSplineSet
EndChar

StartChar: uni019B
Encoding: 411 411 348
Width: 1051
GlyphClass: 2
Flags: W
LayerCount: 2
Fore
SplineSet
897.51 1278.26 m 1,0,0
 716.62 1213 l 1,0,0
 940.91 0 l 1,0,0
 723.29 0 l 1,0,0
 634.58 555.22 l 2,0,0
 625.24 609.56 625.24 609.56 617.915 663.06 c 0,0,0
 610.59 716.56 610.59 716.56 606.61 768.89 c 1,0,0
 598.98 755.62 598.98 755.62 594.53 746.54 c 0,0,0
 590.08 737.46 590.08 737.46 580.44 720.17 c 0,0,0
 570.8 702.88 570.8 702.88 548.26 664.99 c 0,0,0
 525.72 627.1 525.72 627.1 481.91 554.87 c 2,0,0
 138.64 0 l 1,0,0
 -89.69 0 l 1,0,0
 547.75 997.82 l 1,0,0
 523.34 1141.51 l 1,0,0
 284.33 1057.02 l 1,0,0
 255.72 1193.17 l 1,0,0
 493.04 1279.33 l 1,0,0
 455.73 1484 l 1,0,0
 666.63 1484 l 1,0,0
 689.99 1353.16 l 1,0,0
 868.57 1417.76 l 1,0,0
 897.51 1278.26 l 1,0,0
EndSplineSet
EndChar

StartChar: uni019C
Encoding: 412 412 349
Width: 1776
GlyphClass: 2
Flags: W
LayerCount: 2
Fore
SplineSet
1034.07 -20 m 0,0,0
 951.7 -20 951.7 -20 896.65 6.02 c 0,0,0
 851.33 26.68 851.33 26.68 818.99 63.665 c 0,0,0
 786.65 100.65 786.65 100.65 764.32 160.21 c 1,0,0
 762.01 160.21 l 1,0,0
 732.37 127.59 732.37 127.59 705.055 102.785 c 0,0,0
 677.74 77.98 677.74 77.98 652.41 59.32 c 0,0,0
 594.39 17.31 594.39 17.31 533.91 -1.345 c 0,0,0
 473.43 -20 473.43 -20 403.14 -20 c 0,0,0
 242.42 -20 242.42 -20 158.72 60.865 c 0,0,0
 75.02 141.73 75.02 141.73 75.02 298.11 c 0,0,0
 75.02 365.16 75.02 365.16 93.05 458.98 c 2,0,0
 277.99 1409 l 1,0,0
 501.3 1409 l 1,0,0
 321.64 484.04 l 2,0,0
 301.99 382.13 301.99 382.13 301.99 325.06 c 0,0,0
 301.99 235.26 301.99 235.26 340.705 194.37 c 0,0,0
 379.42 153.48 379.42 153.48 464.21 153.48 c 0,0,0
 579.6 153.48 579.6 153.48 650.585 232.13 c 0,0,0
 721.57 310.78 721.57 310.78 750.25 456.5 c 2,0,0
 934.95 1409 l 1,0,0
 1158.93 1409 l 1,0,0
 975.25 462.6 l 2,0,0
 955.95 366.8 955.95 366.8 955.95 315.73 c 0,0,0
 955.95 234.59 955.95 234.59 994.15 194.035 c 0,0,0
 1032.35 153.48 1032.35 153.48 1110.46 153.48 c 0,0,0
 1225.88 153.48 1225.88 153.48 1304.04 238.605 c 0,0,0
 1382.2 323.73 1382.2 323.73 1413.2 483.08 c 2,0,0
 1593.25 1409 l 1,0,0
 1817.23 1409 l 1,0,0
 1591.53 247.17 l 2,0,0
 1580.54 191.24 1580.54 191.24 1570.39 129.78 c 0,0,0
 1560.24 68.32 1560.24 68.32 1550.26 0.33 c 1,0,0
 1338.04 0.33 l 1,0,0
 1357.37 153.59 l 1,0,0
 1354.04 150.91 l 1,0,0
 1295.38 67.65 1295.38 67.65 1215.195 23.825 c 0,0,0
 1135.01 -20 1135.01 -20 1034.07 -20 c 0,0,0
EndSplineSet
EndChar

StartChar: uni019D
Encoding: 413 413 350
Width: 1479
GlyphClass: 2
Flags: W
LayerCount: 2
Fore
SplineSet
953.01 0 m 1,0,0
 473.82 1183.93 l 1,0,0
 458.8 1081.49 458.8 1081.49 448.63 1016.8 c 0,0,0
 438.46 952.11 438.46 952.11 433.14 926.17 c 2,0,0
 233.09 -111.84 l 2,0,0
 211.11 -223.41 211.11 -223.41 168.96 -292.54 c 0,0,0
 126.81 -361.67 126.81 -361.67 59.175 -393 c 0,0,0
 -8.46 -424.33 -8.46 -424.33 -108.73 -424.33 c 0,0,0
 -176.04 -424.33 -176.04 -424.33 -242.6 -403.66 c 1,0,0
 -207.65 -223.91 l 1,0,0
 -158.03 -240.26 -158.03 -240.26 -120 -240.26 c 0,0,0
 -53.99 -240.26 -53.99 -240.26 -15.305 -198.745 c 0,0,0
 23.38 -157.23 23.38 -157.23 40.39 -69.52 c 2,0,0
 327.42 1409 l 1,0,0
 584.96 1409 l 1,0,0
 1067.15 218.42 l 1,0,0
 1078.5 304.51 1078.5 304.51 1089.335 373.035 c 0,0,0
 1100.17 441.56 1100.17 441.56 1110.83 493.18 c 2,0,0
 1289.52 1409 l 1,0,0
 1491.22 1409 l 1,0,0
 1217.89 0 l 1,0,0
 953.01 0 l 1,0,0
EndSplineSet
EndChar

StartChar: uni019E
Encoding: 414 414 351
Width: 1175
GlyphClass: 2
Flags: W
LayerCount: 2
Fore
SplineSet
1067.24 669.17 m 2,0,0
 853.61 -425 l 1,0,0
 640.27 -425 l 1,0,0
 847.29 628.5 l 2,0,0
 867.93 730.04 867.93 730.04 867.93 783.45 c 0,0,0
 867.93 937.91 867.93 937.91 697.84 937.91 c 0,0,0
 619.45 937.91 619.45 937.91 551.085 896.555 c 0,0,0
 482.72 855.2 482.72 855.2 434.365 780.815 c 0,0,0
 386.01 706.43 386.01 706.43 365.99 606 c 2,0,0
 247.99 0 l 1,0,0
 34.33 0 l 1,0,0
 192.96 809.46 l 2,0,0
 199.64 840.19 199.64 840.19 204.98 881.45 c 0,0,0
 210.32 922.71 210.32 922.71 211.64 942.68 c 0,0,0
 212.96 954.64 212.96 954.64 213.11 982.835 c 0,0,0
 213.26 1011.03 213.26 1011.03 213.075 1040.05 c 0,0,0
 212.89 1069.07 212.89 1069.07 212.87 1082 c 1,0,0
 412.53 1082 l 1,0,0
 415.88 1066.62 415.88 1066.62 416.74 1035.49 c 0,0,0
 417.6 1004.36 417.6 1004.36 416.79 967.72 c 0,0,0
 415.98 931.08 415.98 931.08 414.66 897 c 1,0,0
 417.66 897 l 1,0,0
 498.35 1009.36 498.35 1009.36 584.16 1055.18 c 0,0,0
 669.97 1101 669.97 1101 785.3 1101 c 0,0,0
 934.62 1101 934.62 1101 1009.945 1028 c 0,0,0
 1085.27 955 1085.27 955 1085.27 817 c 0,0,0
 1085.27 788.96 1085.27 788.96 1080.765 750.6 c 0,0,0
 1076.26 712.24 1076.26 712.24 1067.24 669.17 c 2,0,0
EndSplineSet
EndChar

StartChar: Ohorn
Encoding: 416 416 353
Width: 1679
GlyphClass: 2
Flags: W
LayerCount: 2
Fore
SplineSet
934.7 1430 m 0,0,0
 1172.28 1430 1172.28 1430 1328.405 1317.205 c 0,0,0
 1484.53 1204.41 1484.53 1204.41 1527.56 999.82 c 1,0,0
 1624.3 1040.55 1624.3 1040.55 1668.67 1091.58 c 0,0,0
 1713.04 1142.61 1713.04 1142.61 1728.05 1211.31 c 1,0,0
 1627.18 1211.31 l 1,0,0
 1667.46 1409 l 1,0,0
 1892.82 1409 l 1,0,0
 1864.22 1268.02 l 2,0,0
 1835.55 1129.37 1835.55 1129.37 1761.57 1042.72 c 0,0,0
 1687.59 956.07 1687.59 956.07 1540.24 899.67 c 1,0,0
 1541.58 878.63 1541.58 878.63 1542.42 860.275 c 0,0,0
 1543.26 841.92 1543.26 841.92 1542.93 826.58 c 0,0,0
 1540.62 672.34 1540.62 672.34 1493.02 531.79 c 0,0,0
 1445.42 391.24 1445.42 391.24 1355.54 282.13 c 0,0,0
 1246.19 135.72 1246.19 135.72 1080.8 57.86 c 0,0,0
 915.41 -20 915.41 -20 714.94 -20 c 0,0,0
 496.81 -20 496.81 -20 349.12 75.45 c 0,0,0
 231.91 149.46 231.91 149.46 169.64 276.59 c 0,0,0
 107.37 403.72 107.37 403.72 107.37 573 c 0,0,0
 107.37 811.68 107.37 811.68 213.37 1012.67 c 0,0,0
 318.37 1213.66 318.37 1213.66 506.71 1321.83 c 0,0,0
 695.05 1430 695.05 1430 934.7 1430 c 0,0,0
924.05 1249.93 m 0,0,0
 672.27 1249.93 672.27 1249.93 526.11 1095.2 c 0,0,0
 465.52 1035.82 465.52 1035.82 422.57 949.315 c 0,0,0
 379.62 862.81 379.62 862.81 356.98 764.175 c 0,0,0
 334.34 665.54 334.34 665.54 334.34 568.94 c 0,0,0
 334.34 367.86 334.34 367.86 435.395 264.135 c 0,0,0
 536.45 160.41 536.45 160.41 725.59 160.41 c 0,0,0
 910.71 160.41 910.71 160.41 1041.46 243.45 c 0,0,0
 1128.18 298.81 1128.18 298.81 1189.385 391.855 c 0,0,0
 1250.59 484.9 1250.59 484.9 1282.945 601.29 c 0,0,0
 1315.3 717.68 1315.3 717.68 1315.3 840.4 c 0,0,0
 1315.3 1037.17 1315.3 1037.17 1213.73 1143.55 c 0,0,0
 1112.16 1249.93 1112.16 1249.93 924.05 1249.93 c 0,0,0
EndSplineSet
EndChar

StartChar: ohorn
Encoding: 417 417 354
Width: 1283
GlyphClass: 2
Flags: W
LayerCount: 2
Fore
SplineSet
505.52 -20 m 0,0,0
 302.26 -20 302.26 -20 183.97 97 c 0,0,0
 65.68 214 65.68 214 65.68 419 c 0,0,0
 65.68 609.28 65.68 609.28 137.64 770.98 c 0,0,0
 209.6 932.01 209.6 932.01 342.865 1016.505 c 0,0,0
 476.13 1101 476.13 1101 662.46 1101 c 0,0,0
 865.31 1101 865.31 1101 979.93 1004.9 c 0,0,0
 1094.55 908.8 1094.55 908.8 1107.95 732.58 c 0,0,0
 1108.62 723.25 1108.62 723.25 1108.79 713.59 c 0,0,0
 1108.96 703.93 1108.96 703.93 1109.63 693.6 c 1,0,0
 1178.62 724.33 1178.62 724.33 1217.965 771.855 c 0,0,0
 1257.31 819.38 1257.31 819.38 1270.64 888.33 c 1,0,0
 1176.37 888.33 l 1,0,0
 1216.65 1086.02 l 1,0,0
 1435.41 1086.02 l 1,0,0
 1406.81 945.04 l 2,0,0
 1378.83 807.49 1378.83 807.49 1307.395 720.685 c 0,0,0
 1235.96 633.88 1235.96 633.88 1103.02 586.11 c 1,0,0
 1089.76 457.84 1089.76 457.84 1037.2 335.605 c 0,0,0
 984.64 213.37 984.64 213.37 899.09 131.29 c 0,0,0
 749.77 -20 749.77 -20 505.52 -20 c 0,0,0
888.99 676.07 m 0,0,0
 888.99 949.2 888.99 949.2 654.19 949.2 c 0,0,0
 525.46 949.2 525.46 949.2 448.75 882.51 c 0,0,0
 397.72 837.83 397.72 837.83 361.53 760.96 c 0,0,0
 325.34 684.09 325.34 684.09 306.16 594.375 c 0,0,0
 286.98 504.66 286.98 504.66 286.98 420.95 c 0,0,0
 286.98 278.89 286.98 278.89 347.02 205.68 c 0,0,0
 407.06 132.47 407.06 132.47 523.12 132.47 c 0,0,0
 610.61 132.47 610.61 132.47 667.17 160.705 c 0,0,0
 723.73 188.94 723.73 188.94 766.11 247.09 c 0,0,0
 802.07 292.46 802.07 292.46 829.71 362.155 c 0,0,0
 857.35 431.85 857.35 431.85 873.17 513.67 c 0,0,0
 888.99 595.49 888.99 595.49 888.99 676.07 c 0,0,0
EndSplineSet
EndChar

StartChar: uni01A2
Encoding: 418 418 355
Width: 1802
GlyphClass: 2
Flags: W
LayerCount: 2
Fore
SplineSet
701.41 -20 m 0,0,0
 419.39 -20 419.39 -20 263.875 135.685 c 0,0,0
 108.36 291.37 108.36 291.37 108.36 568.05 c 0,0,0
 108.36 814.32 108.36 814.32 212.71 1014.32 c 0,0,0
 316.39 1213.66 316.39 1213.66 505.225 1321.83 c 0,0,0
 694.06 1430 694.06 1430 937.67 1430 c 0,0,0
 1028.62 1430 1028.62 1430 1119.06 1409.345 c 0,0,0
 1209.5 1388.69 1209.5 1388.69 1286.88 1351.02 c 1,0,0
 1771.35 1423.66 l 1,0,0
 1824.25 1423.66 l 1,0,0
 1464.92 -424.33 l 1,0,0
 1251.26 -424.33 l 1,0,0
 1568.62 1207.8 l 1,0,0
 1333.05 1209.14 l 1,0,0
 1111.69 68.7 l 1,0,0
 1046.6 38.33 1046.6 38.33 978.785 18.325 c 0,0,0
 910.97 -1.68 910.97 -1.68 841.685 -10.84 c 0,0,0
 772.4 -20 772.4 -20 701.41 -20 c 0,0,0
1120.72 1214.8 m 1,0,0
 1038.6 1251.91 1038.6 1251.91 927.35 1251.91 c 0,0,0
 677.55 1251.91 677.55 1251.91 530.07 1094.87 c 0,0,0
 468.49 1033.84 468.49 1033.84 424.88 947.5 c 0,0,0
 381.27 861.16 381.27 861.16 358.465 762.03 c 0,0,0
 335.66 662.9 335.66 662.9 335.66 562.67 c 0,0,0
 335.66 364.57 335.66 364.57 433.9 261.665 c 0,0,0
 532.14 158.76 532.14 158.76 722.93 158.76 c 0,0,0
 835.19 158.76 835.19 158.76 922.67 194.2 c 1,0,0
 1120.72 1214.8 l 1,0,0
EndSplineSet
EndChar

StartChar: uni01A3
Encoding: 419 419 356
Width: 1411
GlyphClass: 2
Flags: W
LayerCount: 2
Fore
SplineSet
498.92 -20 m 0,0,0
 299.62 -20 299.62 -20 184.96 97.495 c 0,0,0
 70.3 214.99 70.3 214.99 70.3 419.33 c 0,0,0
 70.3 608.62 70.3 608.62 141.6 770.98 c 0,0,0
 212.57 932.34 212.57 932.34 344.185 1016.835 c 0,0,0
 475.8 1101.33 475.8 1101.33 663.12 1101.33 c 0,0,0
 753.05 1101.33 753.05 1101.33 834.485 1080.185 c 0,0,0
 915.92 1059.04 915.92 1059.04 977.64 1021.37 c 1,0,0
 1344.14 1095.97 l 1,0,0
 1398.36 1095.97 l 1,0,0
 1102.7 -425 l 1,0,0
 901.96 -425 l 1,0,0
 1160.32 904.47 l 1,0,0
 969.67 904.47 l 1,0,0
 803.27 42.29 l 1,0,0
 672.76 -20 672.76 -20 498.92 -20 c 0,0,0
774.61 933.17 m 1,0,0
 725.83 949.2 725.83 949.2 656.83 949.2 c 0,0,0
 535.03 949.2 535.03 949.2 456.67 881.85 c 0,0,0
 404.32 836.84 404.32 836.84 366.81 760.96 c 0,0,0
 329.3 685.08 329.3 685.08 309.46 594.54 c 0,0,0
 289.62 504 289.62 504 289.62 414.68 c 0,0,0
 289.62 275.92 289.62 275.92 347.845 204.195 c 0,0,0
 406.07 132.47 406.07 132.47 518.5 132.47 c 0,0,0
 577.83 132.47 577.83 132.47 622.21 142.15 c 1,0,0
 774.61 933.17 l 1,0,0
EndSplineSet
EndChar

StartChar: uni01A4
Encoding: 420 420 357
Width: 1502
GlyphClass: 2
Flags: W
LayerCount: 2
Fore
SplineSet
995.53 1409 m 2,0,0
 1231.48 1409 1231.48 1409 1366.975 1302.36 c 0,0,0
 1502.47 1195.72 1502.47 1195.72 1502.47 1009.11 c 0,0,0
 1502.47 861.79 1502.47 861.79 1433.305 754.305 c 0,0,0
 1364.14 646.82 1364.14 646.82 1236.97 589.165 c 0,0,0
 1109.8 531.51 1109.8 531.51 935.12 531.51 c 2,0,0
 539.5 531.51 l 1,0,0
 436.14 0 l 1,0,0
 211.15 0 l 1,0,0
 450.86 1239.22 l 1,0,0
 432.89 1239.22 l 2,0,0
 346.15 1239.22 346.15 1239.22 302.455 1192.51 c 0,0,0
 258.76 1145.8 258.76 1145.8 258.76 1060.73 c 0,0,0
 259.43 1045.75 259.43 1045.75 261.09 1029.79 c 0,0,0
 262.75 1013.83 262.75 1013.83 265.4 995.22 c 1,0,0
 91.99 978.22 l 1,0,0
 88.65 993.87 88.65 993.87 86.815 1011.015 c 0,0,0
 84.98 1028.16 84.98 1028.16 84.98 1045.79 c 0,0,0
 84.98 1225.36 84.98 1225.36 176.8 1317.18 c 0,0,0
 268.62 1409 268.62 1409 449.2 1409 c 2,0,0
 995.53 1409 l 2,0,0
573.79 707.59 m 1,0,0
 915.58 707.59 l 2,0,0
 1094.37 707.59 1094.37 707.59 1184.095 778.99 c 0,0,0
 1273.82 850.39 1273.82 850.39 1273.82 997.8 c 0,0,0
 1273.82 1111.19 1273.82 1111.19 1199.77 1171.055 c 0,0,0
 1125.72 1230.92 1125.72 1230.92 982.94 1230.92 c 2,0,0
 675.52 1230.92 l 1,0,0
 573.79 707.59 l 1,0,0
EndSplineSet
EndChar

StartChar: uni01A5
Encoding: 421 421 358
Width: 1175
GlyphClass: 2
Flags: W
LayerCount: 2
Fore
SplineSet
589.64 -20 m 0,0,0
 465.98 -20 465.98 -20 388.315 32 c 0,0,0
 310.65 84 310.65 84 278.65 178 c 1,0,0
 274.64 178 l 1,0,0
 271.63 153.28 271.63 153.28 267.79 128.065 c 0,0,0
 263.95 102.85 263.95 102.85 259.94 77.47 c 0,0,0
 244.21 -8.88 244.21 -8.88 219.55 -134.495 c 0,0,0
 194.89 -260.11 194.89 -260.11 163.31 -425 c 1,0,0
 -49.02 -425 l 1,0,0
 266.02 1207.8 l 2,0,0
 292.34 1347.39 292.34 1347.39 375.465 1420.385 c 0,0,0
 458.59 1493.38 458.59 1493.38 594.44 1493.38 c 0,0,0
 666.42 1493.38 666.42 1493.38 737.26 1472.71 c 1,0,0
 704.63 1304.22 l 1,0,0
 649.7 1322.57 649.7 1322.57 618.37 1322.57 c 0,0,0
 556.69 1322.57 556.69 1322.57 520.19 1278.86 c 0,0,0
 483.69 1235.15 483.69 1235.15 466.34 1146.73 c 2,0,0
 422 921.04 l 1,0,0
 424.66 921.04 l 1,0,0
 499 1018.68 499 1018.68 580.655 1060.34 c 0,0,0
 662.31 1102 662.31 1102 776.31 1102 c 0,0,0
 933.97 1102 933.97 1102 1021.965 1007.5 c 0,0,0
 1109.96 913 1109.96 913 1109.96 748 c 0,0,0
 1109.96 544.99 1109.96 544.99 1048.63 355 c 0,0,0
 987.3 164.34 987.3 164.34 875.135 72.17 c 0,0,0
 762.97 -20 762.97 -20 589.64 -20 c 0,0,0
701.87 944.52 m 0,0,0
 522.09 944.52 522.09 944.52 429.37 789.45 c 0,0,0
 399.02 737.43 399.02 737.43 376.34 665.565 c 0,0,0
 353.66 593.7 353.66 593.7 341.655 519.83 c 0,0,0
 329.65 445.96 329.65 445.96 329.65 384.92 c 0,0,0
 329.65 265.86 329.65 265.86 389.685 199.33 c 0,0,0
 449.72 132.8 449.72 132.8 556.78 132.8 c 0,0,0
 673.18 132.8 673.18 132.8 739.55 203.16 c 0,0,0
 784.91 249.84 784.91 249.84 817.6 338.215 c 0,0,0
 850.29 426.59 850.29 426.59 868.305 526.975 c 0,0,0
 886.32 627.36 886.32 627.36 886.32 708.74 c 0,0,0
 886.32 826.13 886.32 826.13 842.125 885.325 c 0,0,0
 797.93 944.52 797.93 944.52 701.87 944.52 c 0,0,0
EndSplineSet
EndChar

StartChar: uni01A6
Encoding: 422 422 359
Width: 1366
GlyphClass: 2
Flags: W
LayerCount: 2
Fore
SplineSet
971.03 -322.3 m 1,0,0
 703.58 407.24 l 1,0,0
 358.45 407.24 l 1,0,0
 279.41 0 l 1,0,0
 54.09 0 l 1,0,0
 326.43 1409.33 l 1,0,0
 545.77 1409.33 l 1,0,0
 514.78 1248.07 l 1,0,0
 858.1 1248.07 l 2,0,0
 1025.47 1248.07 1025.47 1248.07 1142.49 1186.34 c 0,0,0
 1236.06 1138.01 1236.06 1138.01 1287.02 1056.055 c 0,0,0
 1337.98 974.1 1337.98 974.1 1337.98 867.18 c 0,0,0
 1337.98 686.77 1337.98 686.77 1229.815 575.12 c 0,0,0
 1121.65 463.47 1121.65 463.47 918.9 434.8 c 1,0,0
 1216.63 -322.3 l 1,0,0
 971.03 -322.3 l 1,0,0
767.76 584.31 m 2,0,0
 936.88 584.31 936.88 584.31 1023.105 654.2 c 0,0,0
 1109.33 724.09 1109.33 724.09 1109.33 851.52 c 0,0,0
 1109.33 956.92 1109.33 956.92 1038.46 1013.455 c 0,0,0
 967.59 1069.99 967.59 1069.99 830.48 1069.99 c 2,0,0
 487.8 1069.99 l 1,0,0
 393.4 584.31 l 1,0,0
 767.76 584.31 l 2,0,0
EndSplineSet
EndChar

StartChar: uni01A7
Encoding: 423 423 360
Width: 1366
GlyphClass: 2
Flags: W
LayerCount: 2
Fore
SplineSet
1121.59 1089.06 m 0,0,0
 1121.59 1175.13 1121.59 1175.13 1049.695 1219.84 c 0,0,0
 977.8 1264.55 977.8 1264.55 842.05 1264.55 c 0,0,0
 696.62 1264.55 696.62 1264.55 603.705 1209.505 c 0,0,0
 510.79 1154.46 510.79 1154.46 460.07 1038 c 1,0,0
 247.73 1072.98 l 1,0,0
 305.42 1202.98 305.42 1202.98 385.92 1281.32 c 0,0,0
 466.42 1359.66 466.42 1359.66 582.9 1394.83 c 0,0,0
 699.38 1430 699.38 1430 862.34 1430 c 0,0,0
 1084.98 1430 1084.98 1430 1212.945 1342.015 c 0,0,0
 1340.91 1254.03 1340.91 1254.03 1340.91 1096.37 c 0,0,0
 1340.91 1011.05 1340.91 1011.05 1317.24 948.725 c 0,0,0
 1293.57 886.4 1293.57 886.4 1252.23 841.41 c 0,0,0
 1208.22 794.75 1208.22 794.75 1143.84 759.4 c 0,0,0
 1100.48 736.06 1100.48 736.06 1048.275 717.56 c 0,0,0
 996.07 699.06 996.07 699.06 915 680.395 c 0,0,0
 833.93 661.73 833.93 661.73 703.15 635.05 c 0,0,0
 613.48 616.73 613.48 616.73 541.53 594.55 c 0,0,0
 469.58 572.37 469.58 572.37 417.97 542.69 c 0,0,0
 358.99 508.32 358.99 508.32 329.03 461.62 c 0,0,0
 299.07 414.92 299.07 414.92 299.07 352.58 c 0,0,0
 299.07 252.54 299.07 252.54 381.47 202.65 c 0,0,0
 463.87 152.76 463.87 152.76 610.6 152.76 c 0,0,0
 744.22 152.76 744.22 152.76 834.89 189.72 c 0,0,0
 913.36 220.41 913.36 220.41 968.78 277.99 c 0,0,0
 1024.2 335.57 1024.2 335.57 1068.62 438.79 c 1,0,0
 1281.91 390.8 l 1,0,0
 1191.86 174.01 1191.86 174.01 1023.07 77.005 c 0,0,0
 854.28 -20 854.28 -20 592.34 -20 c 0,0,0
 345.71 -20 345.71 -20 210.23 75.325 c 0,0,0
 74.75 170.65 74.75 170.65 74.75 344.33 c 0,0,0
 74.75 441.89 74.75 441.89 107.03 515.15 c 0,0,0
 139.31 588.41 139.31 588.41 201.81 640.7 c 0,0,0
 247.16 681.77 247.16 681.77 307.86 712.145 c 0,0,0
 368.56 742.52 368.56 742.52 442.27 765.21 c 0,0,0
 468.3 773.56 468.3 773.56 505.385 782.745 c 0,0,0
 542.47 791.93 542.47 791.93 590.6 801.96 c 2,0,0
 697.39 824.58 l 2,0,0
 797.75 844.58 797.75 844.58 866.775 862.92 c 0,0,0
 935.8 881.26 935.8 881.26 973.16 897.27 c 0,0,0
 1047.55 928.29 1047.55 928.29 1084.57 974.155 c 0,0,0
 1121.59 1020.02 1121.59 1020.02 1121.59 1089.06 c 0,0,0
EndSplineSet
EndChar

StartChar: uni01A8
Encoding: 424 424 361
Width: 1061
GlyphClass: 2
Flags: W
LayerCount: 2
Fore
SplineSet
599.13 946.82 m 0,0,0
 491.43 946.82 491.43 946.82 432.905 913.145 c 0,0,0
 374.38 879.47 374.38 879.47 345.36 803.09 c 1,0,0
 164.34 843.83 l 1,0,0
 207.96 973.75 207.96 973.75 320.735 1038.375 c 0,0,0
 433.51 1103 433.51 1103 618.41 1103 c 0,0,0
 802.35 1103 802.35 1103 901.985 1031.175 c 0,0,0
 1001.62 959.35 1001.62 959.35 1001.62 824.41 c 0,0,0
 1001.62 737.47 1001.62 737.47 961.165 677.01 c 0,0,0
 920.71 616.55 920.71 616.55 837.43 572.22 c 0,0,0
 752.47 527.55 752.47 527.55 551.48 475.25 c 0,0,0
 396.3 433.17 396.3 433.17 340.95 403.52 c 0,0,0
 295.19 379.15 295.19 379.15 272.645 348.775 c 0,0,0
 250.1 318.4 250.1 318.4 250.1 275.65 c 0,0,0
 250.1 135.85 250.1 135.85 468.19 135.85 c 0,0,0
 585.57 135.85 585.57 135.85 652.58 171.2 c 0,0,0
 719.59 206.55 719.59 206.55 753.89 288.24 c 1,0,0
 931.58 238.51 l 1,0,0
 884.66 105.63 884.66 105.63 770.205 42.815 c 0,0,0
 655.75 -20 655.75 -20 459.23 -20 c 0,0,0
 259.61 -20 259.61 -20 150.32 54.82 c 0,0,0
 41.03 129.64 41.03 129.64 41.03 269.33 c 0,0,0
 41.03 365.26 41.03 365.26 84.35 432.23 c 0,0,0
 113.34 476.88 113.34 476.88 159 511.54 c 0,0,0
 204.66 546.2 204.66 546.2 283.805 577.375 c 0,0,0
 362.95 608.55 362.95 608.55 489.9 640.24 c 2,0,0
 594.8 666.25 l 1,0,0
 708.55 699.99 708.55 699.99 753.385 732.51 c 0,0,0
 798.22 765.03 798.22 765.03 798.22 824.75 c 0,0,0
 798.22 887.42 798.22 887.42 747.025 917.12 c 0,0,0
 695.83 946.82 695.83 946.82 599.13 946.82 c 0,0,0
EndSplineSet
EndChar

StartChar: uni01AA
Encoding: 426 426 363
Width: 700
GlyphClass: 2
Flags: W
LayerCount: 2
Fore
SplineSet
168.08 1272.4 m 0,0,0
 168.08 1374.02 168.08 1374.02 237.065 1432.025 c 0,0,0
 306.05 1490.03 306.05 1490.03 421.3 1490.03 c 0,0,0
 539.53 1490.03 539.53 1490.03 601.64 1430.755 c 0,0,0
 663.75 1371.48 663.75 1371.48 663.75 1261.89 c 0,0,0
 663.75 1213.64 663.75 1213.64 651.42 1150.97 c 2,0,0
 405.66 -105.52 l 2,0,0
 400.66 -135.21 400.66 -135.21 400.66 -155.52 c 0,0,0
 400.66 -247.86 400.66 -247.86 495.99 -247.86 c 0,0,0
 520.69 -247.86 520.69 -247.86 552.145 -244.53 c 0,0,0
 583.6 -241.2 583.6 -241.2 606.96 -235.19 c 1,0,0
 573.33 -410.68 l 1,0,0
 505.02 -425 505.02 -425 422.17 -425 c 0,0,0
 307.62 -425 307.62 -425 245.655 -366.495 c 0,0,0
 183.69 -307.99 183.69 -307.99 183.69 -199.69 c 0,0,0
 183.69 -160.35 183.69 -160.35 193.35 -108.06 c 2,0,0
 435.4 1129.52 l 1,0,0
 391.05 1106.46 391.05 1106.46 333.02 1106.46 c 0,0,0
 258.36 1106.46 258.36 1106.46 213.22 1151.945 c 0,0,0
 168.08 1197.43 168.08 1197.43 168.08 1272.4 c 0,0,0
381.36 1399.82 m 0,0,0
 331.32 1399.82 331.32 1399.82 298.615 1366.11 c 0,0,0
 265.91 1332.4 265.91 1332.4 265.91 1281.69 c 0,0,0
 265.91 1239.69 265.91 1239.69 289.57 1216.7 c 0,0,0
 313.23 1193.71 313.23 1193.71 355.23 1193.71 c 0,0,0
 406.61 1193.71 406.61 1193.71 439.985 1226.75 c 0,0,0
 473.36 1259.79 473.36 1259.79 473.36 1309.83 c 0,0,0
 473.36 1351.83 473.36 1351.83 449.03 1375.825 c 0,0,0
 424.7 1399.82 424.7 1399.82 381.36 1399.82 c 0,0,0
EndSplineSet
EndChar

StartChar: uni01AB
Encoding: 427 427 364
Width: 606
GlyphClass: 2
Flags: W
LayerCount: 2
Fore
SplineSet
142.21 -425.66 m 0,0,0
 73.25 -425.66 73.25 -425.66 11.37 -404.99 c 1,0,0
 43.67 -236.15 l 1,0,0
 98.6 -254.5 98.6 -254.5 131.91 -254.5 c 0,0,0
 191.28 -254.5 191.28 -254.5 225.09 -213.78 c 0,0,0
 258.9 -173.06 258.9 -173.06 275.57 -80.67 c 2,0,0
 286.56 -17.03 l 1,0,0
 199.91 -12.41 199.91 -12.41 150.25 39.745 c 0,0,0
 100.59 91.9 100.59 91.9 100.59 180.19 c 0,0,0
 100.59 241.46 100.59 241.46 115.92 319.1 c 2,0,0
 234 931.53 l 1,0,0
 101.41 931.53 l 1,0,0
 131.04 1082 l 1,0,0
 269.59 1082 l 1,0,0
 385.15 1327.96 l 1,0,0
 523.63 1327.96 l 1,0,0
 476.3 1082 l 1,0,0
 676.96 1082 l 1,0,0
 647.99 931.53 l 1,0,0
 446.34 931.53 l 1,0,0
 328.27 322.83 l 2,0,0
 316.6 263.49 316.6 263.49 316.6 229.81 c 0,0,0
 316.6 185.15 316.6 185.15 339.43 162.985 c 0,0,0
 362.26 140.82 362.26 140.82 405.61 140.82 c 0,0,0
 442.96 140.82 442.96 140.82 508.25 154.49 c 1,0,0
 459.63 -146.11 l 2,0,0
 436.99 -283.08 436.99 -283.08 357.55 -354.37 c 0,0,0
 278.11 -425.66 278.11 -425.66 142.21 -425.66 c 0,0,0
EndSplineSet
EndChar

StartChar: uni01AC
Encoding: 428 428 365
Width: 1251
GlyphClass: 2
Flags: W
LayerCount: 2
Fore
SplineSet
876.15 1229.24 m 1,0,0
 636.77 0 l 1,0,0
 412.12 0 l 1,0,0
 651.5 1229.24 l 1,0,0
 455.77 1229.24 l 2,0,0
 283.65 1229.24 283.65 1229.24 283.65 1060.73 c 0,0,0
 284.32 1043.77 284.32 1043.77 285.98 1026.655 c 0,0,0
 287.64 1009.54 287.64 1009.54 290.29 990.93 c 1,0,0
 116.88 973.93 l 1,0,0
 109.87 1006.57 109.87 1006.57 109.87 1045.79 c 0,0,0
 109.87 1225.36 109.87 1225.36 201.69 1317.18 c 0,0,0
 293.51 1409 293.51 1409 474.09 1409 c 2,0,0
 1379.59 1409 l 1,0,0
 1344.97 1229.24 l 1,0,0
 876.15 1229.24 l 1,0,0
EndSplineSet
EndChar

StartChar: uni01AD
Encoding: 429 429 366
Width: 606
GlyphClass: 2
Flags: W
LayerCount: 2
Fore
SplineSet
308.33 -18.68 m 0,0,0
 210.46 -18.68 210.46 -18.68 155.525 34.795 c 0,0,0
 100.59 88.27 100.59 88.27 100.59 180.19 c 0,0,0
 100.59 241.46 100.59 241.46 115.92 319.1 c 2,0,0
 234 931.53 l 1,0,0
 101.41 931.53 l 1,0,0
 131.04 1082 l 1,0,0
 264.3 1082 l 1,0,0
 289.33 1206.46 l 2,0,0
 316.32 1344.04 316.32 1344.04 397.1 1418.71 c 0,0,0
 477.88 1493.38 477.88 1493.38 616.41 1493.38 c 0,0,0
 688.39 1493.38 688.39 1493.38 759.23 1472.71 c 1,0,0
 726.6 1307.52 l 1,0,0
 671.67 1325.87 671.67 1325.87 640.34 1325.87 c 0,0,0
 578.66 1325.87 578.66 1325.87 542.495 1281.825 c 0,0,0
 506.33 1237.78 506.33 1237.78 488.31 1147.35 c 2,0,0
 476.3 1082 l 1,0,0
 676.96 1082 l 1,0,0
 647.99 931.53 l 1,0,0
 446.34 931.53 l 1,0,0
 328.27 322.83 l 2,0,0
 316.6 263.49 316.6 263.49 316.6 229.81 c 0,0,0
 316.6 185.15 316.6 185.15 339.43 162.985 c 0,0,0
 362.26 140.82 362.26 140.82 405.61 140.82 c 0,0,0
 442.96 140.82 442.96 140.82 508.25 154.49 c 1,0,0
 484.96 5.32 l 1,0,0
 391.9 -18.68 391.9 -18.68 308.33 -18.68 c 0,0,0
EndSplineSet
EndChar

StartChar: uni01AE
Encoding: 430 430 367
Width: 1251
GlyphClass: 2
Flags: W
LayerCount: 2
Fore
SplineSet
171.13 1229.24 m 1,0,0
 205.75 1409 l 1,0,0
 1379.59 1409 l 1,0,0
 1344.97 1229.24 l 1,0,0
 870.21 1229.24 l 1,0,0
 613.79 -86.89 l 2,0,0
 606.12 -126.26 606.12 -126.26 606.12 -154.58 c 0,0,0
 606.12 -243.56 606.12 -243.56 691.74 -243.56 c 0,0,0
 741.17 -243.56 741.17 -243.56 797.78 -228.55 c 1,0,0
 762.82 -407.01 l 1,0,0
 681.9 -425 681.9 -425 616.6 -425 c 0,0,0
 497.38 -425 497.38 -425 436.425 -367.19 c 0,0,0
 375.47 -309.38 375.47 -309.38 375.47 -199.16 c 0,0,0
 375.47 -151.92 375.47 -151.92 388.13 -90.27 c 2,0,0
 645.56 1229.24 l 1,0,0
 171.13 1229.24 l 1,0,0
EndSplineSet
EndChar

StartChar: Uhorn
Encoding: 431 431 368
Width: 1635
GlyphClass: 2
Flags: W
LayerCount: 2
Fore
SplineSet
659.94 -20 m 0,0,0
 417.38 -20 417.38 -20 279.58 99.175 c 0,0,0
 141.78 218.35 141.78 218.35 141.78 431 c 0,0,0
 141.78 517 141.78 517 164.78 635 c 2,0,0
 314.12 1409 l 1,0,0
 539.44 1409 l 1,0,0
 380.41 576.89 l 2,0,0
 363.08 487.88 363.08 487.88 363.08 424.32 c 0,0,0
 363.08 299.21 363.08 299.21 445.795 229.645 c 0,0,0
 528.51 160.08 528.51 160.08 675.94 160.08 c 0,0,0
 859.03 160.08 859.03 160.08 964.63 253.165 c 0,0,0
 1070.23 346.25 1070.23 346.25 1106.91 541 c 2,0,0
 1274.91 1409 l 1,0,0
 1499.56 1409 l 1,0,0
 1416.94 983.23 l 1,0,0
 1663.59 1024.61 1663.59 1024.61 1700.63 1211.31 c 1,0,0
 1599.76 1211.31 l 1,0,0
 1640.04 1409 l 1,0,0
 1865.4 1409 l 1,0,0
 1837.47 1271.37 l 2,0,0
 1801.8 1094.7 1801.8 1094.7 1695.18 998.895 c 0,0,0
 1588.56 903.09 1588.56 903.09 1395.97 876.06 c 1,0,0
 1329.23 530 l 2,0,0
 1276.91 257.04 1276.91 257.04 1109.9 118.52 c 0,0,0
 942.89 -20 942.89 -20 659.94 -20 c 0,0,0
EndSplineSet
EndChar

